Maname-Regular.ufo
<glyph name="dollar" format="2">
	<advance width="469"/>
	<unicode hex="0024"/>
	<outline>
		<contour>
			<point x="259" y="-88" type="line"/>
			<point x="250" y="7"/>
			<point x="266" y="589"/>
			<point x="267" y="701" type="curve"/>
			<point x="249" y="698"/>
			<point x="223" y="695"/>
			<point x="203" y="693" type="curve"/>
			<point x="206" y="581"/>
			<point x="196" y="73"/>
			<point x="193" y="-93" type="curve"/>
		</contour>
		<contour>
			<point x="366" y="-14"/>
			<point x="420" y="88"/>
			<point x="420" y="170" type="curve" smooth="yes"/>
			<point x="420" y="349"/>
			<point x="141" y="392"/>
			<point x="141" y="501" type="curve" smooth="yes"/>
			<point x="141" y="544"/>
			<point x="182" y="580"/>
			<point x="233" y="575" type="curve" smooth="yes"/>
			<point x="311" y="567"/>
			<point x="336" y="503"/>
			<point x="351" y="485" type="curve"/>
			<point x="297" y="609" type="line"/>
			<point x="318" y="554"/>
			<point x="332" y="497"/>
			<point x="333" y="460" type="curve"/>
			<point x="404" y="452" type="line"/>
			<point x="407" y="474"/>
			<point x="410" y="507"/>
			<point x="410" y="539" type="curve" smooth="yes"/>
			<point x="410" y="558"/>
			<point x="409" y="577"/>
			<point x="407" y="591" type="curve"/>
			<point x="407" y="591"/>
			<point x="344" y="615"/>
			<point x="259" y="623" type="curve" smooth="yes"/>
			<point x="126" y="635"/>
			<point x="55" y="546"/>
			<point x="55" y="466" type="curve" smooth="yes"/>
			<point x="55" y="318"/>
			<point x="326" y="291"/>
			<point x="326" y="145" type="curve" smooth="yes"/>
			<point x="326" y="98"/>
			<point x="293" y="43"/>
			<point x="224" y="45" type="curve" smooth="yes"/>
			<point x="137" y="49"/>
			<point x="119" y="82"/>
			<point x="89" y="118" type="curve"/>
			<point x="97" y="75"/>
			<point x="91" y="51"/>
			<point x="136" y="40" type="curve"/>
			<point x="107" y="74"/>
			<point x="105" y="110"/>
			<point x="102" y="156" type="curve"/>
			<point x="34" y="164" type="line"/>
			<point x="28" y="125"/>
			<point x="25" y="92"/>
			<point x="25" y="59" type="curve" smooth="yes"/>
			<point x="25" y="43"/>
			<point x="25" y="28"/>
			<point x="27" y="17" type="curve"/>
			<point x="27" y="17"/>
			<point x="86" y="-7"/>
			<point x="210" y="-10" type="curve" smooth="yes"/>
		</contour>
	</outline>
	<anchor name="top" x="234" y="678"/>
	<anchor name="bottom" x="249" y="0"/>
</glyph>
<glyph name="two" format="2">
	<advance width="523"/>
	<unicode hex="0032"/>
	<outline>
		<contour>
			<point x="66" y="0" type="line"/>
			<point x="466" y="0" type="line"/>
			<point x="473" y="145" type="line"/>
			<point x="410" y="138" type="line"/>
			<point x="405" y="116"/>
			<point x="398" y="69"/>
			<point x="338" y="68" type="curve" smooth="yes"/>
			<point x="166" y="66" type="line"/>
			<point x="157" y="69" type="line"/>
			<point x="157" y="213"/>
			<point x="453" y="224"/>
			<point x="453" y="439" type="curve" smooth="yes"/>
			<point x="453" y="539"/>
			<point x="380" y="587"/>
			<point x="276" y="587" type="curve" smooth="yes"/>
			<point x="195" y="587"/>
			<point x="133" y="564"/>
			<point x="83" y="530" type="curve"/>
			<point x="75" y="500"/>
			<point x="92" y="444"/>
			<point x="116" y="421" type="curve"/>
			<point x="133" y="453"/>
			<point x="186" y="529"/>
			<point x="264" y="529" type="curve" smooth="yes"/>
			<point x="338" y="529"/>
			<point x="359" y="478"/>
			<point x="359" y="439" type="curve" smooth="yes"/>
			<point x="359" y="260"/>
			<point x="66" y="235"/>
			<point x="66" y="38" type="curve"/>
		</contour>
	</outline>
</glyph>
<glyph name="four" format="2">
	<advance width="567"/>
	<unicode hex="0034"/>
	<outline>
		<contour>
			<point x="46" y="148" type="line"/>
			<point x="533" y="148" type="line"/>
			<point x="523" y="219" type="line"/>
			<point x="74" y="219" type="line"/>
			<point x="69" y="169" type="line"/>
			<point x="159" y="282"/>
			<point x="331" y="500"/>
			<point x="360" y="580" type="curve"/>
			<point x="306" y="582"/>
			<point x="278" y="578"/>
			<point x="250" y="571" type="curve"/>
			<point x="212" y="479"/>
			<point x="129" y="379"/>
			<point x="23" y="177" type="curve"/>
		</contour>
		<contour>
			<point x="315" y="-19" type="curve"/>
			<point x="395" y="-19" type="line"/>
			<point x="395" y="32" type="line" smooth="yes"/>
			<point x="395" y="180"/>
			<point x="399" y="252"/>
			<point x="409" y="421" type="curve"/>
			<point x="360" y="407"/>
			<point x="329" y="378"/>
			<point x="329" y="378" type="curve"/>
			<point x="329" y="365"/>
			<point x="330" y="352"/>
			<point x="330" y="337" type="curve" smooth="yes"/>
			<point x="330" y="253"/>
			<point x="323" y="142"/>
		</contour>
	</outline>
</glyph>
<glyph name="seven" format="2">
	<advance width="483"/>
	<unicode hex="0037"/>
	<outline>
		<contour>
			<point x="223" y="2" type="curve"/>
			<point x="269" y="239"/>
			<point x="374" y="436"/>
			<point x="460" y="544" type="curve"/>
			<point x="424" y="581" type="line"/>
			<point x="50" y="581" type="line"/>
			<point x="33" y="554"/>
			<point x="31" y="512"/>
			<point x="39" y="471" type="curve"/>
			<point x="74" y="495"/>
			<point x="127" y="520"/>
			<point x="196" y="517" type="curve" smooth="yes"/>
			<point x="400" y="509" type="line"/>
			<point x="399" y="531" type="line"/>
			<point x="283" y="433"/>
			<point x="167" y="188"/>
			<point x="132" y="34" type="curve"/>
			<point x="143" y="14"/>
			<point x="186" y="2"/>
		</contour>
	</outline>
</glyph>
<glyph name="L" format="2">
	<advance width="518"/>
	<unicode hex="004C"/>
	<outline>
		<contour>
			<point x="37" y="0" type="line"/>
			<point x="484" y="0" type="line"/>
			<point x="486" y="10"/>
			<point x="487" y="39"/>
			<point x="487" y="71" type="curve" smooth="yes"/>
			<point x="487" y="107"/>
			<point x="486" y="145"/>
			<point x="484" y="163" type="curve"/>
			<point x="427" y="157" type="line"/>
			<point x="423" y="128"/>
			<point x="412" y="92"/>
			<point x="397" y="63" type="curve"/>
			<point x="368" y="59"/>
			<point x="310" y="55"/>
			<point x="265" y="55" type="curve" smooth="yes"/>
			<point x="251" y="55"/>
			<point x="249" y="55"/>
			<point x="238" y="56" type="curve" smooth="yes"/>
			<point x="212" y="58"/>
			<point x="195" y="75"/>
			<point x="194" y="105" type="curve" smooth="yes"/>
			<point x="192" y="159"/>
			<point x="192" y="177"/>
			<point x="192" y="197" type="curve" smooth="yes"/>
			<point x="192" y="224"/>
			<point x="195" y="400"/>
			<point x="206" y="518" type="curve" smooth="yes"/>
			<point x="210" y="564"/>
			<point x="235" y="568"/>
			<point x="289" y="568" type="curve"/>
			<point x="283" y="615" type="line"/>
			<point x="247" y="613"/>
			<point x="201" y="612"/>
			<point x="152" y="612" type="curve" smooth="yes"/>
			<point x="111" y="612"/>
			<point x="69" y="613"/>
			<point x="31" y="616" type="curve"/>
			<point x="35" y="569" type="line"/>
			<point x="89" y="569"/>
			<point x="111" y="547"/>
			<point x="113" y="511" type="curve" smooth="yes"/>
			<point x="116" y="452"/>
			<point x="118" y="386"/>
			<point x="118" y="323" type="curve" smooth="yes"/>
			<point x="118" y="244"/>
			<point x="115" y="169"/>
			<point x="109" y="113" type="curve" smooth="yes"/>
			<point x="104" y="63"/>
			<point x="79" y="49"/>
			<point x="31" y="49" type="curve"/>
		</contour>
	</outline>
</glyph>
<glyph name="c" format="2">
	<advance width="448"/>
	<unicode hex="0063"/>
	<outline>
		<contour>
			<point x="247" y="-16" type="curve" smooth="yes"/>
			<point x="320" y="-16"/>
			<point x="378" y="11"/>
			<point x="421" y="59" type="curve"/>
			<point x="404" y="86" type="line"/>
			<point x="375" y="62"/>
			<point x="332" y="41"/>
			<point x="281" y="41" type="curve" smooth="yes"/>
			<point x="186" y="41"/>
			<point x="129" y="108"/>
			<point x="129" y="216" type="curve" smooth="yes"/>
			<point x="129" y="333"/>
			<point x="176" y="418"/>
			<point x="254" y="418" type="curve" smooth="yes"/>
			<point x="294" y="418"/>
			<point x="328" y="397"/>
			<point x="345" y="383" type="curve"/>
			<point x="334" y="402"/>
			<point x="317" y="417"/>
			<point x="291" y="424" type="curve"/>
			<point x="328" y="397"/>
			<point x="343" y="367"/>
			<point x="359" y="334" type="curve"/>
			<point x="405" y="330" type="line"/>
			<point x="409" y="352"/>
			<point x="410" y="383"/>
			<point x="410" y="410" type="curve" smooth="yes"/>
			<point x="410" y="424"/>
			<point x="410" y="437"/>
			<point x="409" y="447" type="curve"/>
			<point x="406" y="449"/>
			<point x="364" y="470"/>
			<point x="295" y="470" type="curve" smooth="yes"/>
			<point x="116" y="470"/>
			<point x="35" y="320"/>
			<point x="35" y="198" type="curve" smooth="yes"/>
			<point x="35" y="40"/>
			<point x="133" y="-16"/>
		</contour>
	</outline>
</glyph>
<glyph name="j" format="2">
	<advance width="282"/>
	<unicode hex="006A"/>
	<outline>
		<contour>
			<point x="200" y="76"/>
			<point x="201" y="366"/>
			<point x="209" y="466" type="curve"/>
			<point x="209" y="466"/>
			<point x="101" y="456"/>
			<point x="14" y="457" type="curve"/>
			<point x="18" y="410" type="line"/>
			<point x="89" y="410"/>
			<point x="112" y="387"/>
			<point x="116" y="353" type="curve" smooth="yes"/>
			<point x="120" y="306"/>
			<point x="130" y="150"/>
			<point x="119" y="-2" type="curve" smooth="yes"/>
			<point x="108" y="-116"/>
			<point x="52" y="-164"/>
			<point x="-22" y="-146" type="curve"/>
			<point x="-39" y="-185" type="line"/>
			<point x="-28" y="-191"/>
			<point x="11" y="-204"/>
			<point x="53" y="-203" type="curve" smooth="yes"/>
			<point x="151" y="-203"/>
			<point x="203" y="-142"/>
			<point x="201" y="-6" type="curve" smooth="yes"/>
		</contour>
		<component base="dotaccent" xOffset="140" yOffset="-7"/>
	</outline>
</glyph>
<glyph name="twosuperior" format="2">
	<advance width="362"/>
	<unicode hex="00B2"/>
	<outline>
		<contour>
			<point x="62" y="417" type="line"/>
			<point x="308" y="417" type="line"/>
			<point x="312" y="504" type="line"/>
			<point x="268" y="500" type="line"/>
			<point x="266" y="487"/>
			<point x="268" y="461"/>
			<point x="236" y="461" type="curve" smooth="yes"/>
			<point x="104" y="460" type="line"/>
			<point x="92" y="442" type="line"/>
			<point x="169" y="488"/>
			<point x="295" y="573"/>
			<point x="295" y="681" type="curve" smooth="yes"/>
			<point x="295" y="747"/>
			<point x="253" y="772"/>
			<point x="182" y="772" type="curve" smooth="yes"/>
			<point x="141" y="772"/>
			<point x="86" y="759"/>
			<point x="64" y="747" type="curve"/>
			<point x="64" y="747"/>
			<point x="63" y="714"/>
			<point x="66" y="685" type="curve"/>
			<point x="100" y="689" type="line"/>
			<point x="110" y="738"/>
			<point x="146" y="739"/>
			<point x="162" y="739" type="curve" smooth="yes"/>
			<point x="199" y="739"/>
			<point x="218" y="715"/>
			<point x="218" y="674" type="curve" smooth="yes"/>
			<point x="218" y="578"/>
			<point x="132" y="519"/>
			<point x="56" y="455" type="curve"/>
		</contour>
	</outline>
</glyph>
<glyph name="ae" format="2">
	<advance width="768"/>
	<unicode hex="00E6"/>
	<outline>
		<contour>
			<point x="388" y="75" type="line"/>
			<point x="434" y="103" type="line"/>
			<point x="408" y="157"/>
			<point x="400" y="100"/>
			<point x="400" y="162" type="curve" smooth="yes"/>
			<point x="400" y="221"/>
			<point x="405" y="283"/>
			<point x="405" y="330" type="curve" smooth="yes"/>
			<point x="405" y="438"/>
			<point x="369" y="470"/>
			<point x="266" y="470" type="curve" smooth="yes"/>
			<point x="182" y="470"/>
			<point x="106" y="436"/>
			<point x="69" y="415" type="curve"/>
			<point x="69" y="415"/>
			<point x="68" y="400"/>
			<point x="68" y="378" type="curve" smooth="yes"/>
			<point x="68" y="356"/>
			<point x="69" y="328"/>
			<point x="71" y="302" type="curve"/>
			<point x="139" y="309" type="line"/>
			<point x="143" y="359"/>
			<point x="156" y="394"/>
			<point x="173" y="429" type="curve"/>
			<point x="133" y="365" type="line"/>
			<point x="157" y="391"/>
			<point x="179" y="427"/>
			<point x="234" y="427" type="curve" smooth="yes"/>
			<point x="266" y="427"/>
			<point x="300" y="410"/>
			<point x="314" y="352" type="curve" smooth="yes"/>
			<point x="319" y="331"/>
			<point x="321" y="288"/>
			<point x="321" y="240" type="curve" smooth="yes"/>
			<point x="321" y="186"/>
			<point x="324" y="125"/>
			<point x="319" y="88" type="curve"/>
			<point x="351" y="98" type="line"/>
		</contour>
		<contour>
			<point x="163" y="-10" type="curve" smooth="yes"/>
			<point x="298" y="-10"/>
			<point x="346" y="86"/>
			<point x="348" y="92" type="curve"/>
			<point x="327" y="124" type="line"/>
			<point x="322" y="93"/>
			<point x="270" y="49"/>
			<point x="207" y="49" type="curve" smooth="yes"/>
			<point x="163" y="49"/>
			<point x="136" y="75"/>
			<point x="136" y="119" type="curve" smooth="yes"/>
			<point x="136" y="178"/>
			<point x="183" y="224"/>
			<point x="260" y="224" type="curve" smooth="yes"/>
			<point x="305" y="224"/>
			<point x="339" y="210"/>
			<point x="339" y="210" type="curve"/>
			<point x="339" y="274" type="line"/>
			<point x="339" y="274"/>
			<point x="282" y="271"/>
			<point x="211" y="255" type="curve" smooth="yes"/>
			<point x="92" y="228"/>
			<point x="38" y="174"/>
			<point x="38" y="96" type="curve" smooth="yes"/>
			<point x="38" y="25"/>
			<point x="98" y="-10"/>
		</contour>
		<contour>
			<point x="539" y="-15" type="curve" smooth="yes"/>
			<point x="637" y="-15"/>
			<point x="691" y="42"/>
			<point x="703" y="59" type="curve"/>
			<point x="688" y="85" type="line"/>
			<point x="686" y="85"/>
			<point x="640" y="41"/>
			<point x="566" y="41" type="curve" smooth="yes"/>
			<point x="444" y="41"/>
			<point x="414" y="133"/>
			<point x="414" y="234" type="curve" smooth="yes"/>
			<point x="414" y="348"/>
			<point x="464" y="422"/>
			<point x="531" y="422" type="curve" smooth="yes"/>
			<point x="593" y="422"/>
			<point x="624" y="354"/>
			<point x="624" y="279" type="curve"/>
			<point x="575" y="278" type="line"/>
			<point x="392" y="260" type="line"/>
			<point x="404" y="223" type="line"/>
			<point x="719" y="225" type="line"/>
			<point x="721" y="239"/>
			<point x="721" y="253"/>
			<point x="721" y="265" type="curve" smooth="yes"/>
			<point x="721" y="396"/>
			<point x="645" y="463"/>
			<point x="546" y="463" type="curve" smooth="yes"/>
			<point x="431" y="463"/>
			<point x="322" y="374"/>
			<point x="322" y="197" type="curve" smooth="yes"/>
			<point x="322" y="59"/>
			<point x="417" y="-15"/>
		</contour>
	</outline>
</glyph>
<glyph name="eth" format="2">
	<advance width="488"/>
	<unicode hex="00F0"/>
	<outline>
		<contour>
			<point x="237" y="-2" type="curve" smooth="yes"/>
			<point x="363" y="-2"/>
			<point x="453" y="87"/>
			<point x="453" y="269" type="curve" smooth="yes"/>
			<point x="453" y="460"/>
			<point x="309" y="628"/>
			<point x="165" y="684" type="curve"/>
			<point x="153" y="678"/>
			<point x="145" y="658"/>
			<point x="145" y="644" type="curve"/>
			<point x="291" y="554"/>
			<point x="365" y="461"/>
			<point x="365" y="277" type="curve" smooth="yes"/>
			<point x="365" y="185"/>
			<point x="340" y="51"/>
			<point x="238" y="51" type="curve" smooth="yes"/>
			<point x="154" y="51"/>
			<point x="120" y="132"/>
			<point x="120" y="207" type="curve" smooth="yes"/>
			<point x="120" y="311"/>
			<point x="180" y="378"/>
			<point x="258" y="378" type="curve" smooth="yes"/>
			<point x="315" y="378"/>
			<point x="352" y="364"/>
			<point x="375" y="341" type="curve"/>
			<point x="370" y="400" type="line"/>
			<point x="352" y="407"/>
			<point x="317" y="420"/>
			<point x="271" y="420" type="curve" smooth="yes"/>
			<point x="107" y="420"/>
			<point x="35" y="304"/>
			<point x="35" y="190" type="curve" smooth="yes"/>
			<point x="35" y="85"/>
			<point x="102" y="-2"/>
		</contour>
		<contour>
			<point x="173" y="489" type="line"/>
			<point x="281" y="543"/>
			<point x="364" y="580"/>
			<point x="423" y="603" type="curve"/>
			<point x="401" y="651" type="line"/>
			<point x="337" y="619"/>
			<point x="248" y="577"/>
			<point x="153" y="535" type="curve"/>
		</contour>
	</outline>
</glyph>
<glyph name="Uhorn" format="2">
	<advance width="689"/>
	<unicode hex="01AF"/>
	<outline>
		<contour>
			<point x="612" y="566" type="line"/>
			<point x="650" y="571"/>
			<point x="679" y="596"/>
			<point x="679" y="657" type="curve" smooth="yes"/>
			<point x="679" y="706"/>
			<point x="645" y="762"/>
			<point x="597" y="762" type="curve" smooth="yes"/>
			<point x="564" y="762"/>
			<point x="549" y="742"/>
			<point x="553" y="705" type="curve"/>
			<point x="584" y="697"/>
			<point x="622" y="680"/>
			<point x="622" y="651" type="curve" smooth="yes"/>
			<point x="622" y="621"/>
			<point x="591" y="616"/>
			<point x="551" y="613" type="curve"/>
		</contour>
		<component base="U"/>
	</outline>
</glyph>
<glyph name="breveinvertedcomb" format="2">
	<advance width="281"/>
	<unicode hex="0311"/>
	<outline>
		<contour>
			<point x="82" y="796"/>
			<point x="15" y="760"/>
			<point x="0" y="711" type="curve"/>
			<point x="24" y="669" type="line"/>
			<point x="42" y="697"/>
			<point x="89" y="725"/>
			<point x="142" y="725" type="curve" smooth="yes"/>
			<point x="193" y="725"/>
			<point x="236" y="708"/>
			<point x="259" y="678" type="curve"/>
			<point x="270" y="690"/>
			<point x="276" y="703"/>
			<point x="281" y="717" type="curve"/>
			<point x="259" y="772"/>
			<point x="208" y="798"/>
			<point x="139" y="797" type="curve" smooth="yes"/>
		</contour>
	</outline>
</glyph>
<glyph name="ogonekcomb" format="2">
	<advance width="0"/>
	<unicode hex="0328"/>
	<outline>
		<contour>
			<point x="206" y="-197"/>
			<point x="272" y="-184"/>
			<point x="317" y="-157" type="curve"/>
			<point x="326" y="-109" type="line"/>
			<point x="295" y="-119"/>
			<point x="243" y="-136"/>
			<point x="204" y="-100" type="curve" smooth="yes"/>
			<point x="166" y="-65"/>
			<point x="175" y="-32"/>
			<point x="211" y="45" type="curve"/>
			<point x="169" y="32" type="line"/>
			<point x="112" y="-8"/>
			<point x="106" y="-109"/>
			<point x="158" y="-155" type="curve" smooth="yes"/>
		</contour>
	</outline>
</glyph>
<glyph name="sinIi" format="2">
	<advance width="538"/>
	<unicode hex="0D8A"/>
	<outline>
		<contour>
			<point x="221" y="531" type="curve" smooth="yes"/>
			<point x="246" y="531"/>
			<point x="267" y="554"/>
			<point x="267" y="581" type="curve" smooth="yes"/>
			<point x="267" y="603"/>
			<point x="247" y="621"/>
			<point x="224" y="621" type="curve" smooth="yes"/>
			<point x="199" y="621"/>
			<point x="177" y="598"/>
			<point x="177" y="571" type="curve" smooth="yes"/>
			<point x="177" y="549"/>
			<point x="198" y="531"/>
		</contour>
		<contour>
			<point x="457" y="428" type="curve" smooth="yes"/>
			<point x="483" y="428"/>
			<point x="503" y="450"/>
			<point x="503" y="476" type="curve" smooth="yes"/>
			<point x="503" y="498"/>
			<point x="487" y="514"/>
			<point x="465" y="514" type="curve" smooth="yes"/>
			<point x="439" y="514"/>
			<point x="417" y="492"/>
			<point x="417" y="466" type="curve" smooth="yes"/>
			<point x="417" y="444"/>
			<point x="435" y="428"/>
		</contour>
		<component base="sinRa"/>
	</outline>
</glyph>
<glyph name="sinKha" format="2">
	<advance width="662"/>
	<unicode hex="0D9B"/>
	<outline>
		<contour>
			<point x="448" y="-9" type="curve" smooth="yes"/>
			<point x="552" y="-9"/>
			<point x="617" y="99"/>
			<point x="617" y="260" type="curve" smooth="yes"/>
			<point x="617" y="473"/>
			<point x="510" y="599"/>
			<point x="305" y="599" type="curve" smooth="yes"/>
			<point x="190" y="599"/>
			<point x="101" y="564"/>
			<point x="67" y="538" type="curve"/>
			<point x="59" y="523"/>
			<point x="56" y="499"/>
			<point x="56" y="485" type="curve" smooth="yes"/>
			<point x="56" y="474"/>
			<point x="58" y="465"/>
			<point x="59" y="462" type="curve"/>
			<point x="61" y="463"/>
			<point x="147" y="528"/>
			<point x="295" y="528" type="curve" smooth="yes"/>
			<point x="445" y="528"/>
			<point x="572" y="476"/>
			<point x="572" y="279" type="curve" smooth="yes"/>
			<point x="572" y="163"/>
			<point x="518" y="56"/>
			<point x="446" y="56" type="curve" smooth="yes"/>
			<point x="394" y="56"/>
			<point x="370" y="76"/>
			<point x="360" y="90" type="curve"/>
			<point x="339" y="63" type="line"/>
			<point x="353" y="36"/>
			<point x="374" y="-9"/>
		</contour>
		<contour>
			<point x="324" y="-44" type="curve"/>
			<point x="351" y="-9"/>
			<point x="423" y="119"/>
			<point x="423" y="218" type="curve" smooth="yes"/>
			<point x="423" y="300"/>
			<point x="365" y="389"/>
			<point x="250" y="389" type="curve" smooth="yes"/>
			<point x="117" y="389"/>
			<point x="24" y="291"/>
			<point x="24" y="158" type="curve" smooth="yes"/>
			<point x="24" y="78"/>
			<point x="58" y="-14"/>
			<point x="154" y="-14" type="curve" smooth="yes"/>
			<point x="221" y="-14"/>
			<point x="257" y="31"/>
			<point x="257" y="88" type="curve" smooth="yes"/>
			<point x="257" y="142"/>
			<point x="221" y="173"/>
			<point x="174" y="173" type="curve" smooth="yes"/>
			<point x="134" y="173"/>
			<point x="103" y="137"/>
			<point x="103" y="98" type="curve" smooth="yes"/>
			<point x="103" y="74"/>
			<point x="112" y="56"/>
			<point x="122" y="40" type="curve"/>
			<point x="157" y="22" type="line"/>
			<point x="142" y="38"/>
			<point x="139" y="49"/>
			<point x="139" y="63" type="curve" smooth="yes"/>
			<point x="139" y="109"/>
			<point x="169" y="119"/>
			<point x="188" y="119" type="curve" smooth="yes"/>
			<point x="207" y="119"/>
			<point x="227" y="107"/>
			<point x="227" y="84" type="curve" smooth="yes"/>
			<point x="227" y="51"/>
			<point x="189" y="38"/>
			<point x="162" y="38" type="curve" smooth="yes"/>
			<point x="123" y="38"/>
			<point x="61" y="78"/>
			<point x="61" y="177" type="curve" smooth="yes"/>
			<point x="61" y="267"/>
			<point x="135" y="314"/>
			<point x="224" y="314" type="curve" smooth="yes"/>
			<point x="304" y="314"/>
			<point x="377" y="278"/>
			<point x="377" y="191" type="curve" smooth="yes"/>
			<point x="377" y="125"/>
			<point x="325" y="42"/>
			<point x="282" y="-14" type="curve"/>
			<point x="291" y="-29"/>
			<point x="313" y="-43"/>
		</contour>
	</outline>
</glyph>
<glyph name="sinNga" format="2">
	<advance width="656"/>
	<unicode hex="0D9E"/>
	<outline>
		<contour>
			<point x="440" y="-19" type="curve" smooth="yes"/>
			<point x="569" y="-19"/>
			<point x="612" y="127"/>
			<point x="612" y="255" type="curve" smooth="yes"/>
			<point x="612" y="444"/>
			<point x="522" y="601"/>
			<point x="271" y="601" type="curve" smooth="yes"/>
			<point x="212" y="601"/>
			<point x="136" y="586"/>
			<point x="96" y="561" type="curve"/>
			<point x="89" y="545"/>
			<point x="86" y="509"/>
			<point x="87" y="491" type="curve"/>
			<point x="125" y="515"/>
			<point x="184" y="533"/>
			<point x="271" y="533" type="curve" smooth="yes"/>
			<point x="449" y="533"/>
			<point x="567" y="458"/>
			<point x="567" y="275" type="curve" smooth="yes"/>
			<point x="567" y="182"/>
			<point x="533" y="63"/>
			<point x="436" y="63" type="curve" smooth="yes"/>
			<point x="385" y="63"/>
			<point x="346" y="96"/>
			<point x="346" y="146" type="curve" smooth="yes"/>
			<point x="346" y="155"/>
			<point x="347" y="160"/>
			<point x="348" y="167" type="curve"/>
			<point x="328" y="162" type="line"/>
			<point x="312" y="105"/>
			<point x="276" y="64"/>
			<point x="201" y="64" type="curve" smooth="yes"/>
			<point x="144" y="64"/>
			<point x="83" y="83"/>
			<point x="83" y="148" type="curve" smooth="yes"/>
			<point x="83" y="214"/>
			<point x="149" y="237"/>
			<point x="227" y="237" type="curve" smooth="yes"/>
			<point x="267" y="237"/>
			<point x="325" y="236"/>
			<point x="346" y="227" type="curve"/>
			<point x="361" y="238" type="line"/>
			<point x="366" y="262"/>
			<point x="368" y="269"/>
			<point x="368" y="295" type="curve" smooth="yes"/>
			<point x="368" y="386"/>
			<point x="287" y="422"/>
			<point x="225" y="422" type="curve" smooth="yes"/>
			<point x="121" y="422"/>
			<point x="66" y="370"/>
			<point x="66" y="306" type="curve" smooth="yes"/>
			<point x="66" y="277"/>
			<point x="78" y="237"/>
			<point x="135" y="237" type="curve" smooth="yes"/>
			<point x="174" y="237"/>
			<point x="212" y="271"/>
			<point x="212" y="327" type="curve" smooth="yes"/>
			<point x="212" y="340"/>
			<point x="205" y="366"/>
			<point x="194" y="376" type="curve"/>
			<point x="166" y="376" type="line"/>
			<point x="182" y="297"/>
			<point x="151" y="279"/>
			<point x="130" y="279" type="curve" smooth="yes"/>
			<point x="108" y="279"/>
			<point x="98" y="295"/>
			<point x="98" y="311" type="curve" smooth="yes"/>
			<point x="98" y="350"/>
			<point x="140" y="371"/>
			<point x="213" y="371" type="curve" smooth="yes"/>
			<point x="266" y="371"/>
			<point x="332" y="352"/>
			<point x="332" y="296" type="curve" smooth="yes"/>
			<point x="332" y="267"/>
			<point x="315" y="265"/>
			<point x="295" y="246" type="curve"/>
			<point x="335" y="259" type="line"/>
			<point x="306" y="273"/>
			<point x="265" y="282"/>
			<point x="229" y="282" type="curve" smooth="yes"/>
			<point x="136" y="282"/>
			<point x="40" y="246"/>
			<point x="40" y="128" type="curve" smooth="yes"/>
			<point x="40" y="42"/>
			<point x="107" y="-15"/>
			<point x="182" y="-15" type="curve" smooth="yes"/>
			<point x="286" y="-15"/>
			<point x="328" y="49"/>
			<point x="331" y="93" type="curve"/>
			<point x="333" y="95"/>
			<point x="326" y="90"/>
			<point x="327" y="92" type="curve"/>
			<point x="326" y="86"/>
			<point x="326" y="80"/>
			<point x="326" y="75" type="curve" smooth="yes"/>
			<point x="326" y="30"/>
			<point x="361" y="-19"/>
		</contour>
	</outline>
</glyph>
<glyph name="sinJa" format="2">
	<advance width="642"/>
	<unicode hex="0DA2"/>
	<anchor x="558" y="175" name="rakar"/>
	<outline>
		<contour>
			<point x="442" y="284"/>
			<point x="442" y="348"/>
			<point x="484" y="437" type="curve" smooth="yes"/>
			<point x="534" y="543"/>
			<point x="632" y="635"/>
			<point x="632" y="635" type="curve"/>
			<point x="630" y="651"/>
			<point x="602" y="678"/>
			<point x="588" y="677" type="curve"/>
			<point x="588" y="677"/>
			<point x="502" y="592"/>
			<point x="453" y="473" type="curve" smooth="yes"/>
			<point x="414" y="379"/>
			<point x="410" y="303"/>
			<point x="410" y="303" type="curve"/>
			<point x="442" y="284" type="line"/>
		</contour>
		<component base="sinPa"/>
	</outline>
</glyph>
<glyph name="sinJnya" format="2">
	<advance width="953"/>
	<unicode hex="0DA5"/>
	<outline>
		<contour>
			<point x="102" y="-8" type="curve"/>
			<point x="121" y="-8"/>
			<point x="132" y="-4"/>
			<point x="136" y="-1" type="curve"/>
			<point x="121" y="26"/>
			<point x="90" y="109"/>
			<point x="90" y="184" type="curve" smooth="yes"/>
			<point x="90" y="309"/>
			<point x="152" y="406"/>
			<point x="255" y="406" type="curve"/>
			<point x="360" y="447" type="line"/>
			<point x="346" y="450"/>
			<point x="338" y="453"/>
			<point x="294" y="453" type="curve" smooth="yes"/>
			<point x="161" y="453"/>
			<point x="35" y="366"/>
			<point x="35" y="196" type="curve" smooth="yes"/>
			<point x="35" y="119"/>
			<point x="76" y="23"/>
		</contour>
		<contour>
			<point x="702" y="462" type="line"/>
			<point x="461" y="462"/>
			<point x="393" y="333"/>
			<point x="388" y="170" type="curve"/>
			<point x="393" y="169"/>
			<point x="397" y="169"/>
			<point x="402" y="169" type="curve" smooth="yes"/>
			<point x="409" y="169"/>
			<point x="416" y="169"/>
			<point x="424" y="170" type="curve"/>
			<point x="422" y="177"/>
			<point x="421" y="190"/>
			<point x="421" y="197" type="curve" smooth="yes"/>
			<point x="421" y="305"/>
			<point x="492" y="392"/>
			<point x="644" y="392" type="curve"/>
		</contour>
		<contour>
			<point x="348" y="-9" type="curve" smooth="yes"/>
			<point x="472" y="-9"/>
			<point x="539" y="79"/>
			<point x="539" y="173" type="curve" smooth="yes"/>
			<point x="539" y="247"/>
			<point x="488" y="302"/>
			<point x="423" y="301" type="curve"/>
			<point x="419" y="249" type="line"/>
			<point x="449" y="248"/>
			<point x="505" y="230"/>
			<point x="505" y="180" type="curve" smooth="yes"/>
			<point x="505" y="113"/>
			<point x="420" y="80"/>
			<point x="352" y="80" type="curve" smooth="yes"/>
			<point x="255" y="80"/>
			<point x="180" y="130"/>
			<point x="180" y="215" type="curve" smooth="yes"/>
			<point x="180" y="297"/>
			<point x="242" y="356"/>
			<point x="351" y="356" type="curve"/>
			<point x="356" y="363"/>
			<point x="361" y="408"/>
			<point x="361" y="432" type="curve" smooth="yes"/>
			<point x="361" y="438"/>
			<point x="361" y="444"/>
			<point x="360" y="447" type="curve"/>
			<point x="254" y="446"/>
			<point x="144" y="357"/>
			<point x="144" y="194" type="curve" smooth="yes"/>
			<point x="144" y="71"/>
			<point x="224" y="-9"/>
		</contour>
		<component base="sinDa" xOffset="470"/>
	</outline>
</glyph>
<glyph name="sinDda" format="2">
	<advance width="696"/>
	<unicode hex="0DA9"/>
	<outline>
		<contour>
			<point x="466" y="-19" type="curve" smooth="yes"/>
			<point x="595" y="-19"/>
			<point x="652" y="126"/>
			<point x="652" y="258" type="curve" smooth="yes"/>
			<point x="652" y="445"/>
			<point x="539" y="601"/>
			<point x="335" y="601" type="curve" smooth="yes"/>
			<point x="241" y="601"/>
			<point x="176" y="580"/>
			<point x="136" y="561" type="curve"/>
			<point x="126" y="545"/>
			<point x="122" y="511"/>
			<point x="124" y="490" type="curve"/>
			<point x="132" y="494"/>
			<point x="204" y="533"/>
			<point x="331" y="533" type="curve" smooth="yes"/>
			<point x="469" y="533"/>
			<point x="607" y="458"/>
			<point x="607" y="284" type="curve" smooth="yes"/>
			<point x="607" y="182"/>
			<point x="559" y="63"/>
			<point x="462" y="63" type="curve" smooth="yes"/>
			<point x="411" y="63"/>
			<point x="381" y="96"/>
			<point x="381" y="146" type="curve" smooth="yes"/>
			<point x="381" y="155"/>
			<point x="382" y="160"/>
			<point x="383" y="167" type="curve"/>
			<point x="363" y="162" type="line"/>
			<point x="347" y="105"/>
			<point x="311" y="64"/>
			<point x="241" y="64" type="curve" smooth="yes"/>
			<point x="174" y="64"/>
			<point x="138" y="101"/>
			<point x="138" y="158" type="curve" smooth="yes"/>
			<point x="138" y="228"/>
			<point x="185" y="260"/>
			<point x="269" y="260" type="curve" smooth="yes"/>
			<point x="306" y="260"/>
			<point x="332" y="254"/>
			<point x="347" y="247" type="curve"/>
			<point x="359" y="255" type="line"/>
			<point x="361" y="264"/>
			<point x="361" y="268"/>
			<point x="361" y="288" type="curve" smooth="yes"/>
			<point x="361" y="376"/>
			<point x="303" y="444"/>
			<point x="221" y="444" type="curve" smooth="yes"/>
			<point x="166" y="444"/>
			<point x="131" y="414"/>
			<point x="131" y="378" type="curve" smooth="yes"/>
			<point x="131" y="353"/>
			<point x="149" y="330"/>
			<point x="191" y="334" type="curve"/>
			<point x="191" y="352"/>
			<point x="209" y="390"/>
			<point x="254" y="390" type="curve" smooth="yes"/>
			<point x="283" y="390"/>
			<point x="316" y="375"/>
			<point x="316" y="331" type="curve" smooth="yes"/>
			<point x="316" y="324"/>
			<point x="315" y="315"/>
			<point x="313" y="306" type="curve"/>
			<point x="298" y="300"/>
			<point x="306" y="303"/>
			<point x="295" y="302" type="curve" smooth="yes"/>
			<point x="182" y="296"/>
			<point x="91" y="251"/>
			<point x="91" y="129" type="curve" smooth="yes"/>
			<point x="91" y="37"/>
			<point x="147" y="-15"/>
			<point x="230" y="-15" type="curve" smooth="yes"/>
			<point x="322" y="-15"/>
			<point x="363" y="49"/>
			<point x="366" y="93" type="curve"/>
			<point x="368" y="95"/>
			<point x="361" y="90"/>
			<point x="362" y="92" type="curve"/>
			<point x="361" y="84"/>
			<point x="361" y="83"/>
			<point x="361" y="81" type="curve" smooth="yes"/>
			<point x="361" y="26"/>
			<point x="394" y="-19"/>
		</contour>
		<contour>
			<point x="50" y="216" type="line"/>
			<point x="87" y="242"/>
			<point x="161" y="290"/>
			<point x="314" y="297" type="curve"/>
			<point x="348" y="309" type="line"/>
			<point x="260" y="310"/>
			<point x="116" y="301"/>
			<point x="52" y="289" type="curve"/>
			<point x="45" y="268"/>
			<point x="41" y="246"/>
			<point x="40" y="223" type="curve"/>
		</contour>
	</outline>
</glyph>
<glyph name="sinNna" format="2">
	<advance width="937"/>
	<unicode hex="0DAB"/>
	<anchor x="829" y="371" name="Virama"/>
	<outline>
		<contour>
			<point x="320" y="-11" type="curve" smooth="yes"/>
			<point x="486" y="-11"/>
			<point x="528" y="157"/>
			<point x="528" y="243" type="curve" smooth="yes"/>
			<point x="528" y="356"/>
			<point x="462" y="465"/>
			<point x="318" y="465" type="curve" smooth="yes"/>
			<point x="206" y="465"/>
			<point x="114" y="392"/>
			<point x="114" y="275" type="curve" smooth="yes"/>
			<point x="114" y="185"/>
			<point x="195" y="122"/>
			<point x="281" y="122" type="curve" smooth="yes"/>
			<point x="348" y="122"/>
			<point x="396" y="162"/>
			<point x="396" y="218" type="curve" smooth="yes"/>
			<point x="396" y="261"/>
			<point x="362" y="295"/>
			<point x="306" y="295" type="curve" smooth="yes"/>
			<point x="265" y="295"/>
			<point x="244" y="276"/>
			<point x="207" y="241" type="curve"/>
			<point x="197" y="206" type="line"/>
			<point x="223" y="232"/>
			<point x="251" y="262"/>
			<point x="288" y="262" type="curve" smooth="yes"/>
			<point x="318" y="262"/>
			<point x="337" y="247"/>
			<point x="337" y="223" type="curve" smooth="yes"/>
			<point x="337" y="182"/>
			<point x="303" y="163"/>
			<point x="272" y="163" type="curve" smooth="yes"/>
			<point x="238" y="163"/>
			<point x="150" y="181"/>
			<point x="150" y="276" type="curve" smooth="yes"/>
			<point x="150" y="363"/>
			<point x="211" y="408"/>
			<point x="311" y="408" type="curve" smooth="yes"/>
			<point x="423" y="408"/>
			<point x="494" y="323"/>
			<point x="494" y="242" type="curve" smooth="yes"/>
			<point x="494" y="145"/>
			<point x="429" y="70"/>
			<point x="303" y="70" type="curve" smooth="yes"/>
			<point x="175" y="70"/>
			<point x="141" y="87"/>
			<point x="71" y="87" type="curve" smooth="yes"/>
			<point x="60" y="87"/>
			<point x="48" y="85"/>
			<point x="34" y="80" type="curve"/>
			<point x="74" y="65" type="line"/>
			<point x="168" y="190"/>
			<point x="451" y="466"/>
			<point x="625" y="576" type="curve"/>
			<point x="622" y="594"/>
			<point x="600" y="626"/>
			<point x="581" y="631" type="curve"/>
			<point x="405" y="479"/>
			<point x="173" y="248"/>
			<point x="50" y="87" type="curve"/>
			<point x="29" y="85"/>
			<point x="10" y="71"/>
			<point x="10" y="48" type="curve" smooth="yes"/>
			<point x="10" y="38"/>
			<point x="14" y="30"/>
			<point x="16" y="27" type="curve"/>
			<point x="24" y="22"/>
			<point x="39" y="23"/>
			<point x="49" y="31" type="curve"/>
			<point x="49" y="36"/>
			<point x="47" y="48"/>
			<point x="71" y="48" type="curve" smooth="yes"/>
			<point x="149" y="48"/>
			<point x="179" y="-11"/>
		</contour>
		<contour>
			<point x="691" y="-26" type="curve" smooth="yes"/>
			<point x="828" y="-26"/>
			<point x="887" y="105"/>
			<point x="887" y="231" type="curve" smooth="yes"/>
			<point x="887" y="351"/>
			<point x="834" y="405"/>
			<point x="770" y="405" type="curve" smooth="yes"/>
			<point x="708" y="405"/>
			<point x="665" y="345"/>
			<point x="649" y="288" type="curve"/>
			<point x="650" y="279" type="line"/>
			<point x="653" y="311"/>
			<point x="640" y="353"/>
			<point x="602" y="353" type="curve" smooth="yes"/>
			<point x="554" y="353"/>
			<point x="519" y="298"/>
			<point x="516" y="253" type="curve"/>
			<point x="523" y="191" type="line"/>
			<point x="535" y="254"/>
			<point x="548" y="288"/>
			<point x="579" y="288" type="curve" smooth="yes"/>
			<point x="628" y="288"/>
			<point x="629" y="219"/>
			<point x="626" y="163" type="curve"/>
			<point x="632" y="162"/>
			<point x="648" y="162"/>
			<point x="657" y="165" type="curve"/>
			<point x="668" y="259"/>
			<point x="695" y="320"/>
			<point x="764" y="320" type="curve" smooth="yes"/>
			<point x="801" y="320"/>
			<point x="854" y="297"/>
			<point x="854" y="211" type="curve" smooth="yes"/>
			<point x="854" y="124"/>
			<point x="800" y="51"/>
			<point x="694" y="51" type="curve" smooth="yes"/>
			<point x="651" y="51"/>
			<point x="613" y="63"/>
			<point x="581" y="79" type="curve"/>
			<point x="571" y="73"/>
			<point x="561" y="61"/>
			<point x="559" y="51" type="curve"/>
			<point x="565" y="21"/>
			<point x="608" y="-26"/>
		</contour>
	</outline>
</glyph>
<glyph name="sinNndda" format="2">
	<advance width="817"/>
	<unicode hex="0DAC"/>
	<outline>
		<contour>
			<point x="127" y="-6" type="curve"/>
			<point x="146" y="-6"/>
			<point x="156" y="-2"/>
			<point x="161" y="1" type="curve"/>
			<point x="140" y="33"/>
			<point x="97" y="80"/>
			<point x="97" y="184" type="curve" smooth="yes"/>
			<point x="97" y="259"/>
			<point x="116" y="378"/>
			<point x="257" y="378" type="curve" smooth="yes"/>
			<point x="270" y="378"/>
			<point x="270" y="378"/>
			<point x="277" y="376" type="curve"/>
			<point x="282" y="387" type="line"/>
			<point x="380" y="391" type="line"/>
			<point x="377" y="420" type="line"/>
			<point x="370" y="422"/>
			<point x="359" y="424"/>
			<point x="341" y="425" type="curve" smooth="yes"/>
			<point x="328" y="426"/>
			<point x="317" y="427"/>
			<point x="292" y="427" type="curve" smooth="yes"/>
			<point x="135" y="427"/>
			<point x="44" y="339"/>
			<point x="44" y="181" type="curve" smooth="yes"/>
			<point x="44" y="86"/>
			<point x="91" y="27"/>
		</contour>
		<component base="sinDda" xOffset="121"/>
	</outline>
</glyph>
<glyph name="sinDa" format="2">
	<advance width="483"/>
	<unicode hex="0DAF"/>
	<anchor x="354" y="407" name="Virama"/>
	<outline>
		<contour>
			<point x="257" y="-36" type="curve" smooth="yes"/>
			<point x="330" y="-36"/>
			<point x="379" y="-25"/>
			<point x="412" y="-13" type="curve"/>
			<point x="420" y="4"/>
			<point x="425" y="23"/>
			<point x="425" y="52" type="curve"/>
			<point x="417" y="62" type="line"/>
			<point x="371" y="42"/>
			<point x="316" y="30"/>
			<point x="254" y="30" type="curve" smooth="yes"/>
			<point x="158" y="30"/>
			<point x="79" y="55"/>
			<point x="79" y="125" type="curve" smooth="yes"/>
			<point x="79" y="200"/>
			<point x="146" y="257"/>
			<point x="293" y="257" type="curve" smooth="yes"/>
			<point x="315" y="257"/>
			<point x="364" y="254"/>
			<point x="390" y="250" type="curve"/>
			<point x="404" y="268" type="line"/>
			<point x="409" y="353"/>
			<point x="365" y="462"/>
			<point x="244" y="462" type="curve" smooth="yes"/>
			<point x="170" y="462"/>
			<point x="118" y="426"/>
			<point x="118" y="373" type="curve" smooth="yes"/>
			<point x="118" y="344"/>
			<point x="139" y="326"/>
			<point x="172" y="326" type="curve" smooth="yes"/>
			<point x="182" y="326"/>
			<point x="192" y="328"/>
			<point x="204" y="330" type="curve"/>
			<point x="202" y="337"/>
			<point x="202" y="343"/>
			<point x="202" y="350" type="curve" smooth="yes"/>
			<point x="202" y="391"/>
			<point x="237" y="413"/>
			<point x="272" y="413" type="curve" smooth="yes"/>
			<point x="322" y="413"/>
			<point x="341" y="377"/>
			<point x="345" y="316" type="curve"/>
			<point x="333" y="319"/>
			<point x="321" y="320"/>
			<point x="296" y="320" type="curve" smooth="yes"/>
			<point x="138" y="320"/>
			<point x="40" y="242"/>
			<point x="40" y="122" type="curve" smooth="yes"/>
			<point x="40" y="15"/>
			<point x="142" y="-36"/>
		</contour>
		<contour>
			<point x="368" y="-243" type="curve" smooth="yes"/>
			<point x="411" y="-243"/>
			<point x="439" y="-237"/>
			<point x="473" y="-221" type="curve"/>
			<point x="476" y="-199"/>
			<point x="471" y="-159"/>
			<point x="453" y="-148" type="curve"/>
			<point x="418" y="-171"/>
			<point x="389" y="-177"/>
			<point x="367" y="-177" type="curve" smooth="yes"/>
			<point x="304" y="-177"/>
			<point x="282" y="-149"/>
			<point x="282" y="-118" type="curve" smooth="yes"/>
			<point x="282" y="-29"/>
			<point x="375" y="-27"/>
			<point x="411" y="-14" type="curve"/>
			<point x="407" y="-12"/>
			<point x="404" y="-1"/>
			<point x="400" y="1" type="curve"/>
			<point x="393" y="2"/>
			<point x="378" y="-11"/>
			<point x="380" y="-4" type="curve" smooth="yes"/>
			<point x="386" y="20" type="line"/>
			<point x="333" y="-3"/>
			<point x="230" y="-29"/>
			<point x="230" y="-134" type="curve" smooth="yes"/>
			<point x="230" y="-188"/>
			<point x="268" y="-243"/>
		</contour>
	</outline>
</glyph>
<glyph name="sinMba" format="2">
	<advance width="710"/>
	<unicode hex="0DB9"/>
	<outline>
		<contour>
			<point x="484" y="-16" type="curve" smooth="yes"/>
			<point x="614" y="-16"/>
			<point x="666" y="145"/>
			<point x="666" y="275" type="curve" smooth="yes"/>
			<point x="666" y="444"/>
			<point x="574" y="616"/>
			<point x="334" y="616" type="curve" smooth="yes"/>
			<point x="244" y="616"/>
			<point x="156" y="585"/>
			<point x="120" y="568" type="curve"/>
			<point x="114" y="552"/>
			<point x="111" y="528"/>
			<point x="111" y="511" type="curve" smooth="yes"/>
			<point x="111" y="502"/>
			<point x="112" y="495"/>
			<point x="113" y="489" type="curve"/>
			<point x="149" y="506"/>
			<point x="228" y="544"/>
			<point x="345" y="544" type="curve" smooth="yes"/>
			<point x="513" y="544"/>
			<point x="625" y="454"/>
			<point x="625" y="282" type="curve" smooth="yes"/>
			<point x="625" y="177"/>
			<point x="580" y="62"/>
			<point x="483" y="62" type="curve" smooth="yes"/>
			<point x="438" y="62"/>
			<point x="421" y="89"/>
			<point x="421" y="117" type="curve" smooth="yes"/>
			<point x="421" y="133"/>
			<point x="424" y="149"/>
			<point x="427" y="163" type="curve"/>
			<point x="413" y="169"/>
			<point x="399" y="170"/>
			<point x="383" y="170" type="curve" smooth="yes"/>
			<point x="359" y="170"/>
			<point x="329" y="167"/>
			<point x="312" y="156" type="curve"/>
			<point x="313" y="110"/>
			<point x="302" y="62"/>
			<point x="234" y="62" type="curve" smooth="yes"/>
			<point x="144" y="62"/>
			<point x="85" y="119"/>
			<point x="85" y="210" type="curve" smooth="yes"/>
			<point x="85" y="320"/>
			<point x="154" y="342"/>
			<point x="194" y="349" type="curve"/>
			<point x="183" y="384" type="line"/>
			<point x="183" y="381"/>
			<point x="187" y="192"/>
			<point x="359" y="192" type="curve" smooth="yes"/>
			<point x="441" y="192"/>
			<point x="510" y="247"/>
			<point x="510" y="330" type="curve" smooth="yes"/>
			<point x="510" y="409"/>
			<point x="449" y="473"/>
			<point x="380" y="473" type="curve" smooth="yes"/>
			<point x="311" y="473"/>
			<point x="277" y="420"/>
			<point x="277" y="376" type="curve" smooth="yes"/>
			<point x="277" y="327"/>
			<point x="308" y="295"/>
			<point x="355" y="295" type="curve" smooth="yes"/>
			<point x="404" y="295"/>
			<point x="442" y="329"/>
			<point x="442" y="385" type="curve" smooth="yes"/>
			<point x="442" y="398"/>
			<point x="440" y="414"/>
			<point x="434" y="431" type="curve"/>
			<point x="420" y="434" type="line"/>
			<point x="416" y="355"/>
			<point x="378" y="343"/>
			<point x="354" y="343" type="curve" smooth="yes"/>
			<point x="335" y="343"/>
			<point x="311" y="354"/>
			<point x="311" y="376" type="curve" smooth="yes"/>
			<point x="311" y="399"/>
			<point x="339" y="423"/>
			<point x="385" y="423" type="curve" smooth="yes"/>
			<point x="435" y="423"/>
			<point x="472" y="394"/>
			<point x="472" y="347" type="curve" smooth="yes"/>
			<point x="472" y="277"/>
			<point x="422" y="247"/>
			<point x="361" y="247" type="curve" smooth="yes"/>
			<point x="251" y="247"/>
			<point x="216" y="340"/>
			<point x="216" y="388" type="curve" smooth="yes"/>
			<point x="216" y="395"/>
			<point x="217" y="401"/>
			<point x="218" y="406" type="curve"/>
			<point x="212" y="415"/>
			<point x="203" y="423"/>
			<point x="196" y="425" type="curve"/>
			<point x="133" y="406"/>
			<point x="44" y="353"/>
			<point x="44" y="197" type="curve" smooth="yes"/>
			<point x="44" y="75"/>
			<point x="114" y="-13"/>
			<point x="229" y="-13" type="curve" smooth="yes"/>
			<point x="333" y="-13"/>
			<point x="339" y="103"/>
			<point x="340" y="112" type="curve"/>
			<point x="342" y="113"/>
			<point x="352" y="117"/>
			<point x="368" y="117" type="curve" smooth="yes"/>
			<point x="371" y="117"/>
			<point x="384" y="116"/>
			<point x="387" y="113" type="curve"/>
			<point x="384" y="99"/>
			<point x="383" y="87"/>
			<point x="383" y="71" type="curve" smooth="yes"/>
			<point x="383" y="33"/>
			<point x="407" y="-16"/>
		</contour>
	</outline>
</glyph>
<glyph name="sinLa" format="2">
	<advance width="684"/>
	<unicode hex="0DBD"/>
	<anchor x="581" y="387" name="Virama"/>
	<outline>
		<contour>
			<point x="393" y="-225" type="curve" smooth="yes"/>
			<point x="517" y="-225"/>
			<point x="602" y="-166"/>
			<point x="628" y="-129" type="curve"/>
			<point x="631" y="-115"/>
			<point x="618" y="-94"/>
			<point x="613" y="-91" type="curve"/>
			<point x="559" y="-122"/>
			<point x="491" y="-145"/>
			<point x="400" y="-145" type="curve" smooth="yes"/>
			<point x="255" y="-145"/>
			<point x="90" y="-90"/>
			<point x="90" y="126" type="curve" smooth="yes"/>
			<point x="90" y="265"/>
			<point x="187" y="385"/>
			<point x="387" y="385" type="curve" smooth="yes"/>
			<point x="525" y="385"/>
			<point x="595" y="328"/>
			<point x="595" y="246" type="curve" smooth="yes"/>
			<point x="595" y="184"/>
			<point x="560" y="119"/>
			<point x="480" y="119" type="curve" smooth="yes"/>
			<point x="433" y="119"/>
			<point x="390" y="138"/>
			<point x="390" y="185" type="curve" smooth="yes"/>
			<point x="390" y="226"/>
			<point x="424" y="251"/>
			<point x="460" y="265" type="curve"/>
			<point x="420" y="255" type="line"/>
			<point x="497" y="255" type="line"/>
			<point x="504" y="264"/>
			<point x="508" y="280"/>
			<point x="505" y="290" type="curve"/>
			<point x="272" y="290" type="line"/>
			<point x="262" y="280"/>
			<point x="259" y="266"/>
			<point x="263" y="255" type="curve"/>
			<point x="395" y="255" type="line"/>
			<point x="396" y="257"/>
			<point x="420" y="260"/>
			<point x="420" y="262" type="curve"/>
			<point x="359" y="256"/>
			<point x="325" y="216"/>
			<point x="325" y="168" type="curve" smooth="yes"/>
			<point x="325" y="117"/>
			<point x="369" y="68"/>
			<point x="460" y="68" type="curve" smooth="yes"/>
			<point x="577" y="68"/>
			<point x="639" y="163"/>
			<point x="639" y="265" type="curve" smooth="yes"/>
			<point x="639" y="351"/>
			<point x="585" y="457"/>
			<point x="408" y="457" type="curve" smooth="yes"/>
			<point x="192" y="457"/>
			<point x="45" y="304"/>
			<point x="45" y="90" type="curve" smooth="yes"/>
			<point x="45" y="-72"/>
			<point x="137" y="-225"/>
		</contour>
	</outline>
</glyph>
<glyph name="sinVa" format="2">
	<advance width="604"/>
	<unicode hex="0DC0"/>
	<outline>
		<contour>
			<point x="266" y="-21" type="curve" smooth="yes"/>
			<point x="477" y="-21"/>
			<point x="559" y="127"/>
			<point x="559" y="296" type="curve" smooth="yes"/>
			<point x="559" y="495"/>
			<point x="448" y="604"/>
			<point x="245" y="604" type="curve" smooth="yes"/>
			<point x="166" y="604"/>
			<point x="103" y="580"/>
			<point x="64" y="560" type="curve"/>
			<point x="59" y="549"/>
			<point x="57" y="534"/>
			<point x="57" y="521" type="curve" smooth="yes"/>
			<point x="57" y="509"/>
			<point x="59" y="498"/>
			<point x="60" y="491" type="curve"/>
			<point x="85" y="505"/>
			<point x="144" y="533"/>
			<point x="242" y="533" type="curve" smooth="yes"/>
			<point x="417" y="533"/>
			<point x="514" y="455"/>
			<point x="514" y="308" type="curve" smooth="yes"/>
			<point x="514" y="178"/>
			<point x="433" y="62"/>
			<point x="265" y="62" type="curve" smooth="yes"/>
			<point x="167" y="62"/>
			<point x="82" y="95"/>
			<point x="82" y="159" type="curve" smooth="yes"/>
			<point x="82" y="229"/>
			<point x="161" y="255"/>
			<point x="239" y="255" type="curve" smooth="yes"/>
			<point x="257" y="255"/>
			<point x="279" y="253"/>
			<point x="298" y="250" type="curve"/>
			<point x="313" y="262" type="line"/>
			<point x="315" y="270"/>
			<point x="315" y="278"/>
			<point x="315" y="291" type="curve" smooth="yes"/>
			<point x="315" y="362"/>
			<point x="273" y="438"/>
			<point x="180" y="438" type="curve" smooth="yes"/>
			<point x="128" y="438"/>
			<point x="79" y="415"/>
			<point x="79" y="372" type="curve" smooth="yes"/>
			<point x="79" y="346"/>
			<point x="96" y="327"/>
			<point x="128" y="327" type="curve" smooth="yes"/>
			<point x="132" y="327"/>
			<point x="136" y="327"/>
			<point x="140" y="328" type="curve"/>
			<point x="140" y="336"/>
			<point x="154" y="387"/>
			<point x="204" y="387" type="curve" smooth="yes"/>
			<point x="241" y="387"/>
			<point x="268" y="369"/>
			<point x="268" y="311" type="curve"/>
			<point x="262" y="312"/>
			<point x="257" y="312"/>
			<point x="250" y="312" type="curve" smooth="yes"/>
			<point x="174" y="312"/>
			<point x="44" y="287"/>
			<point x="44" y="143" type="curve" smooth="yes"/>
			<point x="44" y="46"/>
			<point x="140" y="-21"/>
		</contour>
	</outline>
</glyph>
<glyph name="sinLla" format="2">
	<advance width="656"/>
	<unicode hex="0DC5"/>
	<outline>
		<contour>
			<point x="391" y="-220" type="curve" smooth="yes"/>
			<point x="517" y="-220"/>
			<point x="599" y="-160"/>
			<point x="634" y="-128" type="curve"/>
			<point x="635" y="-116"/>
			<point x="627" y="-93"/>
			<point x="617" y="-83" type="curve"/>
			<point x="581" y="-110"/>
			<point x="491" y="-143"/>
			<point x="396" y="-143" type="curve" smooth="yes"/>
			<point x="175" y="-143"/>
			<point x="82" y="-39"/>
			<point x="82" y="79" type="curve" smooth="yes"/>
			<point x="82" y="203"/>
			<point x="198" y="260"/>
			<point x="345" y="260" type="curve" smooth="yes"/>
			<point x="462" y="260"/>
			<point x="538" y="256"/>
			<point x="571" y="245" type="curve"/>
			<point x="589" y="263" type="line"/>
			<point x="591" y="380"/>
			<point x="560" y="464"/>
			<point x="476" y="464" type="curve" smooth="yes"/>
			<point x="408" y="464"/>
			<point x="385" y="410"/>
			<point x="385" y="380" type="curve"/>
			<point x="388" y="394" type="line"/>
			<point x="388" y="403"/>
			<point x="372" y="465"/>
			<point x="295" y="465" type="curve" smooth="yes"/>
			<point x="220" y="465"/>
			<point x="142" y="405"/>
			<point x="142" y="281" type="curve" smooth="yes"/>
			<point x="142" y="153"/>
			<point x="231" y="49"/>
			<point x="396" y="49" type="curve" smooth="yes"/>
			<point x="489" y="49"/>
			<point x="551" y="88"/>
			<point x="579" y="116" type="curve"/>
			<point x="580" y="118"/>
			<point x="580" y="121"/>
			<point x="580" y="124" type="curve" smooth="yes"/>
			<point x="580" y="134"/>
			<point x="576" y="145"/>
			<point x="571" y="151" type="curve"/>
			<point x="532" y="133"/>
			<point x="479" y="125"/>
			<point x="428" y="125" type="curve" smooth="yes"/>
			<point x="312" y="125"/>
			<point x="182" y="152"/>
			<point x="182" y="276" type="curve" smooth="yes"/>
			<point x="182" y="380"/>
			<point x="250" y="402"/>
			<point x="296" y="402" type="curve" smooth="yes"/>
			<point x="330" y="402"/>
			<point x="361" y="386"/>
			<point x="373" y="351" type="curve"/>
			<point x="398" y="353" type="line"/>
			<point x="412" y="383"/>
			<point x="444" y="396"/>
			<point x="473" y="396" type="curve" smooth="yes"/>
			<point x="513" y="396"/>
			<point x="554" y="362"/>
			<point x="549" y="292" type="curve"/>
			<point x="553" y="294" type="line"/>
			<point x="505" y="311"/>
			<point x="454" y="320"/>
			<point x="355" y="320" type="curve" smooth="yes"/>
			<point x="160" y="320"/>
			<point x="45" y="224"/>
			<point x="45" y="56" type="curve" smooth="yes"/>
			<point x="45" y="-93"/>
			<point x="152" y="-220"/>
		</contour>
	</outline>
</glyph>
<glyph name="sinMatraAe" format="2">
	<advance width="369"/>
	<unicode hex="0DD0"/>
	<outline>
		<contour>
			<point x="226" y="-132" type="curve" smooth="yes"/>
			<point x="303" y="-132"/>
			<point x="345" y="-80"/>
			<point x="359" y="-54" type="curve"/>
			<point x="358" y="-38"/>
			<point x="354" y="-27"/>
			<point x="348" y="-21" type="curve"/>
			<point x="331" y="-37"/>
			<point x="285" y="-63"/>
			<point x="234" y="-63" type="curve" smooth="yes"/>
			<point x="166" y="-63"/>
			<point x="125" y="-19"/>
			<point x="125" y="64" type="curve" smooth="yes"/>
			<point x="125" y="152"/>
			<point x="158" y="228"/>
			<point x="238" y="263" type="curve"/>
			<point x="243" y="276"/>
			<point x="247" y="279"/>
			<point x="247" y="300" type="curve" smooth="yes"/>
			<point x="247" y="310"/>
			<point x="246" y="319"/>
			<point x="244" y="327" type="curve"/>
			<point x="216" y="326"/>
			<point x="62" y="321"/>
			<point x="24" y="319" type="curve"/>
			<point x="20" y="308"/>
			<point x="18" y="302"/>
			<point x="18" y="287" type="curve" smooth="yes"/>
			<point x="18" y="275"/>
			<point x="19" y="264"/>
			<point x="21" y="257" type="curve"/>
			<point x="146" y="263" type="line"/>
			<point x="109" y="204"/>
			<point x="80" y="140"/>
			<point x="80" y="35" type="curve" smooth="yes"/>
			<point x="80" y="-66"/>
			<point x="128" y="-132"/>
		</contour>
	</outline>
</glyph>
<glyph name="sinMatraUu" format="2">
	<advance width="0"/>
	<unicode hex="0DD6"/>
	<outline>
		<contour>
			<point x="-7" y="-225" type="curve"/>
			<point x="15" y="-211" type="line"/>
			<point x="19" y="225" type="line"/>
			<point x="-17" y="204" type="line"/>
			<point x="-38" y="-175" type="line"/>
			<point x="-8" y="-183" type="line"/>
			<point x="-31" y="-152"/>
			<point x="-83" y="-99"/>
			<point x="-150" y="-99" type="curve" smooth="yes"/>
			<point x="-241" y="-99"/>
			<point x="-287" y="-173"/>
			<point x="-339" y="-173" type="curve" smooth="yes"/>
			<point x="-371" y="-173"/>
			<point x="-404" y="-152"/>
			<point x="-404" y="-105" type="curve"/>
			<point x="-415" y="-101"/>
			<point x="-429" y="-100"/>
			<point x="-443" y="-103" type="curve" smooth="yes"/>
			<point x="-454" y="-105"/>
			<point x="-465" y="-111"/>
			<point x="-474" y="-119" type="curve"/>
			<point x="-474" y="-160"/>
			<point x="-442" y="-220"/>
			<point x="-347" y="-220" type="curve" smooth="yes"/>
			<point x="-272" y="-220"/>
			<point x="-249" y="-174"/>
			<point x="-164" y="-174" type="curve" smooth="yes"/>
			<point x="-110" y="-174"/>
			<point x="-47" y="-202"/>
		</contour>
	</outline>
</glyph>
<glyph name="sinMatraE" format="2">
	<advance width="488"/>
	<unicode hex="0DD9"/>
	<outline>
		<contour>
			<point x="244" y="-16" type="curve" smooth="yes"/>
			<point x="117" y="-16"/>
			<point x="32" y="76"/>
			<point x="32" y="200" type="curve" smooth="yes"/>
			<point x="32" y="345"/>
			<point x="154" y="443"/>
			<point x="297" y="440" type="curve" smooth="yes"/>
			<point x="393" y="438"/>
			<point x="448" y="405"/>
			<point x="448" y="405" type="curve"/>
			<point x="448" y="386"/>
			<point x="440" y="359"/>
			<point x="429" y="343" type="curve"/>
			<point x="429" y="343"/>
			<point x="364" y="376"/>
			<point x="281" y="376" type="curve" smooth="yes"/>
			<point x="168" y="376"/>
			<point x="71" y="315"/>
			<point x="71" y="206" type="curve" smooth="yes"/>
			<point x="71" y="114"/>
			<point x="146" y="56"/>
			<point x="246" y="57" type="curve" smooth="yes"/>
			<point x="346" y="58"/>
			<point x="405" y="109"/>
			<point x="405" y="173" type="curve" smooth="yes"/>
			<point x="405" y="245"/>
			<point x="326" y="261"/>
			<point x="281" y="261" type="curve" smooth="yes"/>
			<point x="239" y="261"/>
			<point x="208" y="247"/>
			<point x="208" y="219" type="curve" smooth="yes"/>
			<point x="208" y="197"/>
			<point x="231" y="182"/>
			<point x="257" y="182" type="curve" smooth="yes"/>
			<point x="288" y="182"/>
			<point x="307" y="200"/>
			<point x="307" y="222" type="curve" smooth="yes"/>
			<point x="307" y="250"/>
			<point x="289" y="257"/>
			<point x="275" y="270" type="curve"/>
			<point x="298" y="276" type="line"/>
			<point x="312" y="269"/>
			<point x="340" y="243"/>
			<point x="340" y="210" type="curve" smooth="yes"/>
			<point x="340" y="168"/>
			<point x="312" y="131"/>
			<point x="262" y="133" type="curve" smooth="yes"/>
			<point x="219" y="135"/>
			<point x="182" y="161"/>
			<point x="182" y="214" type="curve" smooth="yes"/>
			<point x="182" y="276"/>
			<point x="235" y="312"/>
			<point x="298" y="312" type="curve" smooth="yes"/>
			<point x="364" y="312"/>
			<point x="442" y="269"/>
			<point x="442" y="165" type="curve" smooth="yes"/>
			<point x="442" y="85"/>
			<point x="382" y="-16"/>
		</contour>
	</outline>
</glyph>
<glyph name="sinZerolith" format="2">
	<advance width="177"/>
	<unicode hex="0DE6"/>
	<outline>
		<contour>
			<point x="113" y="509" type="line"/>
			<point x="112" y="603" type="line"/>
			<point x="66" y="593"/>
			<point x="58" y="573"/>
			<point x="58" y="562" type="curve" smooth="yes"/>
			<point x="58" y="529"/>
			<point x="119" y="516"/>
			<point x="128" y="520" type="curve"/>
			<point x="117" y="497" type="line"/>
			<point x="104" y="492"/>
			<point x="22" y="507"/>
			<point x="22" y="563" type="curve" smooth="yes"/>
			<point x="22" y="620"/>
			<point x="86" y="614"/>
			<point x="139" y="645" type="curve"/>
			<point x="140" y="134" type="line"/>
			<point x="112" y="133" type="line"/>
		</contour>
		<contour>
			<point x="140" y="193" type="line"/>
			<point x="113" y="210" type="line"/>
			<point x="113" y="525" type="line"/>
			<point x="166" y="504"/>
			<point x="270" y="489"/>
			<point x="270" y="399" type="curve" smooth="yes"/>
			<point x="270" y="356"/>
			<point x="246" y="317"/>
			<point x="184" y="317" type="curve" smooth="yes"/>
			<point x="169" y="317"/>
			<point x="155" y="320"/>
			<point x="140" y="327" type="curve"/>
		</contour>
		<contour>
			<point x="140" y="483" type="curve"/>
			<point x="140" y="351" type="line"/>
			<point x="149" y="346"/>
			<point x="159" y="344"/>
			<point x="172" y="344" type="curve" smooth="yes"/>
			<point x="209" y="344"/>
			<point x="214" y="369"/>
			<point x="214" y="392" type="curve" smooth="yes"/>
			<point x="214" y="433"/>
			<point x="186" y="453"/>
		</contour>
	</outline>
</glyph>
<glyph name="zerolith-sinhala" format="2">
	<advance width="298"/>
	<unicode hex="0DE6"/>
	<outline>
		<contour>
			<point x="74" y="85" type="line"/>
			<point x="124" y="85" type="line"/>
			<point x="120" y="220" type="line"/>
			<point x="128" y="201"/>
			<point x="157" y="176"/>
			<point x="191" y="176" type="curve" smooth="yes"/>
			<point x="227" y="176"/>
			<point x="253" y="213"/>
			<point x="253" y="259" type="curve" smooth="yes"/>
			<point x="253" y="356"/>
			<point x="130" y="365"/>
			<point x="104" y="371" type="curve"/>
			<point x="77" y="376" type="line"/>
		</contour>
		<contour>
			<point x="186" y="237" type="curve" smooth="yes"/>
			<point x="150" y="237"/>
			<point x="120" y="265"/>
			<point x="120" y="306" type="curve" smooth="yes"/>
			<point x="120" y="333" type="line"/>
			<point x="155" y="329"/>
			<point x="219" y="314"/>
			<point x="219" y="267" type="curve" smooth="yes"/>
			<point x="219" y="247"/>
			<point x="203" y="237"/>
		</contour>
		<contour>
			<point x="115" y="526" type="line"/>
			<point x="99" y="535" type="line"/>
			<point x="53" y="510"/>
			<point x="-11" y="468"/>
			<point x="-11" y="415" type="curve" smooth="yes"/>
			<point x="-11" y="379"/>
			<point x="14" y="350"/>
			<point x="71" y="341" type="curve" smooth="yes"/>
			<point x="104" y="336" type="line"/>
			<point x="83" y="375" type="line"/>
			<point x="70" y="377" type="line" smooth="yes"/>
			<point x="39" y="382"/>
			<point x="25" y="400"/>
			<point x="25" y="423" type="curve" smooth="yes"/>
			<point x="25" y="455"/>
			<point x="47" y="474"/>
			<point x="77" y="497" type="curve"/>
			<point x="77" y="358" type="line"/>
			<point x="73" y="0" type="line"/>
			<point x="126" y="0" type="line"/>
		</contour>
	</outline>
</glyph>
<glyph name="sinOnelith" format="2">
	<advance width="588"/>
	<unicode hex="0DE7"/>
	<outline>
		<contour>
			<point x="230" y="264"/>
			<point x="230" y="239" type="curve" smooth="yes"/>
			<point x="230" y="214"/>
			<point x="255" y="193"/>
			<point x="284" y="193" type="curve" smooth="yes"/>
			<point x="313" y="193"/>
			<point x="338" y="214"/>
			<point x="338" y="239" type="curve" smooth="yes"/>
			<point x="338" y="264"/>
			<point x="313" y="285"/>
			<point x="284" y="285" type="curve" smooth="yes"/>
			<point x="255" y="285"/>
		</contour>
		<contour>
			<point x="32" y="82"/>
			<point x="32" y="207" type="curve" smooth="yes"/>
			<point x="32" y="339"/>
			<point x="157" y="422"/>
			<point x="294" y="422" type="curve" smooth="yes"/>
			<point x="471" y="422"/>
			<point x="605" y="305"/>
			<point x="630" y="11" type="curve"/>
			<point x="602" y="11" type="line"/>
			<point x="570" y="289"/>
			<point x="450" y="388"/>
			<point x="294" y="388" type="curve" smooth="yes"/>
			<point x="183" y="388"/>
			<point x="74" y="332"/>
			<point x="74" y="222" type="curve" smooth="yes"/>
			<point x="74" y="138"/>
			<point x="159" y="69"/>
			<point x="263" y="69" type="curve" smooth="yes"/>
			<point x="350" y="69"/>
			<point x="444" y="103"/>
			<point x="444" y="185" type="curve" smooth="yes"/>
			<point x="444" y="239"/>
			<point x="400" y="271"/>
			<point x="352" y="280" type="curve"/>
			<point x="365" y="266"/>
			<point x="370" y="250"/>
			<point x="370" y="234" type="curve" smooth="yes"/>
			<point x="370" y="187"/>
			<point x="327" y="162"/>
			<point x="285" y="162" type="curve" smooth="yes"/>
			<point x="240" y="162"/>
			<point x="198" y="193"/>
			<point x="198" y="236" type="curve" smooth="yes"/>
			<point x="198" y="283"/>
			<point x="242" y="314"/>
			<point x="297" y="314" type="curve" smooth="yes"/>
			<point x="397" y="314"/>
			<point x="479" y="262"/>
			<point x="479" y="164" type="curve" smooth="yes"/>
			<point x="479" y="66"/>
			<point x="403" y="0"/>
			<point x="263" y="0" type="curve" smooth="yes"/>
			<point x="131" y="0"/>
		</contour>
	</outline>
</glyph>
<glyph name="sinTwolith" format="2">
	<advance width="967"/>
	<unicode hex="0DE8"/>
	<outline>
		<contour>
			<point x="597" y="12" type="line"/>
			<point x="566" y="267"/>
			<point x="628" y="416"/>
			<point x="772" y="414" type="curve" smooth="yes"/>
			<point x="908" y="413"/>
			<point x="930" y="240"/>
			<point x="933" y="117" type="curve" smooth="yes"/>
			<point x="935" y="72"/>
			<point x="923" y="21"/>
			<point x="919" y="1" type="curve"/>
			<point x="890" y="5" type="line"/>
			<point x="898" y="41"/>
			<point x="904" y="75"/>
			<point x="903" y="117" type="curve" smooth="yes"/>
			<point x="900" y="258"/>
			<point x="844" y="352"/>
			<point x="770" y="352" type="curve" smooth="yes"/>
			<point x="599" y="352"/>
			<point x="628" y="29"/>
			<point x="628" y="10" type="curve"/>
		</contour>
		<component base="sinOnelith"/>
	</outline>
</glyph>
<glyph name="ninelith-sinhala" format="2">
	<advance width="949"/>
	<unicode hex="0DEF"/>
	<outline>
		<contour>
			<point x="415" y="405" type="curve"/>
			<point x="472" y="373" type="line"/>
			<point x="469" y="397"/>
			<point x="467" y="420"/>
			<point x="467" y="440" type="curve" smooth="yes"/>
			<point x="467" y="464"/>
			<point x="472" y="502"/>
			<point x="487" y="522" type="curve" smooth="yes"/>
			<point x="527" y="575"/>
			<point x="576" y="594"/>
			<point x="629" y="594" type="curve" smooth="yes"/>
			<point x="702" y="594"/>
			<point x="782" y="566"/>
			<point x="782" y="511" type="curve" smooth="yes"/>
			<point x="782" y="490"/>
			<point x="761" y="448"/>
			<point x="712" y="448" type="curve" smooth="yes"/>
			<point x="689" y="448"/>
			<point x="666" y="459"/>
			<point x="666" y="483" type="curve" smooth="yes"/>
			<point x="666" y="505"/>
			<point x="689" y="515"/>
			<point x="713" y="515" type="curve" smooth="yes"/>
			<point x="746" y="515"/>
			<point x="772" y="497"/>
			<point x="785" y="482" type="curve"/>
			<point x="794" y="506" type="line"/>
			<point x="794" y="506"/>
			<point x="768" y="561"/>
			<point x="711" y="561" type="curve" smooth="yes"/>
			<point x="668" y="561"/>
			<point x="636" y="528"/>
			<point x="636" y="484" type="curve" smooth="yes"/>
			<point x="636" y="434"/>
			<point x="673" y="413"/>
			<point x="673" y="413" type="curve"/>
			<point x="682" y="392" type="line"/>
			<point x="783" y="396"/>
			<point x="820" y="472"/>
			<point x="820" y="526" type="curve" smooth="yes"/>
			<point x="820" y="610"/>
			<point x="752" y="671"/>
			<point x="665" y="671" type="curve" smooth="yes"/>
			<point x="504" y="671"/>
			<point x="433" y="548"/>
		</contour>
		<component base="twolith-sinhala"/>
	</outline>
</glyph>
<glyph name="sinNinelith" format="2">
	<advance width="965"/>
	<unicode hex="0DEF"/>
	<outline>
		<contour>
			<point x="666" y="562"/>
			<point x="666" y="532" type="curve" smooth="yes"/>
			<point x="666" y="502"/>
			<point x="695" y="477"/>
			<point x="730" y="477" type="curve" smooth="yes"/>
			<point x="765" y="477"/>
			<point x="795" y="502"/>
			<point x="795" y="532" type="curve" smooth="yes"/>
			<point x="795" y="562"/>
			<point x="765" y="587"/>
			<point x="730" y="587" type="curve" smooth="yes"/>
			<point x="695" y="587"/>
		</contour>
		<contour>
			<point x="327" y="425"/>
			<point x="327" y="495" type="curve" smooth="yes"/>
			<point x="327" y="619"/>
			<point x="458" y="685"/>
			<point x="582" y="685" type="curve" smooth="yes"/>
			<point x="696" y="685"/>
			<point x="829" y="643"/>
			<point x="829" y="542" type="curve" smooth="yes"/>
			<point x="829" y="488"/>
			<point x="785" y="449"/>
			<point x="730" y="449" type="curve" smooth="yes"/>
			<point x="673" y="449"/>
			<point x="635" y="489"/>
			<point x="635" y="533" type="curve" smooth="yes"/>
			<point x="635" y="577"/>
			<point x="665" y="598"/>
			<point x="684" y="607" type="curve"/>
			<point x="673" y="610"/>
			<point x="636" y="616"/>
			<point x="583" y="616" type="curve" smooth="yes"/>
			<point x="491" y="616"/>
			<point x="363" y="584"/>
			<point x="363" y="487" type="curve" smooth="yes"/>
			<point x="363" y="429"/>
			<point x="423" y="393"/>
			<point x="450" y="384" type="curve"/>
			<point x="425" y="376" type="line"/>
			<point x="383" y="381"/>
		</contour>
		<component base="sinTwolith"/>
	</outline>
</glyph>
<glyph name="endash" format="2">
	<advance width="397"/>
	<unicode hex="2013"/>
	<outline>
		<contour>
			<point x="356" y="211" type="line"/>
			<point x="357" y="237"/>
			<point x="362" y="259"/>
			<point x="364" y="280" type="curve"/>
			<point x="231" y="272"/>
			<point x="193" y="272"/>
			<point x="44" y="280" type="curve"/>
			<point x="33" y="211" type="line"/>
		</contour>
	</outline>
</glyph>
<glyph name="bullet" format="2">
	<advance width="462"/>
	<unicode hex="2022"/>
	<outline>
		<contour>
			<point x="283" y="206"/>
			<point x="331" y="249"/>
			<point x="331" y="314" type="curve" smooth="yes"/>
			<point x="331" y="377"/>
			<point x="283" y="417"/>
			<point x="225" y="417" type="curve" smooth="yes"/>
			<point x="163" y="417"/>
			<point x="118" y="373"/>
			<point x="119" y="310" type="curve" smooth="yes"/>
			<point x="119" y="256"/>
			<point x="157" y="206"/>
			<point x="228" y="206" type="curve" smooth="yes"/>
		</contour>
	</outline>
</glyph>
<glyph name="oneArchaic-sinhala" format="2">
	<advance width="690"/>
	<unicode hex="111E1"/>
	<outline>
		<contour>
			<point x="602" y="0" type="line"/>
			<point x="630" y="0" type="line"/>
			<point x="630" y="401" type="line"/>
			<point x="602" y="401" type="line"/>
		</contour>
		<component base="sinOnelith"/>
	</outline>
</glyph>
<glyph name="twoArchaic-sinhala" format="2">
	<advance width="930"/>
	<unicode hex="111E2"/>
	<outline>
		<contour>
			<point x="282" y="285" type="curve" smooth="yes"/>
			<point x="253" y="285"/>
			<point x="228" y="264"/>
			<point x="228" y="239" type="curve" smooth="yes"/>
			<point x="228" y="214"/>
			<point x="253" y="193"/>
			<point x="282" y="193" type="curve" smooth="yes"/>
			<point x="311" y="193"/>
			<point x="336" y="214"/>
			<point x="336" y="239" type="curve" smooth="yes"/>
			<point x="336" y="264"/>
			<point x="311" y="285"/>
		</contour>
		<contour>
			<point x="30" y="207" type="curve" smooth="yes"/>
			<point x="30" y="329"/>
			<point x="143" y="422"/>
			<point x="292" y="422" type="curve" smooth="yes"/>
			<point x="438" y="422"/>
			<point x="516" y="351"/>
			<point x="584" y="187" type="curve" smooth="yes"/>
			<point x="646" y="38"/>
			<point x="691" y="-15"/>
			<point x="779" y="-15" type="curve" smooth="yes"/>
			<point x="826" y="-15"/>
			<point x="867" y="15"/>
			<point x="892" y="58" type="curve"/>
			<point x="920" y="44" type="line"/>
			<point x="896" y="-31"/>
			<point x="845" y="-80"/>
			<point x="779" y="-80" type="curve" smooth="yes"/>
			<point x="695" y="-80"/>
			<point x="643" y="-43"/>
			<point x="555" y="176" type="curve" smooth="yes"/>
			<point x="493" y="329"/>
			<point x="427" y="388"/>
			<point x="292" y="388" type="curve" smooth="yes"/>
			<point x="164" y="388"/>
			<point x="72" y="319"/>
			<point x="72" y="222" type="curve" smooth="yes"/>
			<point x="72" y="138"/>
			<point x="157" y="69"/>
			<point x="261" y="69" type="curve" smooth="yes"/>
			<point x="368" y="69"/>
			<point x="442" y="116"/>
			<point x="442" y="185" type="curve" smooth="yes"/>
			<point x="442" y="232"/>
			<point x="406" y="270"/>
			<point x="350" y="280" type="curve"/>
			<point x="362" y="267"/>
			<point x="368" y="252"/>
			<point x="368" y="234" type="curve" smooth="yes"/>
			<point x="368" y="193"/>
			<point x="332" y="162"/>
			<point x="283" y="162" type="curve" smooth="yes"/>
			<point x="235" y="162"/>
			<point x="196" y="195"/>
			<point x="196" y="236" type="curve" smooth="yes"/>
			<point x="196" y="281"/>
			<point x="238" y="314"/>
			<point x="295" y="314" type="curve" smooth="yes"/>
			<point x="404" y="314"/>
			<point x="477" y="254"/>
			<point x="477" y="164" type="curve" smooth="yes"/>
			<point x="477" y="62"/>
			<point x="396" y="0"/>
			<point x="261" y="0" type="curve" smooth="yes"/>
			<point x="125" y="0"/>
			<point x="30" y="85"/>
		</contour>
	</outline>
</glyph>
<glyph name="threeArchaic-sinhala" format="2">
	<advance width="1105"/>
	<unicode hex="111E3"/>
	<outline>
		<contour>
			<point x="603" y="159" type="line" smooth="yes"/>
			<point x="597" y="228"/>
			<point x="627" y="273"/>
			<point x="677" y="273" type="curve" smooth="yes"/>
			<point x="713" y="273"/>
			<point x="741" y="255"/>
			<point x="769" y="187" type="curve" smooth="yes"/>
			<point x="830" y="38"/>
			<point x="866" y="-15"/>
			<point x="954" y="-15" type="curve" smooth="yes"/>
			<point x="1001" y="-15"/>
			<point x="1042" y="15"/>
			<point x="1067" y="58" type="curve"/>
			<point x="1095" y="44" type="line"/>
			<point x="1071" y="-31"/>
			<point x="1020" y="-80"/>
			<point x="954" y="-80" type="curve" smooth="yes"/>
			<point x="870" y="-80"/>
			<point x="832" y="-43"/>
			<point x="756" y="149" type="curve" smooth="yes"/>
			<point x="737" y="196"/>
			<point x="722" y="223"/>
			<point x="684" y="223" type="curve" smooth="yes"/>
			<point x="642" y="223"/>
			<point x="628" y="180"/>
			<point x="628" y="138" type="curve" smooth="yes"/>
			<point x="628" y="0" type="line"/>
			<point x="616" y="18" type="line"/>
		</contour>
		<component base="sinOnelith" xOffset="-2"/>
	</outline>
</glyph>
<glyph name="fourArchaic-sinhala" format="2">
	<advance width="784"/>
	<unicode hex="111E4"/>
	<guideline x="165" y="352" angle="0"/>
	<outline>
		<contour>
			<point x="640" y="-190" type="curve" smooth="yes"/>
			<point x="724" y="-190" type="line"/>
			<point x="724" y="210" type="line" smooth="yes"/>
			<point x="724" y="356"/>
			<point x="683" y="421"/>
			<point x="592" y="421" type="curve" smooth="yes"/>
			<point x="528" y="421"/>
			<point x="482" y="372"/>
			<point x="482" y="303" type="curve"/>
			<point x="492" y="303" type="line"/>
			<point x="492" y="376"/>
			<point x="450" y="421"/>
			<point x="382" y="421" type="curve" smooth="yes"/>
			<point x="314" y="421"/>
			<point x="272" y="376"/>
			<point x="272" y="303" type="curve"/>
			<point x="282" y="303" type="line"/>
			<point x="282" y="374"/>
			<point x="236" y="421"/>
			<point x="167" y="421" type="curve" smooth="yes"/>
			<point x="87" y="421"/>
			<point x="30" y="338"/>
			<point x="30" y="220" type="curve" smooth="yes"/>
			<point x="30" y="83"/>
			<point x="89" y="-1"/>
			<point x="186" y="-1" type="curve" smooth="yes"/>
			<point x="199" y="-1"/>
			<point x="211" y="1"/>
			<point x="223" y="6" type="curve"/>
			<point x="223" y="31" type="line"/>
			<point x="212" y="27"/>
			<point x="202" y="25"/>
			<point x="191" y="25" type="curve" smooth="yes"/>
			<point x="111" y="25"/>
			<point x="64" y="91"/>
			<point x="64" y="204" type="curve" smooth="yes"/>
			<point x="64" y="292"/>
			<point x="105" y="350"/>
			<point x="167" y="350" type="curve" smooth="yes"/>
			<point x="227" y="350"/>
			<point x="261" y="303"/>
			<point x="261" y="225" type="curve" smooth="yes"/>
			<point x="261" y="157" type="line"/>
			<point x="293" y="157" type="line"/>
			<point x="293" y="225" type="line" smooth="yes"/>
			<point x="293" y="308"/>
			<point x="324" y="350"/>
			<point x="382" y="350" type="curve" smooth="yes"/>
			<point x="440" y="350"/>
			<point x="471" y="308"/>
			<point x="471" y="225" type="curve" smooth="yes"/>
			<point x="471" y="157" type="line"/>
			<point x="503" y="157" type="line"/>
			<point x="503" y="225" type="line" smooth="yes"/>
			<point x="503" y="303"/>
			<point x="535" y="350"/>
			<point x="592" y="350" type="curve" smooth="yes"/>
			<point x="660" y="350"/>
			<point x="690" y="297"/>
			<point x="690" y="174" type="curve" smooth="yes"/>
			<point x="690" y="-146" type="line"/>
			<point x="640" y="-146" type="line" smooth="yes"/>
			<point x="589" y="-146"/>
			<point x="554" y="-118"/>
			<point x="554" y="-77" type="curve" smooth="yes"/>
			<point x="554" y="-36"/>
			<point x="573" y="-10"/>
			<point x="619" y="13" type="curve" smooth="yes"/>
			<point x="633" y="20"/>
			<point x="618" y="14"/>
			<point x="709" y="51" type="curve"/>
			<point x="699" y="75" type="line"/>
			<point x="671" y="64"/>
			<point x="642" y="53"/>
			<point x="601" y="35" type="curve" smooth="yes"/>
			<point x="527" y="3"/>
			<point x="494" y="-36"/>
			<point x="494" y="-90" type="curve" smooth="yes"/>
			<point x="494" y="-151"/>
			<point x="551" y="-190"/>
		</contour>
	</outline>
</glyph>
<glyph name="sixArchaic-sinhala" format="2">
	<advance width="689"/>
	<unicode hex="111E6"/>
	<outline>
		<contour>
			<point x="355" y="0" type="curve" smooth="yes"/>
			<point x="534" y="0"/>
			<point x="629" y="112"/>
			<point x="629" y="268" type="curve" smooth="yes"/>
			<point x="629" y="433"/>
			<point x="519" y="563"/>
			<point x="363" y="563" type="curve" smooth="yes"/>
			<point x="267" y="563"/>
			<point x="198" y="527"/>
			<point x="150" y="459" type="curve"/>
			<point x="181" y="459" type="line"/>
			<point x="225" y="513"/>
			<point x="286" y="540"/>
			<point x="363" y="540" type="curve" smooth="yes"/>
			<point x="494" y="540"/>
			<point x="596" y="432"/>
			<point x="596" y="293" type="curve" smooth="yes"/>
			<point x="596" y="154"/>
			<point x="507" y="69"/>
			<point x="358" y="69" type="curve" smooth="yes"/>
			<point x="270" y="69"/>
			<point x="160" y="92"/>
			<point x="160" y="176" type="curve" smooth="yes"/>
			<point x="160" y="239"/>
			<point x="219" y="273"/>
			<point x="291" y="273" type="curve" smooth="yes"/>
			<point x="359" y="273" type="line"/>
			<point x="359" y="297" type="line"/>
			<point x="288" y="297" type="line" smooth="yes"/>
			<point x="189" y="297"/>
			<point x="126" y="244"/>
			<point x="126" y="161" type="curve" smooth="yes"/>
			<point x="126" y="45"/>
			<point x="237" y="0"/>
		</contour>
		<contour>
			<point x="136" y="0" type="curve"/>
			<point x="136" y="29" type="line"/>
			<point x="85" y="73"/>
			<point x="59" y="134"/>
			<point x="59" y="213" type="curve" smooth="yes"/>
			<point x="59" y="312"/>
			<point x="107" y="399"/>
			<point x="229" y="399" type="curve" smooth="yes"/>
			<point x="258" y="400"/>
			<point x="286" y="399"/>
			<point x="315" y="398" type="curve"/>
			<point x="315" y="419" type="line"/>
			<point x="290" y="420"/>
			<point x="263" y="422"/>
			<point x="237" y="422" type="curve" smooth="yes"/>
			<point x="101" y="422"/>
			<point x="30" y="345"/>
			<point x="30" y="216" type="curve" smooth="yes"/>
			<point x="30" y="117"/>
			<point x="72" y="32"/>
		</contour>
		<contour>
			<point x="288" y="273" type="curve"/>
			<point x="325" y="284" type="line"/>
			<point x="325" y="296" type="line"/>
			<point x="296" y="296" type="line" smooth="yes"/>
			<point x="248" y="296"/>
			<point x="212" y="309"/>
			<point x="212" y="347" type="curve" smooth="yes"/>
			<point x="212" y="372"/>
			<point x="228" y="399"/>
			<point x="287" y="399" type="curve"/>
			<point x="287" y="420" type="line"/>
			<point x="208" y="420"/>
			<point x="183" y="381"/>
			<point x="183" y="347" type="curve" smooth="yes"/>
			<point x="183" y="305"/>
			<point x="214" y="272"/>
		</contour>
	</outline>
</glyph>
<glyph name="tenArchaic-sinhala" format="2">
	<advance width="908"/>
	<unicode hex="111EA"/>
	<guideline x="41" y="422" angle="0"/>
	<outline>
		<contour>
			<point x="322" y="-1" type="curve" smooth="yes"/>
			<point x="419" y="-1"/>
			<point x="483" y="56"/>
			<point x="483" y="142" type="curve" smooth="yes"/>
			<point x="483" y="194"/>
			<point x="457" y="231"/>
			<point x="419" y="231" type="curve" smooth="yes"/>
			<point x="408" y="231"/>
			<point x="399" y="229"/>
			<point x="391" y="224" type="curve"/>
			<point x="412" y="310"/>
			<point x="458" y="354"/>
			<point x="530" y="354" type="curve" smooth="yes"/>
			<point x="619" y="354"/>
			<point x="689" y="281"/>
			<point x="689" y="188" type="curve" smooth="yes"/>
			<point x="689" y="26" type="line"/>
			<point x="666" y="26" type="line" smooth="yes"/>
			<point x="610" y="26"/>
			<point x="579" y="53"/>
			<point x="579" y="101" type="curve" smooth="yes"/>
			<point x="579" y="148"/>
			<point x="608" y="179"/>
			<point x="653" y="179" type="curve" smooth="yes"/>
			<point x="671" y="179"/>
			<point x="685" y="178"/>
			<point x="695" y="175" type="curve" smooth="yes"/>
			<point x="711" y="170" type="line" smooth="yes"/>
			<point x="764" y="150"/>
			<point x="790" y="113"/>
			<point x="830" y="0" type="curve"/>
			<point x="848" y="0" type="line"/>
			<point x="848" y="422" type="line"/>
			<point x="820" y="422" type="line"/>
			<point x="820" y="30" type="line"/>
			<point x="841" y="23" type="line"/>
			<point x="804" y="129"/>
			<point x="776" y="166"/>
			<point x="712" y="194" type="curve" smooth="yes"/>
			<point x="699" y="199" type="line"/>
			<point x="689" y="201"/>
			<point x="663" y="204"/>
			<point x="653" y="204" type="curve" smooth="yes"/>
			<point x="570" y="204"/>
			<point x="513" y="162"/>
			<point x="513" y="101" type="curve" smooth="yes"/>
			<point x="513" y="38"/>
			<point x="569" y="0"/>
			<point x="661" y="0" type="curve" smooth="yes"/>
			<point x="717" y="0" type="line"/>
			<point x="717" y="206" type="line" smooth="yes"/>
			<point x="717" y="332"/>
			<point x="646" y="422"/>
			<point x="546" y="422" type="curve" smooth="yes"/>
			<point x="447" y="422"/>
			<point x="368" y="310"/>
			<point x="359" y="188" type="curve"/>
			<point x="381" y="178" type="line"/>
			<point x="388" y="199"/>
			<point x="401" y="207"/>
			<point x="414" y="207" type="curve" smooth="yes"/>
			<point x="434" y="207"/>
			<point x="448" y="190"/>
			<point x="448" y="160" type="curve" smooth="yes"/>
			<point x="448" y="98"/>
			<point x="393" y="70"/>
			<point x="329" y="70" type="curve" smooth="yes"/>
			<point x="257" y="70"/>
			<point x="194" y="103"/>
			<point x="194" y="171" type="curve" smooth="yes"/>
			<point x="194" y="239"/>
			<point x="249" y="273"/>
			<point x="327" y="273" type="curve"/>
			<point x="327" y="296" type="line"/>
			<point x="315" y="296" type="line" smooth="yes"/>
			<point x="221" y="296"/>
			<point x="158" y="238"/>
			<point x="158" y="151" type="curve" smooth="yes"/>
			<point x="158" y="61"/>
			<point x="224" y="-1"/>
		</contour>
		<contour>
			<point x="136" y="0" type="curve"/>
			<point x="136" y="29" type="line"/>
			<point x="85" y="73"/>
			<point x="59" y="134"/>
			<point x="59" y="213" type="curve" smooth="yes"/>
			<point x="59" y="312"/>
			<point x="107" y="399"/>
			<point x="229" y="399" type="curve" smooth="yes"/>
			<point x="315" y="399" type="line"/>
			<point x="315" y="421" type="line"/>
			<point x="289" y="421"/>
			<point x="263" y="422"/>
			<point x="237" y="422" type="curve" smooth="yes"/>
			<point x="101" y="422"/>
			<point x="30" y="345"/>
			<point x="30" y="216" type="curve" smooth="yes"/>
			<point x="30" y="117"/>
			<point x="72" y="32"/>
		</contour>
		<contour>
			<point x="288" y="273" type="curve"/>
			<point x="325" y="284" type="line"/>
			<point x="325" y="296" type="line"/>
			<point x="296" y="296" type="line" smooth="yes"/>
			<point x="248" y="296"/>
			<point x="212" y="309"/>
			<point x="212" y="347" type="curve" smooth="yes"/>
			<point x="212" y="372"/>
			<point x="228" y="399"/>
			<point x="287" y="399" type="curve"/>
			<point x="287" y="420" type="line"/>
			<point x="208" y="420"/>
			<point x="183" y="381"/>
			<point x="183" y="347" type="curve" smooth="yes"/>
			<point x="183" y="305"/>
			<point x="214" y="272"/>
		</contour>
	</outline>
</glyph>
<glyph name="twentyArchaic-sinhala" format="2">
	<advance width="793"/>
	<unicode hex="111EB"/>
	<guideline x="26" y="605" angle="0"/>
	<guideline x="-611" y="399" angle="0"/>
	<outline>
		<contour>
			<point x="300" y="-1" type="curve" smooth="yes"/>
			<point x="366" y="-1"/>
			<point x="406" y="29"/>
			<point x="427" y="80" type="curve"/>
			<point x="446" y="30"/>
			<point x="488" y="0"/>
			<point x="551" y="0" type="curve" smooth="yes"/>
			<point x="647" y="0"/>
			<point x="715" y="57"/>
			<point x="715" y="162" type="curve" smooth="yes"/>
			<point x="715" y="262"/>
			<point x="647" y="309"/>
			<point x="537" y="309" type="curve" smooth="yes"/>
			<point x="514" y="309"/>
			<point x="486" y="306"/>
			<point x="475" y="303" type="curve"/>
			<point x="480" y="357"/>
			<point x="510" y="384"/>
			<point x="561" y="384" type="curve" smooth="yes"/>
			<point x="605" y="384" type="line"/>
			<point x="605" y="410" type="line"/>
			<point x="542" y="409"/>
			<point x="487" y="447"/>
			<point x="487" y="499" type="curve" smooth="yes"/>
			<point x="487" y="540"/>
			<point x="516" y="579"/>
			<point x="578" y="579" type="curve" smooth="yes"/>
			<point x="694" y="579"/>
			<point x="743" y="438"/>
			<point x="761" y="384" type="curve"/>
			<point x="783" y="384" type="line"/>
			<point x="783" y="605" type="line"/>
			<point x="755" y="605" type="line"/>
			<point x="755" y="442" type="line"/>
			<point x="763" y="438" type="line"/>
			<point x="746" y="489"/>
			<point x="691" y="605"/>
			<point x="563" y="605" type="curve" smooth="yes"/>
			<point x="496" y="605"/>
			<point x="428" y="571"/>
			<point x="428" y="499" type="curve" smooth="yes"/>
			<point x="428" y="420"/>
			<point x="526" y="400"/>
			<point x="573" y="400" type="curve"/>
			<point x="573" y="410" type="line"/>
			<point x="501" y="410"/>
			<point x="447" y="369"/>
			<point x="447" y="284" type="curve" smooth="yes"/>
			<point x="447" y="275" type="line"/>
			<point x="484" y="282"/>
			<point x="510" y="284"/>
			<point x="541" y="284" type="curve" smooth="yes"/>
			<point x="625" y="284"/>
			<point x="679" y="255"/>
			<point x="679" y="178" type="curve" smooth="yes"/>
			<point x="679" y="112"/>
			<point x="629" y="69"/>
			<point x="562" y="69" type="curve" smooth="yes"/>
			<point x="501" y="69"/>
			<point x="442" y="93"/>
			<point x="442" y="148" type="curve" smooth="yes"/>
			<point x="442" y="178" type="line"/>
			<point x="415" y="178" type="line"/>
			<point x="415" y="148" type="line" smooth="yes"/>
			<point x="415" y="99"/>
			<point x="364" y="69"/>
			<point x="309" y="69" type="curve" smooth="yes"/>
			<point x="241" y="69"/>
			<point x="189" y="113"/>
			<point x="189" y="171" type="curve" smooth="yes"/>
			<point x="189" y="242"/>
			<point x="261" y="276"/>
			<point x="313" y="276" type="curve" smooth="yes"/>
			<point x="408" y="276" type="line"/>
			<point x="378" y="301" type="line"/>
			<point x="365" y="301" type="line" smooth="yes"/>
			<point x="329" y="301"/>
			<point x="276" y="290"/>
			<point x="243" y="278" type="curve" smooth="yes"/>
			<point x="192" y="262"/>
			<point x="152" y="220"/>
			<point x="152" y="150" type="curve" smooth="yes"/>
			<point x="152" y="74"/>
			<point x="207" y="-1"/>
		</contour>
		<contour>
			<point x="136" y="0" type="curve"/>
			<point x="136" y="29" type="line"/>
			<point x="85" y="73"/>
			<point x="59" y="134"/>
			<point x="59" y="213" type="curve" smooth="yes"/>
			<point x="59" y="312"/>
			<point x="107" y="399"/>
			<point x="239" y="399" type="curve" smooth="yes"/>
			<point x="315" y="399" type="line"/>
			<point x="315" y="422" type="line"/>
			<point x="237" y="422" type="line" smooth="yes"/>
			<point x="101" y="422"/>
			<point x="30" y="345"/>
			<point x="30" y="216" type="curve" smooth="yes"/>
			<point x="30" y="117"/>
			<point x="72" y="32"/>
		</contour>
		<contour>
			<point x="107" y="270" type="line"/>
			<point x="123" y="273"/>
			<point x="177" y="276"/>
			<point x="246" y="276" type="curve" smooth="yes"/>
			<point x="408" y="276" type="line"/>
			<point x="408" y="301" type="line"/>
			<point x="107" y="301" type="line"/>
		</contour>
		<contour>
			<point x="308" y="281" type="curve"/>
			<point x="345" y="291" type="line"/>
			<point x="345" y="301" type="line"/>
			<point x="301" y="301" type="line" smooth="yes"/>
			<point x="262" y="301"/>
			<point x="231" y="319"/>
			<point x="231" y="350" type="curve" smooth="yes"/>
			<point x="231" y="375"/>
			<point x="248" y="399"/>
			<point x="290" y="399" type="curve" smooth="yes"/>
			<point x="307" y="399" type="line"/>
			<point x="307" y="416" type="line"/>
			<point x="237" y="416"/>
			<point x="204" y="395"/>
			<point x="204" y="350" type="curve" smooth="yes"/>
			<point x="204" y="308"/>
			<point x="238" y="281"/>
		</contour>
	</outline>
</glyph>
<glyph name="thirtyArchaic-sinhala" format="2">
	<advance width="714"/>
	<unicode hex="111EC"/>
	<outline>
		<contour>
			<point x="402" y="0" type="curve" smooth="yes"/>
			<point x="568" y="0"/>
			<point x="664" y="99"/>
			<point x="664" y="271" type="curve"/>
			<point x="625" y="291" type="line"/>
			<point x="625" y="153"/>
			<point x="540" y="69"/>
			<point x="400" y="69" type="curve" smooth="yes"/>
			<point x="265" y="69"/>
			<point x="180" y="132"/>
			<point x="180" y="232" type="curve" smooth="yes"/>
			<point x="180" y="281"/>
			<point x="205" y="316"/>
			<point x="240" y="316" type="curve" smooth="yes"/>
			<point x="283" y="316"/>
			<point x="299" y="297"/>
			<point x="299" y="248" type="curve" smooth="yes"/>
			<point x="299" y="190"/>
			<point x="335" y="152"/>
			<point x="390" y="152" type="curve" smooth="yes"/>
			<point x="443" y="152"/>
			<point x="479" y="189"/>
			<point x="479" y="244" type="curve" smooth="yes"/>
			<point x="479" y="300"/>
			<point x="445" y="329"/>
			<point x="393" y="331" type="curve"/>
			<point x="369" y="396"/>
			<point x="313" y="430"/>
			<point x="230" y="430" type="curve" smooth="yes"/>
			<point x="123" y="430"/>
			<point x="49" y="339"/>
			<point x="49" y="206" type="curve" smooth="yes"/>
			<point x="49" y="112"/>
			<point x="88" y="38"/>
			<point x="158" y="1" type="curve"/>
			<point x="158" y="30" type="line"/>
			<point x="109" y="63"/>
			<point x="76" y="133"/>
			<point x="76" y="206" type="curve" smooth="yes"/>
			<point x="76" y="324"/>
			<point x="139" y="401"/>
			<point x="235" y="401" type="curve" smooth="yes"/>
			<point x="308" y="401"/>
			<point x="354" y="370"/>
			<point x="375" y="305" type="curve"/>
			<point x="433" y="305"/>
			<point x="453" y="280"/>
			<point x="453" y="244" type="curve" smooth="yes"/>
			<point x="453" y="205"/>
			<point x="428" y="180"/>
			<point x="390" y="180" type="curve" smooth="yes"/>
			<point x="354" y="180"/>
			<point x="325" y="209"/>
			<point x="325" y="255" type="curve" smooth="yes"/>
			<point x="325" y="312"/>
			<point x="296" y="342"/>
			<point x="240" y="342" type="curve" smooth="yes"/>
			<point x="185" y="342"/>
			<point x="146" y="289"/>
			<point x="146" y="215" type="curve" smooth="yes"/>
			<point x="146" y="86"/>
			<point x="249" y="0"/>
		</contour>
		<contour>
			<point x="664" y="268" type="line"/>
			<point x="664" y="342"/>
			<point x="632" y="410"/>
			<point x="580" y="448" type="curve" smooth="yes"/>
			<point x="544" y="474"/>
			<point x="489" y="486"/>
			<point x="368" y="492" type="curve" smooth="yes"/>
			<point x="228" y="498"/>
			<point x="201" y="506"/>
			<point x="201" y="543" type="curve" smooth="yes"/>
			<point x="201" y="580"/>
			<point x="260" y="603"/>
			<point x="355" y="603" type="curve" smooth="yes"/>
			<point x="485" y="603"/>
			<point x="608" y="535"/>
			<point x="637" y="448" type="curve"/>
			<point x="659" y="448" type="line"/>
			<point x="659" y="659" type="line"/>
			<point x="631" y="659" type="line"/>
			<point x="631" y="476" type="line"/>
			<point x="639" y="478" type="line"/>
			<point x="606" y="578"/>
			<point x="478" y="660"/>
			<point x="355" y="660" type="curve" smooth="yes"/>
			<point x="241" y="660"/>
			<point x="160" y="614"/>
			<point x="160" y="549" type="curve" smooth="yes"/>
			<point x="160" y="492"/>
			<point x="199" y="477"/>
			<point x="369" y="467" type="curve" smooth="yes"/>
			<point x="506" y="460"/>
			<point x="544" y="449"/>
			<point x="586" y="404" type="curve" smooth="yes"/>
			<point x="611" y="377"/>
			<point x="625" y="335"/>
			<point x="625" y="289" type="curve"/>
		</contour>
	</outline>
</glyph>
<glyph name="fiftyArchaic-sinhala" format="2">
	<advance width="720"/>
	<unicode hex="111EE"/>
	<outline>
		<contour>
			<point x="181" y="73" type="curve"/>
			<point x="201" y="55" type="line"/>
			<point x="189" y="25"/>
			<point x="178" y="0"/>
			<point x="146" y="0" type="curve" smooth="yes"/>
			<point x="69" y="0"/>
			<point x="30" y="108"/>
			<point x="30" y="196" type="curve" smooth="yes"/>
			<point x="30" y="365"/>
			<point x="104" y="424"/>
			<point x="192" y="424" type="curve" smooth="yes"/>
			<point x="262" y="424"/>
			<point x="304" y="380"/>
			<point x="324" y="346" type="curve"/>
			<point x="308" y="327" type="line"/>
			<point x="288" y="363"/>
			<point x="239" y="396"/>
			<point x="191" y="396" type="curve" smooth="yes"/>
			<point x="108" y="396"/>
			<point x="59" y="332"/>
			<point x="59" y="193" type="curve" smooth="yes"/>
			<point x="59" y="135"/>
			<point x="90" y="29"/>
			<point x="146" y="29" type="curve" smooth="yes"/>
			<point x="167" y="29"/>
			<point x="170" y="51"/>
		</contour>
		<contour>
			<point x="254" y="-1" type="curve" smooth="yes"/>
			<point x="174" y="-1"/>
			<point x="140" y="89"/>
			<point x="140" y="183" type="curve" smooth="yes"/>
			<point x="140" y="307"/>
			<point x="225" y="387"/>
			<point x="349" y="387" type="curve" smooth="yes"/>
			<point x="439" y="387"/>
			<point x="521" y="337"/>
			<point x="521" y="251" type="curve" smooth="yes"/>
			<point x="521" y="123"/>
			<point x="405" y="163"/>
			<point x="405" y="99" type="curve" smooth="yes"/>
			<point x="405" y="75"/>
			<point x="421" y="62"/>
			<point x="451" y="62" type="curve" smooth="yes"/>
			<point x="559" y="62"/>
			<point x="631" y="186"/>
			<point x="631" y="294" type="curve"/>
			<point x="670" y="271" type="line"/>
			<point x="670" y="136"/>
			<point x="614" y="-2"/>
			<point x="480" y="-2" type="curve" smooth="yes"/>
			<point x="421" y="-2"/>
			<point x="375" y="34"/>
			<point x="375" y="92" type="curve" smooth="yes"/>
			<point x="375" y="182"/>
			<point x="487" y="152"/>
			<point x="487" y="231" type="curve" smooth="yes"/>
			<point x="487" y="289"/>
			<point x="409" y="312"/>
			<point x="339" y="312" type="curve" smooth="yes"/>
			<point x="250" y="312"/>
			<point x="170" y="261"/>
			<point x="170" y="158" type="curve" smooth="yes"/>
			<point x="170" y="133"/>
			<point x="175" y="104"/>
			<point x="183" y="89" type="curve"/>
			<point x="187" y="123"/>
			<point x="214" y="149"/>
			<point x="254" y="149" type="curve" smooth="yes"/>
			<point x="296" y="149"/>
			<point x="332" y="116"/>
			<point x="332" y="75" type="curve" smooth="yes"/>
			<point x="332" y="28"/>
			<point x="293" y="-1"/>
		</contour>
		<contour>
			<point x="254" y="122" type="curve" smooth="yes"/>
			<point x="229" y="122"/>
			<point x="207" y="99"/>
			<point x="207" y="74" type="curve" smooth="yes"/>
			<point x="207" y="49"/>
			<point x="229" y="26"/>
			<point x="254" y="26" type="curve" smooth="yes"/>
			<point x="279" y="26"/>
			<point x="302" y="49"/>
			<point x="302" y="74" type="curve" smooth="yes"/>
			<point x="302" y="99"/>
			<point x="279" y="122"/>
		</contour>
		<contour>
			<point x="361" y="603" type="curve" smooth="yes"/>
			<point x="293" y="603"/>
			<point x="207" y="591"/>
			<point x="207" y="543" type="curve" smooth="yes"/>
			<point x="207" y="496"/>
			<point x="274" y="496"/>
			<point x="374" y="492" type="curve" smooth="yes"/>
			<point x="437" y="489"/>
			<point x="534" y="487"/>
			<point x="588" y="448" type="curve" smooth="yes"/>
			<point x="636" y="413"/>
			<point x="670" y="348"/>
			<point x="670" y="268" type="curve"/>
			<point x="631" y="289" type="line"/>
			<point x="631" y="331"/>
			<point x="621" y="375"/>
			<point x="594" y="404" type="curve" smooth="yes"/>
			<point x="540" y="462"/>
			<point x="474" y="462"/>
			<point x="375" y="467" type="curve" smooth="yes"/>
			<point x="288" y="472"/>
			<point x="166" y="465"/>
			<point x="166" y="549" type="curve" smooth="yes"/>
			<point x="166" y="621"/>
			<point x="260" y="660"/>
			<point x="361" y="660" type="curve" smooth="yes"/>
			<point x="544" y="660"/>
			<point x="628" y="529"/>
			<point x="645" y="478" type="curve"/>
			<point x="637" y="476" type="line"/>
			<point x="637" y="659" type="line"/>
			<point x="665" y="659" type="line"/>
			<point x="665" y="448" type="line"/>
			<point x="643" y="448" type="line"/>
			<point x="625" y="502"/>
			<point x="540" y="603"/>
		</contour>
	</outline>
</glyph>
<glyph name="sixtyArchaic-sinhala" format="2">
	<advance width="848"/>
	<unicode hex="111EF"/>
	<guideline x="525" y="421" angle="0"/>
	<guideline x="19" y="352" angle="0"/>
	<guideline x="147" y="217" angle="0"/>
	<outline>
		<contour>
			<point x="445" y="277" type="curve"/>
			<point x="445" y="360"/>
			<point x="408" y="421"/>
			<point x="343" y="421" type="curve" smooth="yes"/>
			<point x="284" y="421"/>
			<point x="247" y="381"/>
			<point x="247" y="307" type="curve"/>
			<point x="257" y="307" type="line"/>
			<point x="257" y="381"/>
			<point x="221" y="421"/>
			<point x="157" y="421" type="curve" smooth="yes"/>
			<point x="76" y="421"/>
			<point x="30" y="332"/>
			<point x="30" y="230" type="curve" smooth="yes"/>
			<point x="30" y="100"/>
			<point x="78" y="-1"/>
			<point x="187" y="-1" type="curve" smooth="yes"/>
			<point x="199" y="-1"/>
			<point x="211" y="1"/>
			<point x="224" y="6" type="curve"/>
			<point x="224" y="31" type="line"/>
			<point x="213" y="27"/>
			<point x="203" y="25"/>
			<point x="192" y="25" type="curve" smooth="yes"/>
			<point x="113" y="25"/>
			<point x="64" y="89"/>
			<point x="64" y="207" type="curve" smooth="yes"/>
			<point x="64" y="298"/>
			<point x="102" y="352"/>
			<point x="158" y="352" type="curve" smooth="yes"/>
			<point x="214" y="352"/>
			<point x="236" y="305"/>
			<point x="236" y="237" type="curve" smooth="yes"/>
			<point x="236" y="227" type="line"/>
			<point x="268" y="227" type="line"/>
			<point x="268" y="237" type="line" smooth="yes"/>
			<point x="268" y="305"/>
			<point x="296" y="352"/>
			<point x="340" y="352" type="curve" smooth="yes"/>
			<point x="397" y="352"/>
			<point x="414" y="305"/>
			<point x="414" y="259" type="curve" smooth="yes"/>
			<point x="414" y="169"/>
			<point x="375" y="140"/>
			<point x="324" y="140" type="curve" smooth="yes"/>
			<point x="236" y="140" type="line"/>
			<point x="236" y="113" type="line"/>
			<point x="314" y="113" type="line" smooth="yes"/>
			<point x="358" y="113"/>
			<point x="445" y="125"/>
		</contour>
		<contour>
			<point x="258" y="137" type="curve"/>
			<point x="259" y="113" type="line"/>
			<point x="404" y="113"/>
			<point x="556" y="21"/>
			<point x="556" y="-105" type="curve" smooth="yes"/>
			<point x="556" y="-126"/>
			<point x="549" y="-159"/>
			<point x="531" y="-159" type="curve" smooth="yes"/>
			<point x="502" y="-159"/>
			<point x="485" y="-133"/>
			<point x="485" y="-28" type="curve" smooth="yes"/>
			<point x="485" y="305"/>
			<point x="559" y="348"/>
			<point x="625" y="348" type="curve" smooth="yes"/>
			<point x="728" y="348"/>
			<point x="759" y="132"/>
			<point x="759" y="0" type="curve"/>
			<point x="788" y="0" type="line"/>
			<point x="788" y="421" type="line"/>
			<point x="760" y="421" type="line"/>
			<point x="760" y="99" type="line"/>
			<point x="770" y="46" type="line"/>
			<point x="770" y="109"/>
			<point x="760" y="421"/>
			<point x="625" y="421" type="curve" smooth="yes"/>
			<point x="450" y="421"/>
			<point x="460" y="28"/>
			<point x="460" y="-28" type="curve" smooth="yes"/>
			<point x="460" y="-148"/>
			<point x="486" y="-190"/>
			<point x="531" y="-190" type="curve" smooth="yes"/>
			<point x="561" y="-190"/>
			<point x="582" y="-150"/>
			<point x="582" y="-105" type="curve" smooth="yes"/>
			<point x="582" y="25"/>
			<point x="425" y="137"/>
		</contour>
	</outline>
</glyph>
<glyph name="seventyArchaic-sinhala" format="2">
	<advance width="1303"/>
	<unicode hex="111F0"/>
	<outline>
		<contour>
			<point x="343" y="421" type="curve" smooth="yes"/>
			<point x="408" y="421"/>
			<point x="445" y="360"/>
			<point x="445" y="277" type="curve"/>
			<point x="445" y="125"/>
			<point x="358" y="113"/>
			<point x="314" y="113" type="curve" smooth="yes"/>
			<point x="236" y="113" type="line"/>
			<point x="236" y="140" type="line"/>
			<point x="324" y="140" type="line" smooth="yes"/>
			<point x="375" y="140"/>
			<point x="414" y="169"/>
			<point x="414" y="259" type="curve" smooth="yes"/>
			<point x="414" y="305"/>
			<point x="397" y="352"/>
			<point x="340" y="352" type="curve" smooth="yes"/>
			<point x="296" y="352"/>
			<point x="268" y="305"/>
			<point x="268" y="237" type="curve" smooth="yes"/>
			<point x="268" y="227" type="line"/>
			<point x="236" y="227" type="line"/>
			<point x="236" y="237" type="line" smooth="yes"/>
			<point x="236" y="305"/>
			<point x="214" y="352"/>
			<point x="158" y="352" type="curve" smooth="yes"/>
			<point x="102" y="352"/>
			<point x="64" y="298"/>
			<point x="64" y="207" type="curve" smooth="yes"/>
			<point x="64" y="89"/>
			<point x="113" y="25"/>
			<point x="192" y="25" type="curve" smooth="yes"/>
			<point x="203" y="25"/>
			<point x="213" y="27"/>
			<point x="224" y="31" type="curve"/>
			<point x="224" y="6" type="line"/>
			<point x="211" y="1"/>
			<point x="199" y="-1"/>
			<point x="187" y="-1" type="curve" smooth="yes"/>
			<point x="78" y="-1"/>
			<point x="30" y="100"/>
			<point x="30" y="230" type="curve" smooth="yes"/>
			<point x="30" y="332"/>
			<point x="76" y="421"/>
			<point x="157" y="421" type="curve" smooth="yes"/>
			<point x="221" y="421"/>
			<point x="257" y="381"/>
			<point x="257" y="307" type="curve"/>
			<point x="247" y="307" type="line"/>
			<point x="247" y="381"/>
			<point x="284" y="421"/>
		</contour>
		<contour>
			<point x="495" y="-28" type="line" smooth="yes"/>
			<point x="495" y="-133"/>
			<point x="512" y="-159"/>
			<point x="541" y="-159" type="curve" smooth="yes"/>
			<point x="559" y="-159"/>
			<point x="566" y="-126"/>
			<point x="566" y="-105" type="curve" smooth="yes"/>
			<point x="566" y="21"/>
			<point x="404" y="113"/>
			<point x="259" y="113" type="curve"/>
			<point x="258" y="137" type="line"/>
			<point x="425" y="137"/>
			<point x="592" y="25"/>
			<point x="592" y="-105" type="curve" smooth="yes"/>
			<point x="592" y="-150"/>
			<point x="571" y="-190"/>
			<point x="541" y="-190" type="curve" smooth="yes"/>
			<point x="496" y="-190"/>
			<point x="470" y="-148"/>
			<point x="470" y="-28" type="curve" smooth="yes"/>
			<point x="470" y="78" type="line" smooth="yes"/>
			<point x="470" y="275"/>
			<point x="504" y="400"/>
			<point x="654" y="418" type="curve"/>
			<point x="616" y="383" type="line"/>
			<point x="514" y="361"/>
			<point x="495" y="219"/>
			<point x="495" y="112" type="curve" smooth="yes"/>
		</contour>
		<contour>
			<point x="578" y="347" type="curve" smooth="yes"/>
			<point x="578" y="381"/>
			<point x="603" y="420"/>
			<point x="682" y="420" type="curve"/>
			<point x="682" y="399" type="line"/>
			<point x="623" y="399"/>
			<point x="607" y="372"/>
			<point x="607" y="347" type="curve" smooth="yes"/>
			<point x="607" y="309"/>
			<point x="643" y="296"/>
			<point x="691" y="296" type="curve" smooth="yes"/>
			<point x="720" y="296" type="line"/>
			<point x="720" y="284" type="line"/>
			<point x="683" y="273" type="line"/>
			<point x="606" y="272"/>
			<point x="578" y="305"/>
		</contour>
		<contour>
			<point x="941" y="422" type="curve" smooth="yes"/>
			<point x="1041" y="422"/>
			<point x="1112" y="332"/>
			<point x="1112" y="206" type="curve" smooth="yes"/>
			<point x="1112" y="0" type="line"/>
			<point x="1056" y="0" type="line" smooth="yes"/>
			<point x="964" y="0"/>
			<point x="908" y="38"/>
			<point x="908" y="101" type="curve" smooth="yes"/>
			<point x="908" y="162"/>
			<point x="965" y="204"/>
			<point x="1048" y="204" type="curve" smooth="yes"/>
			<point x="1058" y="204"/>
			<point x="1084" y="201"/>
			<point x="1094" y="199" type="curve"/>
			<point x="1107" y="194" type="line"/>
			<point x="1171" y="166"/>
			<point x="1199" y="129"/>
			<point x="1236" y="23" type="curve"/>
			<point x="1215" y="30" type="line"/>
			<point x="1215" y="422" type="line"/>
			<point x="1243" y="422" type="line"/>
			<point x="1243" y="0" type="line"/>
			<point x="1225" y="0" type="line"/>
			<point x="1185" y="113"/>
			<point x="1159" y="150"/>
			<point x="1106" y="170" type="curve"/>
			<point x="1090" y="175" type="line"/>
			<point x="1080" y="178"/>
			<point x="1066" y="179"/>
			<point x="1048" y="179" type="curve" smooth="yes"/>
			<point x="1003" y="179"/>
			<point x="974" y="148"/>
			<point x="974" y="101" type="curve" smooth="yes"/>
			<point x="974" y="53"/>
			<point x="1005" y="26"/>
			<point x="1061" y="26" type="curve" smooth="yes"/>
			<point x="1084" y="26" type="line"/>
			<point x="1084" y="188" type="line"/>
			<point x="1084" y="281"/>
			<point x="1014" y="354"/>
			<point x="925" y="354" type="curve" smooth="yes"/>
			<point x="853" y="354"/>
			<point x="807" y="310"/>
			<point x="786" y="224" type="curve"/>
			<point x="794" y="229"/>
			<point x="803" y="231"/>
			<point x="814" y="231" type="curve" smooth="yes"/>
			<point x="852" y="231"/>
			<point x="878" y="194"/>
			<point x="878" y="142" type="curve" smooth="yes"/>
			<point x="878" y="56"/>
			<point x="814" y="-1"/>
			<point x="717" y="-1" type="curve" smooth="yes"/>
			<point x="619" y="-1"/>
			<point x="553" y="61"/>
			<point x="553" y="151" type="curve" smooth="yes"/>
			<point x="553" y="238"/>
			<point x="616" y="296"/>
			<point x="710" y="296" type="curve" smooth="yes"/>
			<point x="722" y="296" type="line"/>
			<point x="722" y="273" type="line"/>
			<point x="644" y="273"/>
			<point x="589" y="239"/>
			<point x="589" y="171" type="curve" smooth="yes"/>
			<point x="589" y="103"/>
			<point x="652" y="70"/>
			<point x="724" y="70" type="curve" smooth="yes"/>
			<point x="788" y="70"/>
			<point x="843" y="98"/>
			<point x="843" y="160" type="curve" smooth="yes"/>
			<point x="843" y="190"/>
			<point x="829" y="207"/>
			<point x="809" y="207" type="curve" smooth="yes"/>
			<point x="796" y="207"/>
			<point x="783" y="199"/>
			<point x="776" y="178" type="curve"/>
			<point x="754" y="188" type="line"/>
			<point x="763" y="310"/>
			<point x="842" y="422"/>
		</contour>
	</outline>
</glyph>
<glyph name="eightyArchaic-sinhala" format="2">
	<advance width="739"/>
	<unicode hex="111F1"/>
	<guideline x="26" y="605" angle="0"/>
	<outline>
		<contour>
			<point x="30" y="216" type="curve" smooth="yes"/>
			<point x="30" y="345"/>
			<point x="101" y="422"/>
			<point x="237" y="422" type="curve" smooth="yes"/>
			<point x="263" y="422"/>
			<point x="289" y="420"/>
			<point x="315" y="416" type="curve"/>
			<point x="315" y="395" type="line"/>
			<point x="290" y="399"/>
			<point x="264" y="399"/>
			<point x="239" y="399" type="curve" smooth="yes"/>
			<point x="107" y="399"/>
			<point x="59" y="312"/>
			<point x="59" y="213" type="curve" smooth="yes"/>
			<point x="59" y="134"/>
			<point x="85" y="73"/>
			<point x="136" y="29" type="curve"/>
			<point x="136" y="0" type="line"/>
			<point x="72" y="32"/>
			<point x="30" y="117"/>
		</contour>
		<contour>
			<point x="182" y="358" type="curve" smooth="yes"/>
			<point x="182" y="395"/>
			<point x="215" y="410"/>
			<point x="258" y="407" type="curve"/>
			<point x="290" y="419" type="line"/>
			<point x="287" y="398" type="line"/>
			<point x="228" y="403"/>
			<point x="215" y="375"/>
			<point x="215" y="360" type="curve" smooth="yes"/>
			<point x="215" y="335"/>
			<point x="242" y="321"/>
			<point x="292" y="319" type="curve"/>
			<point x="292" y="303" type="line"/>
			<point x="241" y="303"/>
			<point x="182" y="315"/>
		</contour>
		<contour>
			<point x="390" y="69" type="curve" smooth="yes"/>
			<point x="494" y="69"/>
			<point x="617" y="107"/>
			<point x="617" y="200" type="curve" smooth="yes"/>
			<point x="617" y="271"/>
			<point x="551" y="297"/>
			<point x="475" y="297" type="curve" smooth="yes"/>
			<point x="453" y="297"/>
			<point x="428" y="294"/>
			<point x="406" y="290" type="curve"/>
			<point x="404" y="301"/>
			<point x="403" y="310"/>
			<point x="403" y="320" type="curve" smooth="yes"/>
			<point x="403" y="387"/>
			<point x="448" y="410"/>
			<point x="519" y="410" type="curve"/>
			<point x="519" y="400" type="line"/>
			<point x="472" y="400"/>
			<point x="374" y="420"/>
			<point x="374" y="499" type="curve" smooth="yes"/>
			<point x="374" y="571"/>
			<point x="442" y="605"/>
			<point x="509" y="605" type="curve" smooth="yes"/>
			<point x="637" y="605"/>
			<point x="692" y="489"/>
			<point x="709" y="438" type="curve"/>
			<point x="701" y="442" type="line"/>
			<point x="701" y="605" type="line"/>
			<point x="729" y="605" type="line"/>
			<point x="729" y="384" type="line"/>
			<point x="707" y="384" type="line"/>
			<point x="689" y="438"/>
			<point x="640" y="579"/>
			<point x="524" y="579" type="curve" smooth="yes"/>
			<point x="462" y="579"/>
			<point x="433" y="540"/>
			<point x="433" y="499" type="curve" smooth="yes"/>
			<point x="433" y="447"/>
			<point x="488" y="409"/>
			<point x="551" y="410" type="curve"/>
			<point x="551" y="384" type="line"/>
			<point x="517" y="384" type="line" smooth="yes"/>
			<point x="465" y="384"/>
			<point x="435" y="372"/>
			<point x="435" y="328" type="curve" smooth="yes"/>
			<point x="435" y="324"/>
			<point x="435" y="321"/>
			<point x="436" y="317" type="curve"/>
			<point x="453" y="319"/>
			<point x="468" y="320"/>
			<point x="484" y="320" type="curve" smooth="yes"/>
			<point x="565" y="320"/>
			<point x="651" y="291"/>
			<point x="651" y="182" type="curve" smooth="yes"/>
			<point x="651" y="54"/>
			<point x="528" y="0"/>
			<point x="390" y="0" type="curve" smooth="yes"/>
			<point x="245" y="0"/>
			<point x="120" y="45"/>
			<point x="120" y="180" type="curve" smooth="yes"/>
			<point x="120" y="269"/>
			<point x="187" y="319"/>
			<point x="292" y="319" type="curve" smooth="yes"/>
			<point x="305" y="319"/>
			<point x="335" y="316"/>
			<point x="358" y="313" type="curve"/>
			<point x="358" y="306"/>
			<point x="357" y="299"/>
			<point x="355" y="291" type="curve"/>
			<point x="337" y="293"/>
			<point x="303" y="295"/>
			<point x="302" y="295" type="curve" smooth="yes"/>
			<point x="227" y="295"/>
			<point x="157" y="269"/>
			<point x="157" y="196" type="curve" smooth="yes"/>
			<point x="157" y="104"/>
			<point x="279" y="69"/>
		</contour>
	</outline>
</glyph>
<glyph name="ninetyArchaic-sinhala" format="2">
	<advance width="746"/>
	<unicode hex="111F2"/>
	<outline>
		<contour>
			<point x="390" y="0" type="curve" smooth="yes"/>
			<point x="528" y="0"/>
			<point x="651" y="54"/>
			<point x="651" y="182" type="curve" smooth="yes"/>
			<point x="651" y="235"/>
			<point x="631" y="273"/>
			<point x="592" y="296" type="curve"/>
			<point x="611" y="310"/>
			<point x="618" y="326"/>
			<point x="618" y="346" type="curve" smooth="yes"/>
			<point x="618" y="384"/>
			<point x="583" y="423"/>
			<point x="519" y="423" type="curve" smooth="yes"/>
			<point x="448" y="423"/>
			<point x="403" y="387"/>
			<point x="403" y="320" type="curve" smooth="yes"/>
			<point x="403" y="310"/>
			<point x="404" y="301"/>
			<point x="406" y="290" type="curve"/>
			<point x="428" y="294"/>
			<point x="453" y="297"/>
			<point x="475" y="297" type="curve" smooth="yes"/>
			<point x="551" y="297"/>
			<point x="617" y="271"/>
			<point x="617" y="200" type="curve" smooth="yes"/>
			<point x="617" y="107"/>
			<point x="494" y="69"/>
			<point x="390" y="69" type="curve" smooth="yes"/>
			<point x="279" y="69"/>
			<point x="157" y="104"/>
			<point x="157" y="196" type="curve" smooth="yes"/>
			<point x="157" y="269"/>
			<point x="227" y="295"/>
			<point x="302" y="295" type="curve" smooth="yes"/>
			<point x="303" y="295"/>
			<point x="337" y="293"/>
			<point x="355" y="291" type="curve"/>
			<point x="357" y="299"/>
			<point x="358" y="306"/>
			<point x="358" y="313" type="curve"/>
			<point x="335" y="316"/>
			<point x="305" y="319"/>
			<point x="292" y="319" type="curve" smooth="yes"/>
			<point x="187" y="319"/>
			<point x="120" y="269"/>
			<point x="120" y="180" type="curve" smooth="yes"/>
			<point x="120" y="45"/>
			<point x="245" y="0"/>
		</contour>
		<contour>
			<point x="136" y="0" type="curve"/>
			<point x="136" y="29" type="line"/>
			<point x="85" y="73"/>
			<point x="59" y="134"/>
			<point x="59" y="213" type="curve" smooth="yes"/>
			<point x="59" y="312"/>
			<point x="107" y="399"/>
			<point x="239" y="399" type="curve" smooth="yes"/>
			<point x="264" y="399"/>
			<point x="290" y="399"/>
			<point x="315" y="395" type="curve"/>
			<point x="315" y="416" type="line"/>
			<point x="289" y="420"/>
			<point x="263" y="422"/>
			<point x="237" y="422" type="curve" smooth="yes"/>
			<point x="101" y="422"/>
			<point x="30" y="345"/>
			<point x="30" y="216" type="curve" smooth="yes"/>
			<point x="30" y="117"/>
			<point x="72" y="32"/>
		</contour>
		<contour>
			<point x="292" y="303" type="curve"/>
			<point x="292" y="319" type="line"/>
			<point x="242" y="321"/>
			<point x="215" y="335"/>
			<point x="215" y="360" type="curve" smooth="yes"/>
			<point x="215" y="375"/>
			<point x="228" y="403"/>
			<point x="287" y="398" type="curve"/>
			<point x="290" y="407" type="line"/>
			<point x="258" y="407" type="line" smooth="yes"/>
			<point x="215" y="410"/>
			<point x="182" y="395"/>
			<point x="182" y="358" type="curve" smooth="yes"/>
			<point x="182" y="315"/>
			<point x="241" y="303"/>
		</contour>
		<contour>
			<point x="339" y="121" type="line"/>
			<point x="461" y="97"/>
			<point x="512" y="140"/>
			<point x="512" y="189" type="curve" smooth="yes"/>
			<point x="512" y="213"/>
			<point x="496" y="229"/>
			<point x="468" y="237" type="curve"/>
			<point x="466" y="233" type="line"/>
			<point x="508" y="240"/>
			<point x="557" y="260"/>
			<point x="579" y="282" type="curve"/>
			<point x="548" y="289" type="line"/>
			<point x="539" y="280"/>
			<point x="508" y="262"/>
			<point x="470" y="255" type="curve" smooth="yes"/>
			<point x="440" y="249"/>
			<point x="400" y="248"/>
			<point x="376" y="248" type="curve"/>
			<point x="376" y="227" type="line"/>
			<point x="449" y="227"/>
			<point x="483" y="216"/>
			<point x="483" y="189" type="curve" smooth="yes"/>
			<point x="483" y="163"/>
			<point x="453" y="122"/>
			<point x="339" y="146" type="curve"/>
		</contour>
		<contour>
			<point x="568" y="308" type="curve"/>
			<point x="544" y="317"/>
			<point x="516" y="320"/>
			<point x="484" y="320" type="curve" smooth="yes"/>
			<point x="468" y="320"/>
			<point x="453" y="319"/>
			<point x="436" y="317" type="curve"/>
			<point x="435" y="321"/>
			<point x="435" y="324"/>
			<point x="435" y="328" type="curve" smooth="yes"/>
			<point x="435" y="372"/>
			<point x="470" y="396"/>
			<point x="512" y="396" type="curve" smooth="yes"/>
			<point x="558" y="396"/>
			<point x="583" y="371"/>
			<point x="583" y="343" type="curve" smooth="yes"/>
			<point x="583" y="330"/>
			<point x="579" y="319"/>
		</contour>
		<contour>
			<point x="707" y="384" type="curve"/>
			<point x="736" y="384" type="line"/>
			<point x="736" y="605" type="line"/>
			<point x="701" y="605" type="line"/>
			<point x="701" y="442" type="line"/>
			<point x="709" y="444" type="line"/>
			<point x="692" y="495"/>
			<point x="646" y="605"/>
			<point x="530" y="605" type="curve" smooth="yes"/>
			<point x="457" y="605"/>
			<point x="379" y="571"/>
			<point x="379" y="493" type="curve" smooth="yes"/>
			<point x="379" y="420"/>
			<point x="462" y="400"/>
			<point x="519" y="400" type="curve" smooth="yes"/>
			<point x="571" y="400" type="line"/>
			<point x="571" y="410" type="line"/>
			<point x="468" y="409"/>
			<point x="438" y="447"/>
			<point x="438" y="493" type="curve" smooth="yes"/>
			<point x="438" y="540"/>
			<point x="467" y="577"/>
			<point x="529" y="579" type="curve" smooth="yes"/>
			<point x="645" y="583"/>
			<point x="689" y="438"/>
		</contour>
	</outline>
</glyph>
<glyph name="onehundredArchaic-sinhala" format="2">
	<advance width="1132"/>
	<unicode hex="111F3"/>
	<outline>
		<contour>
			<point x="690" y="180" type="curve" smooth="yes"/>
			<point x="690" y="268"/>
			<point x="669" y="350"/>
			<point x="592" y="350" type="curve" smooth="yes"/>
			<point x="535" y="350"/>
			<point x="503" y="303"/>
			<point x="503" y="225" type="curve" smooth="yes"/>
			<point x="503" y="157" type="line"/>
			<point x="471" y="157" type="line"/>
			<point x="471" y="225" type="line" smooth="yes"/>
			<point x="471" y="308"/>
			<point x="440" y="350"/>
			<point x="382" y="350" type="curve" smooth="yes"/>
			<point x="324" y="350"/>
			<point x="293" y="308"/>
			<point x="293" y="225" type="curve" smooth="yes"/>
			<point x="293" y="157" type="line"/>
			<point x="261" y="157" type="line"/>
			<point x="261" y="225" type="line" smooth="yes"/>
			<point x="261" y="303"/>
			<point x="227" y="350"/>
			<point x="167" y="350" type="curve" smooth="yes"/>
			<point x="105" y="350"/>
			<point x="64" y="312"/>
			<point x="64" y="216" type="curve" smooth="yes"/>
			<point x="64" y="127"/>
			<point x="111" y="65"/>
			<point x="191" y="65" type="curve" smooth="yes"/>
			<point x="202" y="65"/>
			<point x="212" y="67"/>
			<point x="223" y="71" type="curve"/>
			<point x="223" y="46" type="line"/>
			<point x="211" y="41"/>
			<point x="199" y="39"/>
			<point x="186" y="39" type="curve" smooth="yes"/>
			<point x="89" y="39"/>
			<point x="30" y="119"/>
			<point x="30" y="232" type="curve" smooth="yes"/>
			<point x="30" y="358"/>
			<point x="87" y="421"/>
			<point x="167" y="421" type="curve" smooth="yes"/>
			<point x="236" y="421"/>
			<point x="282" y="374"/>
			<point x="282" y="303" type="curve"/>
			<point x="272" y="303" type="line"/>
			<point x="272" y="376"/>
			<point x="314" y="421"/>
			<point x="382" y="421" type="curve" smooth="yes"/>
			<point x="450" y="421"/>
			<point x="492" y="376"/>
			<point x="492" y="303" type="curve"/>
			<point x="482" y="303" type="line"/>
			<point x="482" y="372"/>
			<point x="528" y="421"/>
			<point x="592" y="421" type="curve" smooth="yes"/>
			<point x="688" y="421"/>
			<point x="724" y="302"/>
			<point x="724" y="196" type="curve" smooth="yes"/>
			<point x="724" y="-35"/>
			<point x="583" y="-190"/>
			<point x="332" y="-190" type="curve" smooth="yes"/>
			<point x="205" y="-190"/>
			<point x="92" y="-153"/>
			<point x="92" y="-87" type="curve" smooth="yes"/>
			<point x="92" y="-14"/>
			<point x="190" y="0"/>
			<point x="383" y="0" type="curve"/>
			<point x="383" y="-26" type="line"/>
			<point x="239" y="-26"/>
			<point x="170" y="-40"/>
			<point x="170" y="-87" type="curve" smooth="yes"/>
			<point x="170" y="-130"/>
			<point x="259" y="-160"/>
			<point x="342" y="-158" type="curve" smooth="yes"/>
			<point x="578" y="-153"/>
			<point x="690" y="-8"/>
		</contour>
		<contour>
			<point x="754" y="32" type="curve" smooth="yes"/>
			<point x="754" y="88"/>
			<point x="734" y="421"/>
			<point x="911" y="421" type="curve" smooth="yes"/>
			<point x="1054" y="421"/>
			<point x="1064" y="109"/>
			<point x="1064" y="46" type="curve"/>
			<point x="1054" y="99" type="line"/>
			<point x="1054" y="421" type="line"/>
			<point x="1082" y="421" type="line"/>
			<point x="1082" y="0" type="line"/>
			<point x="1053" y="0" type="line"/>
			<point x="1053" y="132"/>
			<point x="1022" y="348"/>
			<point x="911" y="348" type="curve" smooth="yes"/>
			<point x="843" y="348"/>
			<point x="780" y="265"/>
			<point x="780" y="32" type="curve" smooth="yes"/>
			<point x="780" y="-87"/>
			<point x="816" y="-159"/>
			<point x="856" y="-159" type="curve" smooth="yes"/>
			<point x="870" y="-159"/>
			<point x="879" y="-152"/>
			<point x="879" y="-136" type="curve" smooth="yes"/>
			<point x="879" y="-80"/>
			<point x="756" y="-26"/>
			<point x="439" y="-26" type="curve" smooth="yes"/>
			<point x="383" y="-26" type="line"/>
			<point x="383" y="0" type="line"/>
			<point x="439" y="0" type="line" smooth="yes"/>
			<point x="760" y="0"/>
			<point x="905" y="-58"/>
			<point x="905" y="-139" type="curve" smooth="yes"/>
			<point x="905" y="-173"/>
			<point x="884" y="-190"/>
			<point x="860" y="-190" type="curve" smooth="yes"/>
			<point x="800" y="-190"/>
			<point x="754" y="-108"/>
		</contour>
	</outline>
</glyph>
<glyph name="onethousandArchaic-sinhala" format="2">
	<advance width="903"/>
	<unicode hex="111F4"/>
	<outline>
		<contour>
			<point x="167" y="421" type="curve" smooth="yes"/>
			<point x="236" y="421"/>
			<point x="282" y="374"/>
			<point x="282" y="303" type="curve"/>
			<point x="272" y="303" type="line"/>
			<point x="272" y="376"/>
			<point x="314" y="421"/>
			<point x="382" y="421" type="curve" smooth="yes"/>
			<point x="450" y="421"/>
			<point x="492" y="376"/>
			<point x="492" y="303" type="curve"/>
			<point x="482" y="303" type="line"/>
			<point x="482" y="372"/>
			<point x="528" y="421"/>
			<point x="592" y="421" type="curve" smooth="yes"/>
			<point x="683" y="421"/>
			<point x="724" y="356"/>
			<point x="724" y="210" type="curve" smooth="yes"/>
			<point x="724" y="-190" type="line"/>
			<point x="690" y="-146" type="line"/>
			<point x="690" y="174" type="line" smooth="yes"/>
			<point x="690" y="297"/>
			<point x="660" y="350"/>
			<point x="592" y="350" type="curve" smooth="yes"/>
			<point x="535" y="350"/>
			<point x="503" y="303"/>
			<point x="503" y="225" type="curve" smooth="yes"/>
			<point x="503" y="157" type="line"/>
			<point x="471" y="157" type="line"/>
			<point x="471" y="225" type="line" smooth="yes"/>
			<point x="471" y="308"/>
			<point x="440" y="350"/>
			<point x="382" y="350" type="curve" smooth="yes"/>
			<point x="324" y="350"/>
			<point x="293" y="308"/>
			<point x="293" y="225" type="curve" smooth="yes"/>
			<point x="293" y="157" type="line"/>
			<point x="261" y="157" type="line"/>
			<point x="261" y="225" type="line" smooth="yes"/>
			<point x="261" y="303"/>
			<point x="227" y="350"/>
			<point x="167" y="350" type="curve" smooth="yes"/>
			<point x="105" y="350"/>
			<point x="64" y="292"/>
			<point x="64" y="204" type="curve" smooth="yes"/>
			<point x="64" y="91"/>
			<point x="111" y="25"/>
			<point x="191" y="25" type="curve" smooth="yes"/>
			<point x="202" y="25"/>
			<point x="212" y="27"/>
			<point x="223" y="31" type="curve"/>
			<point x="223" y="6" type="line"/>
			<point x="211" y="1"/>
			<point x="199" y="-1"/>
			<point x="186" y="-1" type="curve" smooth="yes"/>
			<point x="89" y="-1"/>
			<point x="30" y="83"/>
			<point x="30" y="220" type="curve" smooth="yes"/>
			<point x="30" y="338"/>
			<point x="87" y="421"/>
		</contour>
		<contour>
			<point x="590" y="107" type="curve" smooth="yes"/>
			<point x="682" y="107"/>
			<point x="776" y="59"/>
			<point x="836" y="-57" type="curve"/>
			<point x="815" y="-50" type="line"/>
			<point x="815" y="422" type="line"/>
			<point x="843" y="422" type="line"/>
			<point x="843" y="-80" type="line"/>
			<point x="825" y="-80" type="line"/>
			<point x="759" y="40"/>
			<point x="672" y="82"/>
			<point x="592" y="82" type="curve" smooth="yes"/>
			<point x="533" y="82"/>
			<point x="484" y="68"/>
			<point x="451" y="28" type="curve"/>
			<point x="428" y="44" type="line"/>
			<point x="469" y="85"/>
			<point x="516" y="107"/>
		</contour>
		<contour>
			<point x="476" y="-23" type="curve" smooth="yes"/>
			<point x="476" y="-1"/>
			<point x="459" y="25"/>
			<point x="399" y="25" type="curve" smooth="yes"/>
			<point x="340" y="25"/>
			<point x="283" y="-19"/>
			<point x="283" y="-87" type="curve" smooth="yes"/>
			<point x="283" y="-149"/>
			<point x="338" y="-185"/>
			<point x="384" y="-185" type="curve" smooth="yes"/>
			<point x="462" y="-185"/>
			<point x="481" y="-124"/>
			<point x="574" y="-124" type="curve" smooth="yes"/>
			<point x="616" y="-124"/>
			<point x="664" y="-143"/>
			<point x="690" y="-174" type="curve"/>
			<point x="690" y="139" type="line"/>
			<point x="724" y="197" type="line"/>
			<point x="724" y="-235" type="line"/>
			<point x="700" y="-235" type="line"/>
			<point x="685" y="-200"/>
			<point x="643" y="-150"/>
			<point x="577" y="-150" type="curve" smooth="yes"/>
			<point x="488" y="-150"/>
			<point x="477" y="-241"/>
			<point x="395" y="-241" type="curve" smooth="yes"/>
			<point x="317" y="-241"/>
			<point x="248" y="-190"/>
			<point x="248" y="-96" type="curve" smooth="yes"/>
			<point x="248" y="-9"/>
			<point x="321" y="51"/>
			<point x="394" y="51" type="curve" smooth="yes"/>
			<point x="468" y="51"/>
			<point x="502" y="18"/>
			<point x="502" y="-23" type="curve" smooth="yes"/>
			<point x="502" y="-64"/>
			<point x="474" y="-80"/>
			<point x="451" y="-80" type="curve" smooth="yes"/>
			<point x="422" y="-80"/>
			<point x="397" y="-60"/>
			<point x="397" y="-23" type="curve" smooth="yes"/>
			<point x="397" y="-1"/>
			<point x="407" y="23"/>
			<point x="433" y="38" type="curve"/>
			<point x="450" y="27" type="line"/>
			<point x="432" y="12"/>
			<point x="423" y="-8"/>
			<point x="423" y="-23" type="curve" smooth="yes"/>
			<point x="423" y="-43"/>
			<point x="435" y="-54"/>
			<point x="451" y="-54" type="curve" smooth="yes"/>
			<point x="468" y="-54"/>
			<point x="476" y="-37"/>
		</contour>
	</outline>
</glyph>
<glyph name="Y.sc" format="2">
	<advance width="512"/>
	<outline>
		<contour>
			<point x="226" y="199"/>
			<point x="266" y="216"/>
			<point x="285" y="219" type="curve"/>
			<point x="309" y="271"/>
			<point x="355" y="334"/>
			<point x="425" y="434" type="curve" smooth="yes"/>
			<point x="444" y="461"/>
			<point x="463" y="482"/>
			<point x="502" y="483" type="curve"/>
			<point x="495" y="521" type="line"/>
			<point x="431" y="518"/>
			<point x="369" y="517"/>
			<point x="305" y="521" type="curve"/>
			<point x="311" y="480" type="line"/>
			<point x="356" y="482"/>
			<point x="390" y="469"/>
			<point x="369" y="435" type="curve" smooth="yes"/>
			<point x="327" y="367"/>
			<point x="286" y="307"/>
			<point x="257" y="259" type="curve"/>
			<point x="257" y="259"/>
			<point x="243" y="296"/>
			<point x="236" y="320" type="curve"/>
			<point x="212" y="362"/>
			<point x="194" y="409"/>
			<point x="177" y="439" type="curve" smooth="yes"/>
			<point x="159" y="470"/>
			<point x="172" y="482"/>
			<point x="222" y="486" type="curve"/>
			<point x="213" y="521" type="line"/>
			<point x="138" y="519"/>
			<point x="68" y="518"/>
			<point x="-7" y="521" type="curve"/>
			<point x="-2" y="483" type="line"/>
			<point x="29" y="483"/>
			<point x="54" y="474"/>
			<point x="76" y="437" type="curve" smooth="yes"/>
			<point x="147" y="317"/>
			<point x="168" y="259"/>
			<point x="203" y="193" type="curve"/>
		</contour>
		<contour>
			<point x="365" y="0" type="line"/>
			<point x="351" y="45" type="line"/>
			<point x="317" y="43"/>
			<point x="303" y="59"/>
			<point x="296" y="91" type="curve" smooth="yes"/>
			<point x="289" y="122"/>
			<point x="290" y="152"/>
			<point x="294" y="244" type="curve"/>
			<point x="196" y="252" type="line"/>
			<point x="206" y="171"/>
			<point x="205" y="129"/>
			<point x="200" y="95" type="curve" smooth="yes"/>
			<point x="196" y="61"/>
			<point x="186" y="43"/>
			<point x="139" y="45" type="curve"/>
			<point x="145" y="-1" type="line"/>
		</contour>
	</outline>
</glyph>
<glyph name="mooniak" format="2">
	<advance width="952"/>
	<outline>
		<contour>
			<point x="692.6" y="592.8"/>
			<point x="692.6" y="656" type="curve" smooth="yes"/>
			<point x="692.6" y="719.2"/>
			<point x="743.8" y="770.4"/>
			<point x="807" y="770.4" type="curve" smooth="yes"/>
			<point x="870.2" y="770.4"/>
			<point x="921.4" y="719.2"/>
			<point x="921.4" y="656" type="curve" smooth="yes"/>
			<point x="921.4" y="592.8"/>
			<point x="870.2" y="541.6"/>
			<point x="807" y="541.6" type="curve" smooth="yes"/>
			<point x="743.8" y="541.6"/>
		</contour>
		<contour>
			<point x="30.4" y="197.2"/>
			<point x="30.4" y="371" type="curve" smooth="yes"/>
			<point x="30.4" y="544.8"/>
			<point x="171.2" y="685.6"/>
			<point x="345" y="685.6" type="curve" smooth="yes"/>
			<point x="518.8" y="685.6"/>
			<point x="659.6" y="544.8"/>
			<point x="659.6" y="371" type="curve" smooth="yes"/>
			<point x="659.6" y="197.2"/>
			<point x="518.8" y="56.4"/>
			<point x="345" y="56.4" type="curve" smooth="yes"/>
			<point x="171.2" y="56.4"/>
		</contour>
	</outline>
</glyph>
<glyph name="sinB.virama" format="2">
	<advance width="653"/>
	<outline>
		<contour>
			<point x="598" y="478"/>
			<point x="554" y="702"/>
			<point x="316" y="705" type="curve" smooth="yes"/>
			<point x="223" y="706"/>
			<point x="149" y="669"/>
			<point x="149" y="669" type="curve"/>
			<point x="136" y="645"/>
			<point x="132" y="619"/>
			<point x="131" y="609" type="curve"/>
			<point x="153" y="624"/>
			<point x="183" y="632"/>
			<point x="210" y="637" type="curve"/>
			<point x="238" y="667" type="line"/>
			<point x="204" y="657"/>
			<point x="153" y="595"/>
			<point x="153" y="543" type="curve"/>
			<point x="181" y="528" type="line"/>
			<point x="181" y="582"/>
			<point x="252" y="650"/>
			<point x="286" y="655" type="curve"/>
			<point x="215" y="638" type="line"/>
			<point x="215" y="638"/>
			<point x="229" y="647"/>
			<point x="291" y="647" type="curve" smooth="yes"/>
			<point x="533" y="647"/>
			<point x="562" y="446"/>
			<point x="561" y="398" type="curve"/>
			<point x="598" y="336" type="line"/>
		</contour>
		<component base="sinBa"/>
	</outline>
</glyph>
<glyph name="sinC.virama" format="2">
	<advance width="657"/>
	<outline>
		<contour>
			<point x="599" y="369" type="line"/>
			<point x="599" y="512"/>
			<point x="564" y="718"/>
			<point x="303" y="718" type="curve" smooth="yes"/>
			<point x="211" y="718"/>
			<point x="139" y="683"/>
			<point x="139" y="683" type="curve"/>
			<point x="126" y="659"/>
			<point x="123" y="633"/>
			<point x="122" y="623" type="curve"/>
			<point x="144" y="638"/>
			<point x="174" y="640"/>
			<point x="201" y="650" type="curve"/>
			<point x="223" y="680" type="line"/>
			<point x="209" y="670"/>
			<point x="173" y="635"/>
			<point x="142" y="566" type="curve"/>
			<point x="182" y="561" type="line"/>
			<point x="200" y="610"/>
			<point x="243" y="663"/>
			<point x="276" y="668" type="curve"/>
			<point x="254" y="669"/>
			<point x="232" y="670"/>
			<point x="206" y="650" type="curve"/>
			<point x="206" y="650"/>
			<point x="219" y="660"/>
			<point x="282" y="660" type="curve" smooth="yes"/>
			<point x="564" y="660"/>
			<point x="563" y="479"/>
			<point x="561" y="431" type="curve"/>
		</contour>
		<component base="sinCa"/>
	</outline>
</glyph>
<glyph name="sinChUu" format="2">
	<advance width="635"/>
	<outline>
		<contour>
			<point x="196" y="-230" type="curve" smooth="yes"/>
			<point x="281" y="-230"/>
			<point x="314" y="-179"/>
			<point x="399" y="-179" type="curve" smooth="yes"/>
			<point x="456" y="-179"/>
			<point x="506" y="-202"/>
			<point x="546" y="-225" type="curve"/>
			<point x="568" y="-211" type="line"/>
			<point x="563" y="165" type="line"/>
			<point x="536" y="154" type="line"/>
			<point x="520" y="-175" type="line"/>
			<point x="545" y="-183" type="line"/>
			<point x="522" y="-152"/>
			<point x="473" y="-115"/>
			<point x="413" y="-115" type="curve" smooth="yes"/>
			<point x="314" y="-115"/>
			<point x="265" y="-191"/>
			<point x="203" y="-191" type="curve" smooth="yes"/>
			<point x="171" y="-191"/>
			<point x="141" y="-167"/>
			<point x="141" y="-103" type="curve"/>
			<point x="133" y="-100"/>
			<point x="124" y="-99"/>
			<point x="114" y="-99" type="curve" smooth="yes"/>
			<point x="98" y="-99"/>
			<point x="81" y="-103"/>
			<point x="69" y="-109" type="curve"/>
			<point x="69" y="-154"/>
			<point x="101" y="-230"/>
		</contour>
		<component base="sinCha" xOffset="10"/>
	</outline>
</glyph>
<glyph name="sinCha.reph" format="2">
	<advance width="605"/>
	<outline>
		<contour>
			<point x="362" y="469" type="line"/>
			<point x="384" y="490"/>
			<point x="399" y="519"/>
			<point x="402" y="559" type="curve" smooth="yes"/>
			<point x="409" y="664"/>
			<point x="341" y="725"/>
			<point x="250" y="725" type="curve" smooth="yes"/>
			<point x="154" y="725"/>
			<point x="101" y="656"/>
			<point x="101" y="584" type="curve" smooth="yes"/>
			<point x="101" y="531"/>
			<point x="137" y="488"/>
			<point x="194" y="488" type="curve" smooth="yes"/>
			<point x="242" y="488"/>
			<point x="267" y="520"/>
			<point x="267" y="556" type="curve" smooth="yes"/>
			<point x="267" y="599"/>
			<point x="235" y="631"/>
			<point x="198" y="631" type="curve" smooth="yes"/>
			<point x="154" y="631"/>
			<point x="136" y="592"/>
			<point x="126" y="582" type="curve"/>
			<point x="135" y="569" type="line"/>
			<point x="150" y="578"/>
			<point x="163" y="588"/>
			<point x="195" y="588" type="curve" smooth="yes"/>
			<point x="218" y="588"/>
			<point x="242" y="577"/>
			<point x="242" y="558" type="curve" smooth="yes"/>
			<point x="242" y="534"/>
			<point x="217" y="528"/>
			<point x="198" y="528" type="curve" smooth="yes"/>
			<point x="161" y="528"/>
			<point x="141" y="553"/>
			<point x="141" y="595" type="curve" smooth="yes"/>
			<point x="141" y="644"/>
			<point x="200" y="664"/>
			<point x="250" y="664" type="curve" smooth="yes"/>
			<point x="282" y="664"/>
			<point x="377" y="649"/>
			<point x="369" y="547" type="curve" smooth="yes"/>
			<point x="367" y="528"/>
			<point x="360" y="494"/>
			<point x="348" y="479" type="curve"/>
		</contour>
		<component base="sinCha"/>
	</outline>
</glyph>
<glyph name="sinDDh.virama" format="2">
	<advance width="809"/>
	<outline>
		<contour>
			<point x="729" y="370" type="line"/>
			<point x="729" y="513"/>
			<point x="694" y="719"/>
			<point x="433" y="719" type="curve" smooth="yes"/>
			<point x="341" y="719"/>
			<point x="269" y="684"/>
			<point x="269" y="684" type="curve"/>
			<point x="256" y="660"/>
			<point x="253" y="634"/>
			<point x="252" y="624" type="curve"/>
			<point x="274" y="639"/>
			<point x="304" y="641"/>
			<point x="331" y="651" type="curve"/>
			<point x="353" y="681" type="line"/>
			<point x="339" y="671"/>
			<point x="303" y="636"/>
			<point x="272" y="567" type="curve"/>
			<point x="312" y="562" type="line"/>
			<point x="330" y="611"/>
			<point x="373" y="664"/>
			<point x="406" y="669" type="curve"/>
			<point x="384" y="670"/>
			<point x="362" y="671"/>
			<point x="336" y="651" type="curve"/>
			<point x="336" y="651"/>
			<point x="349" y="661"/>
			<point x="412" y="661" type="curve" smooth="yes"/>
			<point x="694" y="661"/>
			<point x="693" y="480"/>
			<point x="691" y="432" type="curve"/>
		</contour>
		<component base="sinDDha"/>
	</outline>
</glyph>
<glyph name="sinDDhI" format="2">
	<advance width="803"/>
	<outline>
		<contour>
			<point x="112" y="-22" type="curve"/>
			<point x="131" y="-22"/>
			<point x="142" y="-18"/>
			<point x="146" y="-15" type="curve"/>
			<point x="123" y="12"/>
			<point x="112" y="63"/>
			<point x="112" y="118" type="curve" smooth="yes"/>
			<point x="112" y="240"/>
			<point x="172" y="321"/>
			<point x="307" y="321" type="curve" smooth="yes"/>
			<point x="322" y="321"/>
			<point x="337" y="320"/>
			<point x="353" y="317" type="curve"/>
			<point x="336" y="306" type="line"/>
			<point x="448" y="353" type="line"/>
			<point x="446" y="362" type="line"/>
			<point x="433" y="364"/>
			<point x="427" y="365"/>
			<point x="403" y="367" type="curve" smooth="yes"/>
			<point x="384" y="369"/>
			<point x="366" y="370"/>
			<point x="328" y="370" type="curve" smooth="yes"/>
			<point x="165" y="370"/>
			<point x="50" y="277"/>
			<point x="50" y="134" type="curve" smooth="yes"/>
			<point x="50" y="66"/>
			<point x="82" y="10"/>
		</contour>
		<contour>
			<point x="555" y="-16" type="curve" smooth="yes"/>
			<point x="691" y="-16"/>
			<point x="733" y="113"/>
			<point x="733" y="242" type="curve" smooth="yes"/>
			<point x="733" y="442"/>
			<point x="590" y="511"/>
			<point x="453" y="511" type="curve" smooth="yes"/>
			<point x="362" y="511"/>
			<point x="335" y="499"/>
			<point x="279" y="499" type="curve" smooth="yes"/>
			<point x="251" y="499"/>
			<point x="233" y="516"/>
			<point x="233" y="542" type="curve" smooth="yes"/>
			<point x="233" y="576"/>
			<point x="278" y="612"/>
			<point x="448" y="612" type="curve" smooth="yes"/>
			<point x="530" y="612"/>
			<point x="638" y="594"/>
			<point x="638" y="546" type="curve" smooth="yes"/>
			<point x="638" y="518"/>
			<point x="601" y="499"/>
			<point x="563" y="499" type="curve" smooth="yes"/>
			<point x="554" y="499"/>
			<point x="544" y="500"/>
			<point x="535" y="502" type="curve"/>
			<point x="549" y="451" type="line"/>
			<point x="573" y="450"/>
			<point x="576" y="450"/>
			<point x="580" y="450" type="curve" smooth="yes"/>
			<point x="613" y="450"/>
			<point x="668" y="492"/>
			<point x="668" y="548" type="curve" smooth="yes"/>
			<point x="668" y="621"/>
			<point x="598" y="685"/>
			<point x="433" y="685" type="curve" smooth="yes"/>
			<point x="302" y="685"/>
			<point x="200" y="620"/>
			<point x="200" y="521" type="curve" smooth="yes"/>
			<point x="200" y="480"/>
			<point x="225" y="438"/>
			<point x="298" y="438" type="curve" smooth="yes"/>
			<point x="349" y="438"/>
			<point x="377" y="450"/>
			<point x="455" y="450" type="curve" smooth="yes"/>
			<point x="573" y="450"/>
			<point x="690" y="402"/>
			<point x="690" y="243" type="curve" smooth="yes"/>
			<point x="690" y="130"/>
			<point x="644" y="65"/>
			<point x="549" y="65" type="curve" smooth="yes"/>
			<point x="518" y="65"/>
			<point x="468" y="80"/>
			<point x="468" y="142" type="curve" smooth="yes"/>
			<point x="468" y="147"/>
			<point x="468" y="152"/>
			<point x="469" y="158" type="curve"/>
			<point x="450" y="154" type="line"/>
			<point x="434" y="111"/>
			<point x="402" y="69"/>
			<point x="333" y="69" type="curve" smooth="yes"/>
			<point x="255" y="69"/>
			<point x="215" y="118"/>
			<point x="215" y="174" type="curve" smooth="yes"/>
			<point x="215" y="243"/>
			<point x="263" y="306"/>
			<point x="362" y="306" type="curve" smooth="yes"/>
			<point x="396" y="306"/>
			<point x="422" y="303"/>
			<point x="449" y="297" type="curve"/>
			<point x="460" y="310" type="line"/>
			<point x="458" y="332"/>
			<point x="456" y="343"/>
			<point x="446" y="362" type="curve"/>
			<point x="435" y="363"/>
			<point x="423" y="364"/>
			<point x="402" y="364" type="curve" smooth="yes"/>
			<point x="280" y="364"/>
			<point x="177" y="291"/>
			<point x="177" y="153" type="curve" smooth="yes"/>
			<point x="177" y="50"/>
			<point x="232" y="-15"/>
			<point x="330" y="-15" type="curve" smooth="yes"/>
			<point x="415" y="-15"/>
			<point x="451" y="48"/>
			<point x="456" y="83" type="curve"/>
			<point x="457" y="83"/>
			<point x="448" y="92"/>
			<point x="448" y="102" type="curve" smooth="yes"/>
			<point x="448" y="105" type="line"/>
			<point x="447" y="99"/>
			<point x="446" y="93"/>
			<point x="446" y="87" type="curve" smooth="yes"/>
			<point x="446" y="39"/>
			<point x="481" y="-16"/>
		</contour>
	</outline>
</glyph>
<glyph name="sinDDhU" format="2">
	<advance width="819"/>
	<outline>
		<contour>
			<point x="351" y="-215" type="curve" smooth="yes"/>
			<point x="744" y="-215" type="line"/>
			<point x="737" y="201" type="line"/>
			<point x="707" y="199" type="line"/>
			<point x="689" y="-143" type="line"/>
			<point x="588" y="-157"/>
			<point x="440" y="-170"/>
			<point x="349" y="-168" type="curve" smooth="yes"/>
			<point x="297" y="-167"/>
			<point x="275" y="-119"/>
			<point x="275" y="-92" type="curve"/>
			<point x="272" y="-91"/>
			<point x="269" y="-91"/>
			<point x="266" y="-91" type="curve" smooth="yes"/>
			<point x="243" y="-91"/>
			<point x="211" y="-105"/>
			<point x="201" y="-115" type="curve"/>
			<point x="209" y="-157"/>
			<point x="249" y="-215"/>
		</contour>
		<component base="sinDDha"/>
	</outline>
</glyph>
<glyph name="sinDDha" format="2">
	<advance width="809"/>
	<outline>
		<contour>
			<point x="117" y="-22" type="curve"/>
			<point x="136" y="-22"/>
			<point x="147" y="-18"/>
			<point x="151" y="-15" type="curve"/>
			<point x="128" y="12"/>
			<point x="114" y="63"/>
			<point x="114" y="121" type="curve" smooth="yes"/>
			<point x="114" y="230"/>
			<point x="143" y="331"/>
			<point x="308" y="331" type="curve" smooth="yes"/>
			<point x="323" y="331"/>
			<point x="338" y="330"/>
			<point x="354" y="327" type="curve"/>
			<point x="337" y="316" type="line"/>
			<point x="453" y="364" type="line"/>
			<point x="451" y="373" type="line"/>
			<point x="434" y="376"/>
			<point x="364" y="380"/>
			<point x="330" y="380" type="curve" smooth="yes"/>
			<point x="136" y="380"/>
			<point x="50" y="277"/>
			<point x="50" y="137" type="curve" smooth="yes"/>
			<point x="50" y="66"/>
			<point x="87" y="10"/>
		</contour>
		<contour>
			<point x="594" y="-16" type="curve" smooth="yes"/>
			<point x="706" y="-16"/>
			<point x="759" y="116"/>
			<point x="759" y="267" type="curve" smooth="yes"/>
			<point x="759" y="459"/>
			<point x="651" y="597"/>
			<point x="439" y="597" type="curve" smooth="yes"/>
			<point x="339" y="597"/>
			<point x="277" y="577"/>
			<point x="245" y="554" type="curve"/>
			<point x="236" y="539"/>
			<point x="231" y="517"/>
			<point x="231" y="499" type="curve" smooth="yes"/>
			<point x="231" y="491"/>
			<point x="232" y="484"/>
			<point x="234" y="479" type="curve"/>
			<point x="266" y="499"/>
			<point x="317" y="525"/>
			<point x="434" y="525" type="curve" smooth="yes"/>
			<point x="567" y="525"/>
			<point x="713" y="473"/>
			<point x="713" y="284" type="curve" smooth="yes"/>
			<point x="713" y="151"/>
			<point x="665" y="65"/>
			<point x="585" y="65" type="curve" smooth="yes"/>
			<point x="543" y="65"/>
			<point x="492" y="79"/>
			<point x="492" y="149" type="curve"/>
			<point x="493" y="158" type="line"/>
			<point x="474" y="154" type="line"/>
			<point x="456" y="108"/>
			<point x="427" y="69"/>
			<point x="358" y="69" type="curve" smooth="yes"/>
			<point x="287" y="69"/>
			<point x="229" y="111"/>
			<point x="229" y="192" type="curve" smooth="yes"/>
			<point x="229" y="262"/>
			<point x="274" y="320"/>
			<point x="392" y="320" type="curve" smooth="yes"/>
			<point x="416" y="320"/>
			<point x="442" y="317"/>
			<point x="469" y="311" type="curve"/>
			<point x="480" y="324" type="line"/>
			<point x="480" y="346"/>
			<point x="480" y="353"/>
			<point x="470" y="372" type="curve"/>
			<point x="459" y="373"/>
			<point x="447" y="374"/>
			<point x="434" y="374" type="curve" smooth="yes"/>
			<point x="295" y="374"/>
			<point x="191" y="309"/>
			<point x="191" y="172" type="curve" smooth="yes"/>
			<point x="191" y="50"/>
			<point x="265" y="-15"/>
			<point x="353" y="-15" type="curve" smooth="yes"/>
			<point x="439" y="-15"/>
			<point x="475" y="48"/>
			<point x="480" y="83" type="curve"/>
			<point x="472" y="105" type="line"/>
			<point x="471" y="99"/>
			<point x="470" y="93"/>
			<point x="470" y="85" type="curve" smooth="yes"/>
			<point x="470" y="29"/>
			<point x="519" y="-16"/>
		</contour>
	</outline>
</glyph>
<glyph name="sinDDha.reph" format="2">
	<advance width="809"/>
	<outline>
		<contour>
			<point x="439" y="566" type="line"/>
			<point x="475" y="585"/>
			<point x="502" y="621"/>
			<point x="502" y="678" type="curve" smooth="yes"/>
			<point x="502" y="763"/>
			<point x="436" y="824"/>
			<point x="345" y="824" type="curve" smooth="yes"/>
			<point x="249" y="824"/>
			<point x="196" y="755"/>
			<point x="196" y="683" type="curve" smooth="yes"/>
			<point x="196" y="630"/>
			<point x="232" y="587"/>
			<point x="289" y="587" type="curve" smooth="yes"/>
			<point x="337" y="587"/>
			<point x="362" y="619"/>
			<point x="362" y="655" type="curve" smooth="yes"/>
			<point x="362" y="698"/>
			<point x="330" y="730"/>
			<point x="293" y="730" type="curve" smooth="yes"/>
			<point x="249" y="730"/>
			<point x="231" y="691"/>
			<point x="221" y="681" type="curve"/>
			<point x="230" y="668" type="line"/>
			<point x="245" y="677"/>
			<point x="258" y="687"/>
			<point x="290" y="687" type="curve" smooth="yes"/>
			<point x="313" y="687"/>
			<point x="337" y="676"/>
			<point x="337" y="657" type="curve" smooth="yes"/>
			<point x="337" y="633"/>
			<point x="312" y="627"/>
			<point x="293" y="627" type="curve" smooth="yes"/>
			<point x="256" y="627"/>
			<point x="236" y="652"/>
			<point x="236" y="694" type="curve" smooth="yes"/>
			<point x="236" y="743"/>
			<point x="295" y="763"/>
			<point x="345" y="763" type="curve" smooth="yes"/>
			<point x="377" y="763"/>
			<point x="470" y="748"/>
			<point x="470" y="676" type="curve" smooth="yes"/>
			<point x="470" y="636"/>
			<point x="458" y="610"/>
			<point x="421" y="595" type="curve"/>
		</contour>
		<component base="sinDDha"/>
	</outline>
</glyph>
<glyph name="sinDU" format="2">
	<advance width="480"/>
	<outline>
		<contour>
			<point x="239" y="-26" type="curve" smooth="yes"/>
			<point x="312" y="-26"/>
			<point x="362" y="2"/>
			<point x="394" y="16" type="curve"/>
			<point x="402" y="33"/>
			<point x="407" y="62"/>
			<point x="407" y="91" type="curve"/>
			<point x="399" y="101" type="line"/>
			<point x="353" y="67"/>
			<point x="298" y="50"/>
			<point x="236" y="50" type="curve" smooth="yes"/>
			<point x="140" y="50"/>
			<point x="91" y="79"/>
			<point x="91" y="129" type="curve" smooth="yes"/>
			<point x="91" y="194"/>
			<point x="158" y="257"/>
			<point x="295" y="257" type="curve" smooth="yes"/>
			<point x="317" y="257"/>
			<point x="366" y="254"/>
			<point x="392" y="250" type="curve"/>
			<point x="406" y="268" type="line"/>
			<point x="411" y="353"/>
			<point x="358" y="462"/>
			<point x="246" y="462" type="curve" smooth="yes"/>
			<point x="172" y="462"/>
			<point x="120" y="424"/>
			<point x="120" y="370" type="curve" smooth="yes"/>
			<point x="120" y="342"/>
			<point x="141" y="326"/>
			<point x="174" y="326" type="curve" smooth="yes"/>
			<point x="184" y="326"/>
			<point x="194" y="328"/>
			<point x="206" y="330" type="curve"/>
			<point x="204" y="337"/>
			<point x="204" y="343"/>
			<point x="204" y="350" type="curve" smooth="yes"/>
			<point x="204" y="391"/>
			<point x="239" y="413"/>
			<point x="274" y="413" type="curve" smooth="yes"/>
			<point x="324" y="413"/>
			<point x="343" y="367"/>
			<point x="347" y="316" type="curve"/>
			<point x="335" y="319"/>
			<point x="323" y="320"/>
			<point x="298" y="320" type="curve" smooth="yes"/>
			<point x="150" y="320"/>
			<point x="52" y="236"/>
			<point x="52" y="126" type="curve" smooth="yes"/>
			<point x="52" y="39"/>
			<point x="124" y="-26"/>
		</contour>
		<contour>
			<point x="437" y="-240" type="line"/>
			<point x="429" y="73" type="line"/>
			<point x="399" y="101" type="line"/>
			<point x="382" y="-173" type="line"/>
			<point x="332" y="-184"/>
			<point x="289" y="-199"/>
			<point x="207" y="-198" type="curve" smooth="yes"/>
			<point x="146" y="-197"/>
			<point x="114" y="-146"/>
			<point x="114" y="-119" type="curve"/>
			<point x="111" y="-118"/>
			<point x="108" y="-118"/>
			<point x="105" y="-118" type="curve" smooth="yes"/>
			<point x="82" y="-118"/>
			<point x="50" y="-132"/>
			<point x="40" y="-142" type="curve"/>
			<point x="48" y="-184"/>
			<point x="88" y="-243"/>
			<point x="190" y="-242" type="curve" smooth="yes"/>
		</contour>
	</outline>
</glyph>
<glyph name="sinDUu" format="2">
	<advance width="445"/>
	<outline>
		<contour>
			<point x="227" y="-26" type="curve" smooth="yes"/>
			<point x="300" y="-26"/>
			<point x="350" y="2"/>
			<point x="382" y="16" type="curve"/>
			<point x="390" y="33"/>
			<point x="395" y="62"/>
			<point x="395" y="91" type="curve"/>
			<point x="387" y="101" type="line"/>
			<point x="341" y="67"/>
			<point x="286" y="50"/>
			<point x="224" y="50" type="curve" smooth="yes"/>
			<point x="128" y="50"/>
			<point x="79" y="79"/>
			<point x="79" y="129" type="curve" smooth="yes"/>
			<point x="79" y="194"/>
			<point x="146" y="257"/>
			<point x="283" y="257" type="curve" smooth="yes"/>
			<point x="305" y="257"/>
			<point x="354" y="254"/>
			<point x="380" y="250" type="curve"/>
			<point x="394" y="268" type="line"/>
			<point x="399" y="353"/>
			<point x="346" y="462"/>
			<point x="234" y="462" type="curve" smooth="yes"/>
			<point x="160" y="462"/>
			<point x="108" y="424"/>
			<point x="108" y="370" type="curve" smooth="yes"/>
			<point x="108" y="342"/>
			<point x="129" y="326"/>
			<point x="162" y="326" type="curve" smooth="yes"/>
			<point x="172" y="326"/>
			<point x="182" y="328"/>
			<point x="194" y="330" type="curve"/>
			<point x="192" y="337"/>
			<point x="192" y="343"/>
			<point x="192" y="350" type="curve" smooth="yes"/>
			<point x="192" y="391"/>
			<point x="227" y="413"/>
			<point x="262" y="413" type="curve" smooth="yes"/>
			<point x="312" y="413"/>
			<point x="331" y="367"/>
			<point x="335" y="316" type="curve"/>
			<point x="323" y="319"/>
			<point x="311" y="320"/>
			<point x="286" y="320" type="curve" smooth="yes"/>
			<point x="138" y="320"/>
			<point x="40" y="236"/>
			<point x="40" y="126" type="curve" smooth="yes"/>
			<point x="40" y="39"/>
			<point x="112" y="-26"/>
		</contour>
		<contour>
			<point x="211" y="-219"/>
			<point x="211" y="-189"/>
			<point x="286" y="-189" type="curve" smooth="yes"/>
			<point x="320" y="-189"/>
			<point x="356" y="-202"/>
			<point x="396" y="-225" type="curve"/>
			<point x="418" y="-211" type="line"/>
			<point x="418" y="72" type="line"/>
			<point x="387" y="101" type="line"/>
			<point x="370" y="-175" type="line"/>
			<point x="395" y="-183" type="line"/>
			<point x="372" y="-152"/>
			<point x="330" y="-122"/>
			<point x="283" y="-122" type="curve" smooth="yes"/>
			<point x="222" y="-122"/>
			<point x="206" y="-172"/>
			<point x="154" y="-172" type="curve" smooth="yes"/>
			<point x="122" y="-172"/>
			<point x="89" y="-155"/>
			<point x="89" y="-108" type="curve"/>
			<point x="68" y="-101"/>
			<point x="38" y="-98"/>
			<point x="19" y="-108" type="curve"/>
			<point x="19" y="-149"/>
			<point x="51" y="-219"/>
			<point x="146" y="-219" type="curve" smooth="yes"/>
		</contour>
	</outline>
	<anchor name="Virama" x="342" y="407"/>
</glyph>
<glyph name="sinDV.virama" format="2">
	<advance width="738"/>
	<outline>
		<contour>
			<point x="110" y="49" type="curve"/>
			<point x="121" y="49"/>
			<point x="137" y="51"/>
			<point x="144" y="56" type="curve"/>
			<point x="133" y="81"/>
			<point x="103" y="154"/>
			<point x="103" y="207" type="curve" smooth="yes"/>
			<point x="103" y="300"/>
			<point x="141" y="391"/>
			<point x="267" y="398" type="curve"/>
			<point x="304" y="437" type="line"/>
			<point x="140" y="437"/>
			<point x="50" y="334"/>
			<point x="50" y="223" type="curve" smooth="yes"/>
			<point x="50" y="133"/>
			<point x="90" y="81"/>
		</contour>
		<component base="sinV.virama" xOffset="134"/>
	</outline>
</glyph>
<glyph name="sinDVI" format="2">
	<advance width="758"/>
	<outline>
		<contour>
			<point x="132" y="-6" type="curve"/>
			<point x="151" y="-6"/>
			<point x="162" y="-2"/>
			<point x="166" y="1" type="curve"/>
			<point x="143" y="28"/>
			<point x="126" y="79"/>
			<point x="126" y="154" type="curve" smooth="yes"/>
			<point x="126" y="278"/>
			<point x="196" y="356"/>
			<point x="288" y="356" type="curve" smooth="yes"/>
			<point x="303" y="356"/>
			<point x="318" y="355"/>
			<point x="334" y="352" type="curve"/>
			<point x="317" y="341" type="line"/>
			<point x="336" y="405" type="line"/>
			<point x="175" y="405"/>
			<point x="70" y="320"/>
			<point x="70" y="154" type="curve" smooth="yes"/>
			<point x="70" y="82"/>
			<point x="102" y="26"/>
		</contour>
		<component base="sinVI" xOffset="149"/>
	</outline>
</glyph>
<glyph name="sinDVIi" format="2">
	<advance width="719"/>
	<outline>
		<contour>
			<point x="112" y="-6" type="curve"/>
			<point x="131" y="-6"/>
			<point x="142" y="-2"/>
			<point x="146" y="1" type="curve"/>
			<point x="123" y="28"/>
			<point x="106" y="79"/>
			<point x="106" y="154" type="curve" smooth="yes"/>
			<point x="106" y="277"/>
			<point x="176" y="351"/>
			<point x="268" y="351" type="curve" smooth="yes"/>
			<point x="283" y="351"/>
			<point x="298" y="350"/>
			<point x="314" y="347" type="curve"/>
			<point x="297" y="336" type="line"/>
			<point x="316" y="400" type="line"/>
			<point x="155" y="400"/>
			<point x="50" y="320"/>
			<point x="50" y="154" type="curve" smooth="yes"/>
			<point x="50" y="82"/>
			<point x="82" y="26"/>
		</contour>
		<component base="sinVIi" xOffset="130"/>
	</outline>
</glyph>
<glyph name="sinDd.virama" format="2">
	<advance width="696"/>
	<outline>
		<contour>
			<point x="629" y="370" type="line"/>
			<point x="629" y="513"/>
			<point x="594" y="719"/>
			<point x="333" y="719" type="curve" smooth="yes"/>
			<point x="241" y="719"/>
			<point x="169" y="684"/>
			<point x="169" y="684" type="curve"/>
			<point x="156" y="660"/>
			<point x="153" y="634"/>
			<point x="152" y="624" type="curve"/>
			<point x="174" y="639"/>
			<point x="204" y="641"/>
			<point x="231" y="651" type="curve"/>
			<point x="253" y="681" type="line"/>
			<point x="239" y="671"/>
			<point x="203" y="636"/>
			<point x="172" y="567" type="curve"/>
			<point x="212" y="562" type="line"/>
			<point x="230" y="611"/>
			<point x="273" y="664"/>
			<point x="306" y="669" type="curve"/>
			<point x="284" y="670"/>
			<point x="262" y="671"/>
			<point x="236" y="651" type="curve"/>
			<point x="236" y="651"/>
			<point x="249" y="661"/>
			<point x="312" y="661" type="curve" smooth="yes"/>
			<point x="594" y="661"/>
			<point x="593" y="480"/>
			<point x="591" y="432" type="curve"/>
		</contour>
		<component base="sinDda"/>
	</outline>
</glyph>
<glyph name="sinDdhU" format="2">
	<advance width="690"/>
	<outline>
		<contour>
			<point x="647" y="-215" type="line"/>
			<point x="640" y="201" type="line"/>
			<point x="610" y="199" type="line"/>
			<point x="592" y="-143" type="line"/>
			<point x="491" y="-157"/>
			<point x="358" y="-170"/>
			<point x="267" y="-168" type="curve" smooth="yes"/>
			<point x="215" y="-167"/>
			<point x="193" y="-119"/>
			<point x="193" y="-92" type="curve"/>
			<point x="171" y="-87"/>
			<point x="130" y="-103"/>
			<point x="119" y="-115" type="curve"/>
			<point x="127" y="-157"/>
			<point x="167" y="-215"/>
			<point x="269" y="-215" type="curve" smooth="yes"/>
		</contour>
		<component base="sinDdha"/>
	</outline>
</glyph>
<glyph name="sinDh.virama" format="2">
	<advance width="636"/>
	<outline>
		<contour>
			<point x="427" y="-16" type="curve" smooth="yes"/>
			<point x="539" y="-16"/>
			<point x="592" y="116"/>
			<point x="592" y="247" type="curve" smooth="yes"/>
			<point x="592" y="439"/>
			<point x="464" y="577"/>
			<point x="252" y="577" type="curve" smooth="yes"/>
			<point x="202" y="577"/>
			<point x="148" y="567"/>
			<point x="118" y="554" type="curve"/>
			<point x="109" y="539"/>
			<point x="104" y="517"/>
			<point x="104" y="499" type="curve" smooth="yes"/>
			<point x="104" y="491"/>
			<point x="105" y="484"/>
			<point x="107" y="479" type="curve"/>
			<point x="127" y="489"/>
			<point x="180" y="505"/>
			<point x="247" y="505" type="curve" smooth="yes"/>
			<point x="390" y="505"/>
			<point x="546" y="453"/>
			<point x="546" y="264" type="curve" smooth="yes"/>
			<point x="546" y="151"/>
			<point x="498" y="65"/>
			<point x="418" y="65" type="curve" smooth="yes"/>
			<point x="386" y="65"/>
			<point x="335" y="79"/>
			<point x="335" y="149" type="curve"/>
			<point x="336" y="158" type="line"/>
			<point x="317" y="154" type="line"/>
			<point x="299" y="108"/>
			<point x="270" y="69"/>
			<point x="201" y="69" type="curve" smooth="yes"/>
			<point x="130" y="69"/>
			<point x="82" y="111"/>
			<point x="82" y="172" type="curve" smooth="yes"/>
			<point x="82" y="242"/>
			<point x="147" y="291"/>
			<point x="245" y="291" type="curve" smooth="yes"/>
			<point x="269" y="291"/>
			<point x="295" y="288"/>
			<point x="322" y="282" type="curve"/>
			<point x="333" y="295" type="line"/>
			<point x="331" y="317"/>
			<point x="323" y="343"/>
			<point x="313" y="362" type="curve"/>
			<point x="302" y="363"/>
			<point x="290" y="364"/>
			<point x="277" y="364" type="curve" smooth="yes"/>
			<point x="158" y="364"/>
			<point x="44" y="289"/>
			<point x="44" y="152" type="curve" smooth="yes"/>
			<point x="44" y="50"/>
			<point x="108" y="-15"/>
			<point x="196" y="-15" type="curve" smooth="yes"/>
			<point x="282" y="-15"/>
			<point x="318" y="48"/>
			<point x="323" y="83" type="curve"/>
			<point x="315" y="105" type="line"/>
			<point x="314" y="99"/>
			<point x="313" y="93"/>
			<point x="313" y="85" type="curve" smooth="yes"/>
			<point x="313" y="29"/>
			<point x="362" y="-16"/>
		</contour>
		<contour>
			<point x="572" y="339" type="line"/>
			<point x="572" y="482"/>
			<point x="537" y="684"/>
			<point x="296" y="684" type="curve" smooth="yes"/>
			<point x="215" y="684"/>
			<point x="143" y="652"/>
			<point x="143" y="652" type="curve"/>
			<point x="130" y="628"/>
			<point x="126" y="602"/>
			<point x="125" y="592" type="curve"/>
			<point x="147" y="607"/>
			<point x="177" y="615"/>
			<point x="204" y="620" type="curve"/>
			<point x="232" y="650" type="line"/>
			<point x="198" y="640"/>
			<point x="147" y="578"/>
			<point x="147" y="526" type="curve"/>
			<point x="175" y="511" type="line"/>
			<point x="175" y="565"/>
			<point x="246" y="633"/>
			<point x="280" y="638" type="curve"/>
			<point x="209" y="621" type="line"/>
			<point x="209" y="621"/>
			<point x="223" y="630"/>
			<point x="285" y="630" type="curve" smooth="yes"/>
			<point x="507" y="630"/>
			<point x="536" y="449"/>
			<point x="535" y="401" type="curve"/>
		</contour>
	</outline>
</glyph>
<glyph name="sinDhI" format="2">
	<advance width="644"/>
	<outline>
		<contour>
			<point x="422" y="-16" type="curve" smooth="yes"/>
			<point x="558" y="-16"/>
			<point x="600" y="113"/>
			<point x="600" y="242" type="curve" smooth="yes"/>
			<point x="600" y="442"/>
			<point x="457" y="511"/>
			<point x="320" y="511" type="curve" smooth="yes"/>
			<point x="229" y="511"/>
			<point x="202" y="499"/>
			<point x="146" y="499" type="curve" smooth="yes"/>
			<point x="118" y="499"/>
			<point x="100" y="516"/>
			<point x="100" y="542" type="curve" smooth="yes"/>
			<point x="100" y="576"/>
			<point x="145" y="612"/>
			<point x="315" y="612" type="curve" smooth="yes"/>
			<point x="397" y="612"/>
			<point x="505" y="594"/>
			<point x="505" y="546" type="curve" smooth="yes"/>
			<point x="505" y="518"/>
			<point x="468" y="499"/>
			<point x="430" y="499" type="curve" smooth="yes"/>
			<point x="421" y="499"/>
			<point x="411" y="500"/>
			<point x="402" y="502" type="curve"/>
			<point x="416" y="451" type="line"/>
			<point x="440" y="450"/>
			<point x="443" y="450"/>
			<point x="447" y="450" type="curve" smooth="yes"/>
			<point x="480" y="450"/>
			<point x="535" y="492"/>
			<point x="535" y="548" type="curve" smooth="yes"/>
			<point x="535" y="621"/>
			<point x="465" y="685"/>
			<point x="300" y="685" type="curve" smooth="yes"/>
			<point x="169" y="685"/>
			<point x="67" y="620"/>
			<point x="67" y="521" type="curve" smooth="yes"/>
			<point x="67" y="480"/>
			<point x="92" y="438"/>
			<point x="165" y="438" type="curve" smooth="yes"/>
			<point x="216" y="438"/>
			<point x="244" y="450"/>
			<point x="322" y="450" type="curve" smooth="yes"/>
			<point x="440" y="450"/>
			<point x="557" y="402"/>
			<point x="557" y="243" type="curve" smooth="yes"/>
			<point x="557" y="130"/>
			<point x="511" y="65"/>
			<point x="416" y="65" type="curve" smooth="yes"/>
			<point x="385" y="65"/>
			<point x="335" y="80"/>
			<point x="335" y="142" type="curve" smooth="yes"/>
			<point x="335" y="147"/>
			<point x="335" y="152"/>
			<point x="336" y="158" type="curve"/>
			<point x="317" y="154" type="line"/>
			<point x="301" y="111"/>
			<point x="269" y="69"/>
			<point x="200" y="69" type="curve" smooth="yes"/>
			<point x="122" y="69"/>
			<point x="82" y="118"/>
			<point x="82" y="174" type="curve" smooth="yes"/>
			<point x="82" y="243"/>
			<point x="136" y="291"/>
			<point x="235" y="291" type="curve" smooth="yes"/>
			<point x="269" y="291"/>
			<point x="295" y="288"/>
			<point x="322" y="282" type="curve"/>
			<point x="333" y="295" type="line"/>
			<point x="331" y="317"/>
			<point x="323" y="343"/>
			<point x="313" y="362" type="curve"/>
			<point x="302" y="363"/>
			<point x="290" y="364"/>
			<point x="269" y="364" type="curve" smooth="yes"/>
			<point x="147" y="364"/>
			<point x="44" y="291"/>
			<point x="44" y="153" type="curve" smooth="yes"/>
			<point x="44" y="50"/>
			<point x="99" y="-15"/>
			<point x="197" y="-15" type="curve" smooth="yes"/>
			<point x="282" y="-15"/>
			<point x="318" y="48"/>
			<point x="323" y="83" type="curve"/>
			<point x="324" y="83"/>
			<point x="315" y="92"/>
			<point x="315" y="102" type="curve" smooth="yes"/>
			<point x="315" y="105" type="line"/>
			<point x="314" y="99"/>
			<point x="313" y="93"/>
			<point x="313" y="87" type="curve" smooth="yes"/>
			<point x="313" y="39"/>
			<point x="348" y="-16"/>
		</contour>
	</outline>
</glyph>
<glyph name="sinFRI" format="2">
	<advance width="705"/>
	<outline>
		<contour>
			<point x="224" y="404" type="curve"/>
			<point x="237" y="438" type="line"/>
			<point x="209" y="442"/>
			<point x="168" y="464"/>
			<point x="168" y="504" type="curve" smooth="yes"/>
			<point x="168" y="562"/>
			<point x="260" y="586"/>
			<point x="360" y="586" type="curve" smooth="yes"/>
			<point x="438" y="586"/>
			<point x="557" y="574"/>
			<point x="557" y="511" type="curve" smooth="yes"/>
			<point x="557" y="471"/>
			<point x="514" y="452"/>
			<point x="459" y="432" type="curve"/>
			<point x="485" y="404" type="line"/>
			<point x="549" y="407"/>
			<point x="592" y="448"/>
			<point x="592" y="513" type="curve" smooth="yes"/>
			<point x="592" y="598"/>
			<point x="517" y="666"/>
			<point x="372" y="666" type="curve" smooth="yes"/>
			<point x="253" y="666"/>
			<point x="133" y="607"/>
			<point x="133" y="502" type="curve" smooth="yes"/>
			<point x="133" y="440"/>
			<point x="178" y="404"/>
		</contour>
		<component base="sinFRa"/>
	</outline>
</glyph>
<glyph name="sinFRIi" format="2">
	<advance width="674"/>
	<outline>
		<contour>
			<point x="175" y="662"/>
			<point x="119" y="569"/>
			<point x="119" y="499" type="curve" smooth="yes"/>
			<point x="119" y="421"/>
			<point x="187" y="374"/>
			<point x="219" y="374" type="curve"/>
			<point x="232" y="440" type="line"/>
			<point x="201" y="435"/>
			<point x="154" y="456"/>
			<point x="154" y="496" type="curve" smooth="yes"/>
			<point x="154" y="555"/>
			<point x="225" y="580"/>
			<point x="330" y="581" type="curve" smooth="yes"/>
			<point x="483" y="582"/>
			<point x="551" y="530"/>
			<point x="551" y="484" type="curve" smooth="yes"/>
			<point x="551" y="456"/>
			<point x="537" y="440"/>
			<point x="513" y="440" type="curve" smooth="yes"/>
			<point x="493" y="440"/>
			<point x="473" y="457"/>
			<point x="473" y="488" type="curve" smooth="yes"/>
			<point x="473" y="515"/>
			<point x="486" y="538"/>
			<point x="508" y="559" type="curve"/>
			<point x="489" y="568" type="line"/>
			<point x="463" y="554"/>
			<point x="427" y="525"/>
			<point x="426" y="478" type="curve" smooth="yes"/>
			<point x="425" y="428"/>
			<point x="457" y="398"/>
			<point x="505" y="398" type="curve" smooth="yes"/>
			<point x="542" y="398"/>
			<point x="582" y="429"/>
			<point x="582" y="491" type="curve" smooth="yes"/>
			<point x="582" y="567"/>
			<point x="517" y="658"/>
			<point x="353" y="660" type="curve" smooth="yes"/>
		</contour>
		<contour>
			<point x="610" y="-231"/>
			<point x="685" y="16"/>
			<point x="650" y="273" type="curve"/>
			<point x="617" y="221" type="line"/>
			<point x="616" y="6"/>
			<point x="595" y="-147"/>
			<point x="358" y="-157" type="curve" smooth="yes"/>
			<point x="184" y="-164"/>
			<point x="79" y="-86"/>
			<point x="79" y="-99" type="curve"/>
			<point x="70" y="-102"/>
			<point x="62" y="-108"/>
			<point x="57" y="-115" type="curve"/>
			<point x="61" y="-135"/>
			<point x="175" y="-243"/>
			<point x="360" y="-238" type="curve" smooth="yes"/>
		</contour>
		<component base="sinFa"/>
	</outline>
</glyph>
<glyph name="sinFa.reph" format="2">
	<advance width="688"/>
	<outline>
		<contour>
			<point x="449" y="389" type="line"/>
			<point x="485" y="408"/>
			<point x="512" y="444"/>
			<point x="512" y="501" type="curve" smooth="yes"/>
			<point x="512" y="586"/>
			<point x="446" y="647"/>
			<point x="355" y="647" type="curve" smooth="yes"/>
			<point x="259" y="647"/>
			<point x="206" y="578"/>
			<point x="206" y="506" type="curve" smooth="yes"/>
			<point x="206" y="453"/>
			<point x="242" y="410"/>
			<point x="299" y="410" type="curve" smooth="yes"/>
			<point x="347" y="410"/>
			<point x="372" y="442"/>
			<point x="372" y="478" type="curve" smooth="yes"/>
			<point x="372" y="521"/>
			<point x="340" y="553"/>
			<point x="303" y="553" type="curve" smooth="yes"/>
			<point x="259" y="553"/>
			<point x="241" y="514"/>
			<point x="231" y="504" type="curve"/>
			<point x="240" y="491" type="line"/>
			<point x="255" y="500"/>
			<point x="268" y="510"/>
			<point x="300" y="510" type="curve" smooth="yes"/>
			<point x="323" y="510"/>
			<point x="347" y="499"/>
			<point x="347" y="480" type="curve" smooth="yes"/>
			<point x="347" y="456"/>
			<point x="322" y="450"/>
			<point x="303" y="450" type="curve" smooth="yes"/>
			<point x="266" y="450"/>
			<point x="246" y="475"/>
			<point x="246" y="517" type="curve" smooth="yes"/>
			<point x="246" y="566"/>
			<point x="305" y="586"/>
			<point x="355" y="586" type="curve" smooth="yes"/>
			<point x="387" y="586"/>
			<point x="480" y="571"/>
			<point x="480" y="499" type="curve" smooth="yes"/>
			<point x="480" y="459"/>
			<point x="468" y="433"/>
			<point x="431" y="418" type="curve"/>
		</contour>
		<component base="sinFa"/>
	</outline>
</glyph>
<glyph name="sinGDha" format="2">
	<advance width="1037"/>
	<outline>
		<contour>
			<point x="248" y="-9" type="curve" smooth="yes"/>
			<point x="372" y="-9"/>
			<point x="439" y="79"/>
			<point x="439" y="173" type="curve" smooth="yes"/>
			<point x="439" y="247"/>
			<point x="388" y="302"/>
			<point x="323" y="301" type="curve"/>
			<point x="319" y="249" type="line"/>
			<point x="349" y="248"/>
			<point x="405" y="230"/>
			<point x="405" y="180" type="curve" smooth="yes"/>
			<point x="405" y="113"/>
			<point x="320" y="80"/>
			<point x="252" y="80" type="curve" smooth="yes"/>
			<point x="155" y="80"/>
			<point x="80" y="130"/>
			<point x="80" y="215" type="curve" smooth="yes"/>
			<point x="80" y="297"/>
			<point x="142" y="356"/>
			<point x="251" y="356" type="curve"/>
			<point x="256" y="363"/>
			<point x="261" y="408"/>
			<point x="261" y="432" type="curve" smooth="yes"/>
			<point x="261" y="438"/>
			<point x="261" y="444"/>
			<point x="260" y="447" type="curve"/>
			<point x="154" y="446"/>
			<point x="44" y="357"/>
			<point x="44" y="194" type="curve" smooth="yes"/>
			<point x="44" y="71"/>
			<point x="124" y="-9"/>
		</contour>
		<contour>
			<point x="688" y="381" type="line"/>
			<point x="647" y="427"/>
			<point x="601" y="453"/>
			<point x="524" y="453" type="curve" smooth="yes"/>
			<point x="378" y="453"/>
			<point x="293" y="333"/>
			<point x="288" y="170" type="curve"/>
			<point x="293" y="169"/>
			<point x="297" y="169"/>
			<point x="302" y="169" type="curve" smooth="yes"/>
			<point x="309" y="169"/>
			<point x="316" y="169"/>
			<point x="324" y="170" type="curve"/>
			<point x="322" y="177"/>
			<point x="321" y="190"/>
			<point x="321" y="197" type="curve" smooth="yes"/>
			<point x="321" y="305"/>
			<point x="392" y="393"/>
			<point x="515" y="393" type="curve" smooth="yes"/>
			<point x="591" y="393"/>
			<point x="629" y="373"/>
			<point x="659" y="344" type="curve"/>
		</contour>
		<contour>
			<point x="812" y="-16" type="curve" smooth="yes"/>
			<point x="924" y="-16"/>
			<point x="977" y="116"/>
			<point x="977" y="267" type="curve" smooth="yes"/>
			<point x="977" y="459"/>
			<point x="869" y="597"/>
			<point x="657" y="597" type="curve" smooth="yes"/>
			<point x="557" y="597"/>
			<point x="495" y="577"/>
			<point x="463" y="554" type="curve"/>
			<point x="454" y="539"/>
			<point x="449" y="517"/>
			<point x="449" y="499" type="curve" smooth="yes"/>
			<point x="449" y="491"/>
			<point x="450" y="484"/>
			<point x="452" y="479" type="curve"/>
			<point x="484" y="499"/>
			<point x="535" y="525"/>
			<point x="652" y="525" type="curve" smooth="yes"/>
			<point x="785" y="525"/>
			<point x="931" y="473"/>
			<point x="931" y="284" type="curve" smooth="yes"/>
			<point x="931" y="151"/>
			<point x="883" y="65"/>
			<point x="803" y="65" type="curve" smooth="yes"/>
			<point x="761" y="65"/>
			<point x="710" y="79"/>
			<point x="710" y="149" type="curve"/>
			<point x="711" y="158" type="line"/>
			<point x="692" y="154" type="line"/>
			<point x="674" y="108"/>
			<point x="645" y="69"/>
			<point x="576" y="69" type="curve" smooth="yes"/>
			<point x="505" y="69"/>
			<point x="447" y="111"/>
			<point x="447" y="192" type="curve" smooth="yes"/>
			<point x="447" y="262"/>
			<point x="503" y="328"/>
			<point x="621" y="328" type="curve" smooth="yes"/>
			<point x="645" y="328"/>
			<point x="667" y="325"/>
			<point x="691" y="319" type="curve"/>
			<point x="702" y="332" type="line"/>
			<point x="700" y="354"/>
			<point x="698" y="368"/>
			<point x="688" y="381" type="curve"/>
			<point x="677" y="382"/>
			<point x="665" y="383"/>
			<point x="652" y="384" type="curve" smooth="yes"/>
			<point x="513" y="391"/>
			<point x="409" y="309"/>
			<point x="409" y="172" type="curve" smooth="yes"/>
			<point x="409" y="50"/>
			<point x="483" y="-15"/>
			<point x="571" y="-15" type="curve" smooth="yes"/>
			<point x="657" y="-15"/>
			<point x="693" y="48"/>
			<point x="698" y="83" type="curve"/>
			<point x="690" y="105" type="line"/>
			<point x="689" y="99"/>
			<point x="688" y="93"/>
			<point x="688" y="85" type="curve" smooth="yes"/>
			<point x="688" y="29"/>
			<point x="737" y="-16"/>
		</contour>
	</outline>
</glyph>
<glyph name="sinHa.reph" format="2">
	<advance width="751"/>
	<outline>
		<contour>
			<point x="489" y="417" type="line"/>
			<point x="525" y="436"/>
			<point x="552" y="472"/>
			<point x="552" y="529" type="curve" smooth="yes"/>
			<point x="552" y="614"/>
			<point x="486" y="675"/>
			<point x="395" y="675" type="curve" smooth="yes"/>
			<point x="299" y="675"/>
			<point x="246" y="606"/>
			<point x="246" y="534" type="curve" smooth="yes"/>
			<point x="246" y="481"/>
			<point x="282" y="438"/>
			<point x="339" y="438" type="curve" smooth="yes"/>
			<point x="387" y="438"/>
			<point x="412" y="470"/>
			<point x="412" y="506" type="curve" smooth="yes"/>
			<point x="412" y="549"/>
			<point x="380" y="581"/>
			<point x="343" y="581" type="curve" smooth="yes"/>
			<point x="299" y="581"/>
			<point x="281" y="542"/>
			<point x="271" y="532" type="curve"/>
			<point x="280" y="519" type="line"/>
			<point x="295" y="528"/>
			<point x="308" y="538"/>
			<point x="340" y="538" type="curve" smooth="yes"/>
			<point x="363" y="538"/>
			<point x="387" y="527"/>
			<point x="387" y="508" type="curve" smooth="yes"/>
			<point x="387" y="484"/>
			<point x="362" y="478"/>
			<point x="343" y="478" type="curve" smooth="yes"/>
			<point x="306" y="478"/>
			<point x="286" y="503"/>
			<point x="286" y="545" type="curve" smooth="yes"/>
			<point x="286" y="594"/>
			<point x="345" y="614"/>
			<point x="395" y="614" type="curve" smooth="yes"/>
			<point x="427" y="614"/>
			<point x="520" y="599"/>
			<point x="520" y="527" type="curve" smooth="yes"/>
			<point x="520" y="487"/>
			<point x="508" y="461"/>
			<point x="471" y="446" type="curve"/>
		</contour>
		<component base="sinHa"/>
	</outline>
</glyph>
<glyph name="sinJa.reph" format="2">
	<advance width="642"/>
	<outline>
		<contour>
			<point x="466" y="460" type="line"/>
			<point x="488" y="481"/>
			<point x="503" y="510"/>
			<point x="506" y="550" type="curve" smooth="yes"/>
			<point x="513" y="655"/>
			<point x="445" y="716"/>
			<point x="354" y="716" type="curve" smooth="yes"/>
			<point x="258" y="716"/>
			<point x="205" y="647"/>
			<point x="205" y="575" type="curve" smooth="yes"/>
			<point x="205" y="522"/>
			<point x="241" y="479"/>
			<point x="298" y="479" type="curve" smooth="yes"/>
			<point x="346" y="479"/>
			<point x="371" y="511"/>
			<point x="371" y="547" type="curve" smooth="yes"/>
			<point x="371" y="590"/>
			<point x="339" y="622"/>
			<point x="302" y="622" type="curve" smooth="yes"/>
			<point x="258" y="622"/>
			<point x="240" y="583"/>
			<point x="230" y="573" type="curve"/>
			<point x="239" y="560" type="line"/>
			<point x="254" y="569"/>
			<point x="267" y="579"/>
			<point x="299" y="579" type="curve" smooth="yes"/>
			<point x="322" y="579"/>
			<point x="346" y="568"/>
			<point x="346" y="549" type="curve" smooth="yes"/>
			<point x="346" y="525"/>
			<point x="321" y="519"/>
			<point x="302" y="519" type="curve" smooth="yes"/>
			<point x="265" y="519"/>
			<point x="245" y="544"/>
			<point x="245" y="586" type="curve" smooth="yes"/>
			<point x="245" y="635"/>
			<point x="304" y="655"/>
			<point x="354" y="655" type="curve" smooth="yes"/>
			<point x="386" y="655"/>
			<point x="481" y="640"/>
			<point x="473" y="538" type="curve" smooth="yes"/>
			<point x="471" y="519"/>
			<point x="464" y="485"/>
			<point x="452" y="470" type="curve"/>
		</contour>
		<component base="sinJa"/>
	</outline>
</glyph>
<glyph name="sinJh.virama" format="2">
	<advance width="1089"/>
	<outline>
		<contour>
			<point x="215" y="-6" type="curve" smooth="yes"/>
			<point x="260" y="-6"/>
			<point x="295" y="21"/>
			<point x="311" y="62" type="curve"/>
			<point x="323" y="18"/>
			<point x="358" y="-6"/>
			<point x="406" y="-6" type="curve" smooth="yes"/>
			<point x="493" y="-6"/>
			<point x="533" y="95"/>
			<point x="533" y="168" type="curve" smooth="yes"/>
			<point x="533" y="255"/>
			<point x="488" y="319"/>
			<point x="411" y="319" type="curve" smooth="yes"/>
			<point x="324" y="319"/>
			<point x="225" y="253"/>
			<point x="190" y="215" type="curve"/>
			<point x="221" y="239" type="line"/>
			<point x="224" y="248"/>
			<point x="270" y="282"/>
			<point x="284" y="293" type="curve" smooth="yes"/>
			<point x="342" y="339"/>
			<point x="434" y="373"/>
			<point x="533" y="373" type="curve" smooth="yes"/>
			<point x="664" y="373"/>
			<point x="709" y="343"/>
			<point x="743" y="318" type="curve"/>
			<point x="770" y="362" type="line"/>
			<point x="731" y="393"/>
			<point x="669" y="436"/>
			<point x="545" y="436" type="curve" smooth="yes"/>
			<point x="453" y="436"/>
			<point x="361" y="401"/>
			<point x="259" y="314" type="curve" smooth="yes"/>
			<point x="116" y="192"/>
			<point x="41" y="115"/>
			<point x="23" y="96" type="curve"/>
			<point x="19" y="75"/>
			<point x="40" y="62"/>
			<point x="45" y="61" type="curve"/>
			<point x="51" y="96"/>
			<point x="168" y="175"/>
			<point x="207" y="199" type="curve" smooth="yes"/>
			<point x="259" y="231"/>
			<point x="311" y="252"/>
			<point x="372" y="252" type="curve" smooth="yes"/>
			<point x="445" y="252"/>
			<point x="501" y="222"/>
			<point x="501" y="158" type="curve" smooth="yes"/>
			<point x="501" y="105"/>
			<point x="451" y="79"/>
			<point x="403" y="79" type="curve" smooth="yes"/>
			<point x="359" y="79"/>
			<point x="332" y="117"/>
			<point x="332" y="168" type="curve" smooth="yes"/>
			<point x="332" y="173"/>
			<point x="332" y="178"/>
			<point x="333" y="183" type="curve"/>
			<point x="314" y="179" type="line"/>
			<point x="300" y="116"/>
			<point x="254" y="77"/>
			<point x="205" y="77" type="curve" smooth="yes"/>
			<point x="153" y="77"/>
			<point x="142" y="121"/>
			<point x="99" y="121" type="curve" smooth="yes"/>
			<point x="92" y="121"/>
			<point x="85" y="120"/>
			<point x="76" y="117" type="curve"/>
			<point x="56" y="89" type="line"/>
			<point x="61" y="94"/>
			<point x="67" y="96"/>
			<point x="74" y="96" type="curve" smooth="yes"/>
			<point x="86" y="96"/>
			<point x="99" y="89"/>
			<point x="106" y="79" type="curve"/>
			<point x="133" y="37"/>
			<point x="160" y="-6"/>
		</contour>
		<contour>
			<point x="120" y="278" type="curve" smooth="yes"/>
			<point x="133" y="278"/>
			<point x="149" y="280"/>
			<point x="161" y="286" type="curve"/>
			<point x="151" y="299"/>
			<point x="143" y="311"/>
			<point x="143" y="333" type="curve" smooth="yes"/>
			<point x="143" y="386"/>
			<point x="172" y="422"/>
			<point x="208" y="422" type="curve" smooth="yes"/>
			<point x="244" y="422"/>
			<point x="259" y="393"/>
			<point x="257" y="360" type="curve"/>
			<point x="257" y="329"/>
			<point x="245" y="306"/>
			<point x="230" y="290" type="curve"/>
			<point x="253" y="298" type="line"/>
			<point x="269" y="314"/>
			<point x="305" y="355"/>
			<point x="305" y="395" type="curve" smooth="yes"/>
			<point x="305" y="434"/>
			<point x="268" y="450"/>
			<point x="227" y="450" type="curve" smooth="yes"/>
			<point x="146" y="450"/>
			<point x="73" y="395"/>
			<point x="73" y="324" type="curve" smooth="yes"/>
			<point x="73" y="294"/>
			<point x="88" y="278"/>
		</contour>
		<contour>
			<point x="884" y="-16" type="curve" smooth="yes"/>
			<point x="996" y="-16"/>
			<point x="1049" y="116"/>
			<point x="1049" y="247" type="curve" smooth="yes"/>
			<point x="1049" y="439"/>
			<point x="921" y="577"/>
			<point x="709" y="577" type="curve" smooth="yes"/>
			<point x="659" y="577"/>
			<point x="605" y="567"/>
			<point x="575" y="554" type="curve"/>
			<point x="566" y="539"/>
			<point x="561" y="517"/>
			<point x="561" y="499" type="curve" smooth="yes"/>
			<point x="561" y="491"/>
			<point x="562" y="484"/>
			<point x="564" y="479" type="curve"/>
			<point x="584" y="489"/>
			<point x="637" y="505"/>
			<point x="704" y="505" type="curve" smooth="yes"/>
			<point x="847" y="505"/>
			<point x="1003" y="453"/>
			<point x="1003" y="264" type="curve" smooth="yes"/>
			<point x="1003" y="151"/>
			<point x="955" y="65"/>
			<point x="875" y="65" type="curve" smooth="yes"/>
			<point x="843" y="65"/>
			<point x="792" y="79"/>
			<point x="792" y="149" type="curve"/>
			<point x="793" y="158" type="line"/>
			<point x="774" y="154" type="line"/>
			<point x="756" y="108"/>
			<point x="727" y="69"/>
			<point x="658" y="69" type="curve" smooth="yes"/>
			<point x="587" y="69"/>
			<point x="539" y="111"/>
			<point x="539" y="172" type="curve" smooth="yes"/>
			<point x="539" y="242"/>
			<point x="603" y="311"/>
			<point x="691" y="311" type="curve" smooth="yes"/>
			<point x="715" y="311"/>
			<point x="741" y="308"/>
			<point x="768" y="302" type="curve"/>
			<point x="779" y="315" type="line"/>
			<point x="779" y="337"/>
			<point x="776" y="350"/>
			<point x="770" y="362" type="curve"/>
			<point x="759" y="363"/>
			<point x="747" y="364"/>
			<point x="734" y="364" type="curve" smooth="yes"/>
			<point x="615" y="364"/>
			<point x="501" y="319"/>
			<point x="501" y="152" type="curve" smooth="yes"/>
			<point x="501" y="50"/>
			<point x="565" y="-15"/>
			<point x="653" y="-15" type="curve" smooth="yes"/>
			<point x="739" y="-15"/>
			<point x="775" y="48"/>
			<point x="780" y="83" type="curve"/>
			<point x="772" y="105" type="line"/>
			<point x="771" y="99"/>
			<point x="770" y="93"/>
			<point x="770" y="85" type="curve" smooth="yes"/>
			<point x="770" y="29"/>
			<point x="819" y="-16"/>
		</contour>
		<contour>
			<point x="1029" y="339" type="line"/>
			<point x="1029" y="482"/>
			<point x="994" y="684"/>
			<point x="753" y="684" type="curve" smooth="yes"/>
			<point x="672" y="684"/>
			<point x="600" y="652"/>
			<point x="600" y="652" type="curve"/>
			<point x="587" y="628"/>
			<point x="583" y="602"/>
			<point x="582" y="592" type="curve"/>
			<point x="604" y="607"/>
			<point x="634" y="615"/>
			<point x="661" y="620" type="curve"/>
			<point x="689" y="650" type="line"/>
			<point x="655" y="640"/>
			<point x="604" y="578"/>
			<point x="604" y="526" type="curve"/>
			<point x="632" y="511" type="line"/>
			<point x="632" y="565"/>
			<point x="703" y="633"/>
			<point x="737" y="638" type="curve"/>
			<point x="666" y="621" type="line"/>
			<point x="666" y="621"/>
			<point x="680" y="630"/>
			<point x="742" y="630" type="curve" smooth="yes"/>
			<point x="964" y="630"/>
			<point x="993" y="449"/>
			<point x="992" y="401" type="curve"/>
		</contour>
	</outline>
</glyph>
<glyph name="sinJnyRa" format="2">
	<advance width="906"/>
	<outline>
		<contour>
			<point x="117" y="-8" type="curve"/>
			<point x="136" y="-8"/>
			<point x="147" y="-4"/>
			<point x="151" y="-1" type="curve"/>
			<point x="136" y="26"/>
			<point x="105" y="109"/>
			<point x="105" y="184" type="curve" smooth="yes"/>
			<point x="105" y="309"/>
			<point x="167" y="406"/>
			<point x="270" y="406" type="curve"/>
			<point x="375" y="447" type="line"/>
			<point x="361" y="450"/>
			<point x="353" y="453"/>
			<point x="309" y="453" type="curve" smooth="yes"/>
			<point x="176" y="453"/>
			<point x="50" y="366"/>
			<point x="50" y="196" type="curve" smooth="yes"/>
			<point x="50" y="119"/>
			<point x="91" y="23"/>
		</contour>
		<contour>
			<point x="363" y="-9" type="curve" smooth="yes"/>
			<point x="487" y="-9"/>
			<point x="554" y="79"/>
			<point x="554" y="173" type="curve" smooth="yes"/>
			<point x="554" y="247"/>
			<point x="503" y="302"/>
			<point x="438" y="301" type="curve"/>
			<point x="434" y="249" type="line"/>
			<point x="464" y="248"/>
			<point x="520" y="230"/>
			<point x="520" y="180" type="curve" smooth="yes"/>
			<point x="520" y="113"/>
			<point x="435" y="80"/>
			<point x="367" y="80" type="curve" smooth="yes"/>
			<point x="270" y="80"/>
			<point x="195" y="130"/>
			<point x="195" y="215" type="curve" smooth="yes"/>
			<point x="195" y="297"/>
			<point x="257" y="356"/>
			<point x="366" y="356" type="curve"/>
			<point x="371" y="363"/>
			<point x="376" y="408"/>
			<point x="376" y="432" type="curve" smooth="yes"/>
			<point x="376" y="438"/>
			<point x="376" y="444"/>
			<point x="375" y="447" type="curve"/>
			<point x="269" y="446"/>
			<point x="159" y="357"/>
			<point x="159" y="194" type="curve" smooth="yes"/>
			<point x="159" y="71"/>
			<point x="239" y="-9"/>
		</contour>
		<contour>
			<point x="682" y="448" type="line"/>
			<point x="667" y="452"/>
			<point x="651" y="454"/>
			<point x="634" y="454" type="curve" smooth="yes"/>
			<point x="493" y="454"/>
			<point x="408" y="333"/>
			<point x="403" y="170" type="curve"/>
			<point x="408" y="169"/>
			<point x="412" y="169"/>
			<point x="417" y="169" type="curve" smooth="yes"/>
			<point x="424" y="169"/>
			<point x="431" y="169"/>
			<point x="439" y="170" type="curve"/>
			<point x="437" y="177"/>
			<point x="436" y="190"/>
			<point x="436" y="197" type="curve" smooth="yes"/>
			<point x="436" y="305"/>
			<point x="497" y="366"/>
			<point x="613" y="366" type="curve" smooth="yes"/>
			<point x="621" y="366"/>
			<point x="630" y="366"/>
			<point x="638" y="365" type="curve"/>
		</contour>
		<component base="sinDRa" xOffset="484"/>
	</outline>
</glyph>
<glyph name="sinKSsU" format="2">
	<advance width="1126"/>
	<outline>
		<contour>
			<point x="712" y="-234" type="curve" smooth="yes"/>
			<point x="1070" y="-234" type="line"/>
			<point x="1065" y="182" type="line"/>
			<point x="1038" y="180" type="line"/>
			<point x="1018" y="-166" type="line"/>
			<point x="914" y="-180"/>
			<point x="804" y="-189"/>
			<point x="710" y="-187" type="curve" smooth="yes"/>
			<point x="658" y="-186"/>
			<point x="636" y="-138"/>
			<point x="636" y="-111" type="curve"/>
			<point x="633" y="-110"/>
			<point x="630" y="-110"/>
			<point x="627" y="-110" type="curve" smooth="yes"/>
			<point x="604" y="-110"/>
			<point x="572" y="-124"/>
			<point x="562" y="-134" type="curve"/>
			<point x="570" y="-176"/>
			<point x="610" y="-234"/>
		</contour>
		<component base="sinKSsa"/>
	</outline>
</glyph>
<glyph name="sinKVa.reph" format="2">
	<advance width="1065"/>
	<outline>
		<contour>
			<point x="741" y="575" type="line"/>
			<point x="777" y="594"/>
			<point x="804" y="630"/>
			<point x="804" y="687" type="curve" smooth="yes"/>
			<point x="804" y="772"/>
			<point x="738" y="833"/>
			<point x="647" y="833" type="curve" smooth="yes"/>
			<point x="551" y="833"/>
			<point x="498" y="764"/>
			<point x="498" y="692" type="curve" smooth="yes"/>
			<point x="498" y="639"/>
			<point x="534" y="596"/>
			<point x="591" y="596" type="curve" smooth="yes"/>
			<point x="639" y="596"/>
			<point x="664" y="628"/>
			<point x="664" y="664" type="curve" smooth="yes"/>
			<point x="664" y="707"/>
			<point x="632" y="739"/>
			<point x="595" y="739" type="curve" smooth="yes"/>
			<point x="551" y="739"/>
			<point x="533" y="700"/>
			<point x="523" y="690" type="curve"/>
			<point x="532" y="677" type="line"/>
			<point x="547" y="686"/>
			<point x="560" y="696"/>
			<point x="592" y="696" type="curve" smooth="yes"/>
			<point x="615" y="696"/>
			<point x="639" y="685"/>
			<point x="639" y="666" type="curve" smooth="yes"/>
			<point x="639" y="642"/>
			<point x="614" y="636"/>
			<point x="595" y="636" type="curve" smooth="yes"/>
			<point x="558" y="636"/>
			<point x="538" y="661"/>
			<point x="538" y="703" type="curve" smooth="yes"/>
			<point x="538" y="752"/>
			<point x="597" y="772"/>
			<point x="647" y="772" type="curve" smooth="yes"/>
			<point x="679" y="772"/>
			<point x="772" y="757"/>
			<point x="772" y="685" type="curve" smooth="yes"/>
			<point x="772" y="645"/>
			<point x="760" y="619"/>
			<point x="723" y="604" type="curve"/>
		</contour>
		<component base="sinKVa"/>
	</outline>
</glyph>
<glyph name="sinKhU" format="2">
	<advance width="677"/>
	<outline>
		<contour>
			<point x="233" y="-266" type="curve" smooth="yes"/>
			<point x="601" y="-266" type="line"/>
			<point x="596" y="150" type="line"/>
			<point x="569" y="148" type="line"/>
			<point x="549" y="-198" type="line"/>
			<point x="445" y="-212"/>
			<point x="325" y="-221"/>
			<point x="231" y="-219" type="curve" smooth="yes"/>
			<point x="179" y="-218"/>
			<point x="157" y="-170"/>
			<point x="157" y="-143" type="curve"/>
			<point x="154" y="-142"/>
			<point x="151" y="-142"/>
			<point x="148" y="-142" type="curve" smooth="yes"/>
			<point x="125" y="-142"/>
			<point x="93" y="-156"/>
			<point x="83" y="-166" type="curve"/>
			<point x="91" y="-208"/>
			<point x="131" y="-266"/>
		</contour>
		<component base="sinKha"/>
	</outline>
</glyph>
<glyph name="sinLI" format="2">
	<advance width="684"/>
	<outline>
		<contour>
			<point x="247" y="390" type="curve"/>
			<point x="306" y="461" type="line"/>
			<point x="293" y="457"/>
			<point x="279" y="455"/>
			<point x="265" y="455" type="curve" smooth="yes"/>
			<point x="224" y="455"/>
			<point x="187" y="473"/>
			<point x="187" y="511" type="curve" smooth="yes"/>
			<point x="187" y="577"/>
			<point x="261" y="606"/>
			<point x="373" y="606" type="curve" smooth="yes"/>
			<point x="450" y="606"/>
			<point x="545" y="579"/>
			<point x="545" y="521" type="curve" smooth="yes"/>
			<point x="545" y="491"/>
			<point x="502" y="468"/>
			<point x="461" y="468" type="curve" smooth="yes"/>
			<point x="455" y="468"/>
			<point x="450" y="468"/>
			<point x="445" y="469" type="curve"/>
			<point x="463" y="417" type="line"/>
			<point x="469" y="415"/>
			<point x="475" y="413"/>
			<point x="481" y="413" type="curve" smooth="yes"/>
			<point x="524" y="413"/>
			<point x="575" y="467"/>
			<point x="575" y="525" type="curve" smooth="yes"/>
			<point x="575" y="601"/>
			<point x="517" y="685"/>
			<point x="376" y="685" type="curve" smooth="yes"/>
			<point x="234" y="685"/>
			<point x="154" y="595"/>
			<point x="154" y="503" type="curve" smooth="yes"/>
			<point x="154" y="436"/>
			<point x="207" y="390"/>
		</contour>
		<component base="sinLa" yOffset="16"/>
	</outline>
</glyph>
<glyph name="sinLIi" format="2">
	<advance width="684"/>
	<outline>
		<contour>
			<point x="269" y="371" type="curve"/>
			<point x="316" y="437" type="line"/>
			<point x="305" y="433"/>
			<point x="273" y="431"/>
			<point x="262" y="431" type="curve" smooth="yes"/>
			<point x="227" y="431"/>
			<point x="194" y="445"/>
			<point x="194" y="490" type="curve" smooth="yes"/>
			<point x="194" y="550"/>
			<point x="270" y="593"/>
			<point x="379" y="593" type="curve" smooth="yes"/>
			<point x="527" y="593"/>
			<point x="579" y="524"/>
			<point x="579" y="484" type="curve" smooth="yes"/>
			<point x="579" y="455"/>
			<point x="563" y="439"/>
			<point x="540" y="439" type="curve" smooth="yes"/>
			<point x="519" y="439"/>
			<point x="494" y="451"/>
			<point x="494" y="483" type="curve" smooth="yes"/>
			<point x="494" y="519"/>
			<point x="517" y="542"/>
			<point x="539" y="553" type="curve"/>
			<point x="523" y="572" type="line"/>
			<point x="497" y="568"/>
			<point x="447" y="545"/>
			<point x="447" y="476" type="curve" smooth="yes"/>
			<point x="447" y="421"/>
			<point x="489" y="392"/>
			<point x="536" y="392" type="curve" smooth="yes"/>
			<point x="573" y="392"/>
			<point x="613" y="423"/>
			<point x="613" y="485" type="curve" smooth="yes"/>
			<point x="613" y="562"/>
			<point x="559" y="670"/>
			<point x="386" y="670" type="curve" smooth="yes"/>
			<point x="217" y="670"/>
			<point x="159" y="563"/>
			<point x="159" y="493" type="curve" smooth="yes"/>
			<point x="159" y="398"/>
			<point x="237" y="371"/>
		</contour>
		<component base="sinLa"/>
	</outline>
</glyph>
<glyph name="sinLUu" format="2">
	<advance width="630"/>
	<anchor x="618" y="130" name="_si_MaU"/>
	<outline>
		<contour>
			<point x="337" y="-99" type="curve" smooth="yes"/>
			<point x="451" y="-99"/>
			<point x="539" y="-45"/>
			<point x="565" y="-8" type="curve"/>
			<point x="563" y="3"/>
			<point x="547" y="26"/>
			<point x="542" y="29" type="curve"/>
			<point x="488" y="-3"/>
			<point x="411" y="-24"/>
			<point x="336" y="-24" type="curve" smooth="yes"/>
			<point x="230" y="-24"/>
			<point x="88" y="22"/>
			<point x="88" y="195" type="curve" smooth="yes"/>
			<point x="88" y="292"/>
			<point x="151" y="404"/>
			<point x="317" y="404" type="curve" smooth="yes"/>
			<point x="444" y="404"/>
			<point x="539" y="328"/>
			<point x="539" y="236" type="curve" smooth="yes"/>
			<point x="539" y="184"/>
			<point x="506" y="127"/>
			<point x="431" y="127" type="curve" smooth="yes"/>
			<point x="388" y="127"/>
			<point x="334" y="148"/>
			<point x="334" y="195" type="curve" smooth="yes"/>
			<point x="334" y="236"/>
			<point x="368" y="261"/>
			<point x="404" y="275" type="curve"/>
			<point x="364" y="265" type="line"/>
			<point x="441" y="265" type="line"/>
			<point x="446" y="282"/>
			<point x="446" y="290"/>
			<point x="446" y="300" type="curve"/>
			<point x="218" y="300" type="line"/>
			<point x="212" y="285"/>
			<point x="209" y="276"/>
			<point x="207" y="265" type="curve"/>
			<point x="339" y="265" type="line"/>
			<point x="340" y="267"/>
			<point x="364" y="270"/>
			<point x="364" y="272" type="curve"/>
			<point x="303" y="266"/>
			<point x="269" y="226"/>
			<point x="269" y="175" type="curve" smooth="yes"/>
			<point x="269" y="127"/>
			<point x="313" y="79"/>
			<point x="406" y="79" type="curve" smooth="yes"/>
			<point x="513" y="79"/>
			<point x="583" y="163"/>
			<point x="583" y="255" type="curve" smooth="yes"/>
			<point x="583" y="351"/>
			<point x="513" y="473"/>
			<point x="346" y="473" type="curve" smooth="yes"/>
			<point x="155" y="473"/>
			<point x="45" y="330"/>
			<point x="45" y="179" type="curve" smooth="yes"/>
			<point x="45" y="41"/>
			<point x="139" y="-99"/>
		</contour>
		<contour>
			<point x="547" y="-271" type="curve"/>
			<point x="569" y="-257" type="line"/>
			<point x="573" y="0" type="line"/>
			<point x="542" y="29" type="line"/>
			<point x="517" y="-221" type="line"/>
			<point x="542" y="-229" type="line"/>
			<point x="519" y="-198"/>
			<point x="467" y="-155"/>
			<point x="400" y="-155" type="curve" smooth="yes"/>
			<point x="309" y="-155"/>
			<point x="253" y="-219"/>
			<point x="201" y="-219" type="curve" smooth="yes"/>
			<point x="169" y="-219"/>
			<point x="136" y="-202"/>
			<point x="136" y="-155" type="curve"/>
			<point x="125" y="-151"/>
			<point x="111" y="-149"/>
			<point x="97" y="-149" type="curve" smooth="yes"/>
			<point x="86" y="-149"/>
			<point x="75" y="-150"/>
			<point x="66" y="-155" type="curve"/>
			<point x="66" y="-196"/>
			<point x="98" y="-266"/>
			<point x="193" y="-266" type="curve" smooth="yes"/>
			<point x="268" y="-266"/>
			<point x="298" y="-225"/>
			<point x="373" y="-225" type="curve" smooth="yes"/>
			<point x="437" y="-225"/>
			<point x="507" y="-248"/>
		</contour>
	</outline>
</glyph>
<glyph name="sinLlI" format="2">
	<advance width="656"/>
	<outline>
		<contour>
			<point x="451" y="422" type="line"/>
			<point x="527" y="425"/>
			<point x="571" y="477"/>
			<point x="571" y="530" type="curve" smooth="yes"/>
			<point x="571" y="614"/>
			<point x="490" y="675"/>
			<point x="386" y="675" type="curve" smooth="yes"/>
			<point x="246" y="675"/>
			<point x="187" y="607"/>
			<point x="187" y="531" type="curve" smooth="yes"/>
			<point x="187" y="460"/>
			<point x="243" y="424"/>
			<point x="298" y="424" type="curve"/>
			<point x="324" y="461" type="line"/>
			<point x="276" y="468"/>
			<point x="225" y="485"/>
			<point x="225" y="535" type="curve" smooth="yes"/>
			<point x="225" y="584"/>
			<point x="296" y="607"/>
			<point x="382" y="607" type="curve" smooth="yes"/>
			<point x="467" y="607"/>
			<point x="531" y="589"/>
			<point x="531" y="542" type="curve" smooth="yes"/>
			<point x="531" y="504"/>
			<point x="496" y="467"/>
			<point x="438" y="457" type="curve"/>
		</contour>
		<component base="sinLla"/>
	</outline>
</glyph>
<glyph name="sinLlU" format="2">
	<advance width="685"/>
	<outline>
		<contour>
			<point x="111" y="57"/>
			<point x="122" y="61"/>
			<point x="127" y="64" type="curve"/>
			<point x="98" y="96"/>
			<point x="89" y="180"/>
			<point x="98" y="248" type="curve" smooth="yes"/>
			<point x="108" y="326"/>
			<point x="141" y="377"/>
			<point x="181" y="383" type="curve"/>
			<point x="185" y="387" type="line"/>
			<point x="287" y="423" type="line"/>
			<point x="284" y="428" type="line"/>
			<point x="271" y="431"/>
			<point x="252" y="433"/>
			<point x="229" y="433" type="curve" smooth="yes"/>
			<point x="144" y="433"/>
			<point x="49" y="361"/>
			<point x="41" y="246" type="curve" smooth="yes"/>
			<point x="36" y="171"/>
			<point x="60" y="92"/>
			<point x="93" y="57" type="curve"/>
		</contour>
		<component base="sinPha" xOffset="70"/>
	</outline>
</glyph>
<glyph name="sinMatraAa.virama" format="2">
	<advance width="315"/>
	<outline>
		<contour>
			<point x="159" y="391" type="line"/>
			<point x="156" y="516" type="line"/>
			<point x="166" y="497"/>
			<point x="188" y="477"/>
			<point x="219" y="478" type="curve" smooth="yes"/>
			<point x="276" y="480"/>
			<point x="291" y="534"/>
			<point x="283" y="583" type="curve" smooth="yes"/>
			<point x="269" y="668"/>
			<point x="162" y="695"/>
			<point x="138" y="699" type="curve"/>
			<point x="127" y="689" type="line"/>
			<point x="126" y="391" type="line"/>
		</contour>
		<contour>
			<point x="180" y="554"/>
			<point x="155" y="573"/>
			<point x="155" y="601" type="curve" smooth="yes"/>
			<point x="155" y="634" type="line"/>
			<point x="189" y="630"/>
			<point x="250" y="617"/>
			<point x="252" y="577" type="curve" smooth="yes"/>
			<point x="253" y="551"/>
			<point x="233" y="542"/>
			<point x="213" y="547" type="curve"/>
		</contour>
		<contour>
			<point x="238" y="-10"/>
			<point x="273" y="114"/>
			<point x="273" y="209" type="curve" smooth="yes"/>
			<point x="273" y="353"/>
			<point x="199" y="417"/>
			<point x="136" y="417" type="curve" smooth="yes"/>
			<point x="84" y="417"/>
			<point x="57" y="390"/>
			<point x="36" y="370" type="curve"/>
			<point x="32" y="353"/>
			<point x="32" y="336"/>
			<point x="35" y="323" type="curve"/>
			<point x="55" y="335"/>
			<point x="82" y="345"/>
			<point x="109" y="345" type="curve" smooth="yes"/>
			<point x="187" y="345"/>
			<point x="233" y="306"/>
			<point x="239" y="241" type="curve" smooth="yes"/>
			<point x="249" y="131"/>
			<point x="193" y="64"/>
			<point x="109" y="64" type="curve" smooth="yes"/>
			<point x="80" y="64"/>
			<point x="44" y="74"/>
			<point x="25" y="79" type="curve"/>
			<point x="18" y="66"/>
			<point x="15" y="52"/>
			<point x="15" y="33" type="curve"/>
			<point x="19" y="18"/>
			<point x="67" y="-10"/>
			<point x="119" y="-10" type="curve" smooth="yes"/>
		</contour>
	</outline>
</glyph>
<glyph name="sinMatraIi.alt1" format="2">
	<advance width="0"/>
	<outline>
		<contour>
			<point x="65" y="357" type="line"/>
			<point x="53" y="427"/>
			<point x="53" y="487"/>
			<point x="75" y="523" type="curve" smooth="yes"/>
			<point x="107" y="575"/>
			<point x="166" y="594"/>
			<point x="219" y="594" type="curve" smooth="yes"/>
			<point x="292" y="594"/>
			<point x="372" y="566"/>
			<point x="372" y="511" type="curve" smooth="yes"/>
			<point x="372" y="490"/>
			<point x="351" y="448"/>
			<point x="302" y="448" type="curve" smooth="yes"/>
			<point x="279" y="448"/>
			<point x="255" y="459"/>
			<point x="256" y="484" type="curve" smooth="yes"/>
			<point x="257" y="505"/>
			<point x="280" y="515"/>
			<point x="303" y="515" type="curve" smooth="yes"/>
			<point x="336" y="515"/>
			<point x="362" y="497"/>
			<point x="375" y="482" type="curve"/>
			<point x="384" y="506" type="line"/>
			<point x="384" y="506"/>
			<point x="358" y="561"/>
			<point x="301" y="561" type="curve" smooth="yes"/>
			<point x="258" y="561"/>
			<point x="226" y="528"/>
			<point x="226" y="484" type="curve" smooth="yes"/>
			<point x="226" y="434"/>
			<point x="263" y="413"/>
			<point x="263" y="413" type="curve"/>
			<point x="272" y="392" type="line"/>
			<point x="372" y="396"/>
			<point x="409" y="470"/>
			<point x="410" y="524" type="curve" smooth="yes"/>
			<point x="411" y="609"/>
			<point x="343" y="671"/>
			<point x="255" y="671" type="curve" smooth="yes"/>
			<point x="66" y="671"/>
			<point x="1" y="502"/>
			<point x="0" y="331" type="curve"/>
		</contour>
	</outline>
</glyph>
